<?xml version="1.0" encoding="UTF-8"?>
<svg width="105.83mm" height="148.17mm" version="1.1" viewBox="0 0 105.83 148.17" xmlns="http://www.w3.org/2000/svg" xmlns:xlink="http://www.w3.org/1999/xlink">
 <defs>
  <linearGradient id="linearGradient2886" x1="371.67" x2="381.17" y1="401.51" y2="721.3" gradientUnits="userSpaceOnUse">
   <stop stop-color="#fff" offset="0"/>
   <stop stop-color="#fff" stop-opacity="0" offset="1"/>
  </linearGradient>
 </defs>
 <g transform="translate(-110.93 -103.65)">
  <rect x="110.93" y="103.65" width="105.83" height="148.17" fill="#f9f9f9"/>
  <g transform="matrix(.23636 0 0 .23636 74.537 43.951)">
   <circle cx="377.84" cy="566.03" r="160" fill="url(#linearGradient2886)" stroke="#002" stroke-linejoin="round" stroke-width="10.033"/>
   <circle cx="377.84" cy="566.03" r="145" fill="#030" stroke="#002" stroke-linejoin="round" stroke-width="10.033"/>
   <g transform="translate(-21.81 -6.3324)">
    <path id="path5460" d="m392.33 496.48c-8.2725-82.935 24.083-82.939 15.287 0" fill="none" stroke="#fff" stroke-linecap="round" stroke-width="8.9553"/>
    <g transform="translate(-31,-64.5)">
     <use transform="rotate(20 230.02 691.54)" width="100%" height="100%" xlink:href="#path5460"/>
     <use transform="rotate(40 325.53 646.35)" width="100%" height="100%" xlink:href="#path5460"/>
     <use transform="rotate(60 358.7 630.65)" width="100%" height="100%" xlink:href="#path5460"/>
     <use transform="rotate(80 376.35 622.3)" width="100%" height="100%" xlink:href="#path5460"/>
     <use transform="rotate(100 387.87 616.85)" width="100%" height="100%" xlink:href="#path5460"/>
     <use transform="rotate(120 396.42 612.81)" width="100%" height="100%" xlink:href="#path5460"/>
     <use transform="rotate(140 403.39 609.51)" width="100%" height="100%" xlink:href="#path5460"/>
     <use transform="rotate(160 409.52 606.61)" width="100%" height="100%" xlink:href="#path5460"/>
     <use transform="rotate(180 415.28 603.88)" width="100%" height="100%" xlink:href="#path5460"/>
     <use transform="rotate(200 421.04 601.16)" width="100%" height="100%" xlink:href="#path5460"/>
     <use transform="rotate(220 427.17 598.26)" width="100%" height="100%" xlink:href="#path5460"/>
     <use transform="rotate(240 434.14 594.96)" width="100%" height="100%" xlink:href="#path5460"/>
     <use transform="rotate(260 442.69 590.91)" width="100%" height="100%" xlink:href="#path5460"/>
     <use transform="rotate(-80 454.21 585.46)" width="100%" height="100%" xlink:href="#path5460"/>
     <use transform="rotate(-60 471.86 577.11)" width="100%" height="100%" xlink:href="#path5460"/>
     <use transform="rotate(-40 505.03 561.42)" width="100%" height="100%" xlink:href="#path5460"/>
     <use transform="rotate(-20 600.54 516.23)" width="100%" height="100%" xlink:href="#path5460"/>
    </g>
   </g>
   <circle cx="377.84" cy="566.03" r="84.474" fill="#fff" stroke="#002" stroke-linejoin="round" stroke-width="10.24"/>
   <circle cx="377.84" cy="566.03" r="72.315" fill="#600"/>
   <g id="g6038" transform="translate(-22.34 -6.244)">
    <path d="m401.33 554.24c-3.1454-9.9402-29.568-32.568-1.2221-34.015 29.37 1.6006 0.87135 23.529-1.7187 34.178" fill="none" stroke="#fff" stroke-width="23.11"/>
    <path d="m400 555.19v-25.658" fill="none" stroke="#600" stroke-linecap="round" stroke-linejoin="round" stroke-width="6"/>
    <circle cx="400" cy="527.83" r="4.8186" fill="#600"/>
    <path id="path6030" d="m404.69 557.49 6.5651-16.11" fill="none" stroke="#600" stroke-linecap="round" stroke-width="4"/>
    <use transform="matrix(-1 0 0 1 799.94 0)" width="100%" height="100%" xlink:href="#path6030"/>
   </g>
   <circle cx="377.84" cy="566.03" r="16.035" fill="#fff" stroke="#600" stroke-linecap="round" stroke-linejoin="round" stroke-width="6.6696"/>
   <circle cx="377.84" cy="566.03" r="8.5366" fill="#600"/>
   <use id="use6047" transform="rotate(-72 377.81 566.03)" width="100%" height="100%" xlink:href="#g6038"/>
   <use id="use6049" transform="rotate(-72 377.81 566.03)" width="100%" height="100%" xlink:href="#use6047"/>
   <use id="use6051" transform="rotate(-72 377.81 566.03)" width="100%" height="100%" xlink:href="#use6049"/>
   <use transform="rotate(-72 377.81 566.03)" width="100%" height="100%" xlink:href="#use6051"/>
  </g>
 </g>
</svg>
