<?xml version="1.0" encoding="UTF-8"?>
<svg width="105.83mm" height="148.17mm" version="1.1" viewBox="0 0 105.83 148.17" xmlns="http://www.w3.org/2000/svg">
 <g transform="translate(-52.162 -74.417)">
  <rect x="52.162" y="74.417" width="105.83" height="148.17" fill="#f9f9f9"/>
  <g transform="matrix(.26458 0 0 .26458 65.381 -79.746)">
   <circle cx="100.45" cy="736.82" r="61.118" fill="#030"/>
   <g fill="#600">
    <circle cx="100.57" cy="988.5" r="61.118"/>
    <circle cx="199.5" cy="988.5" r="61.118"/>
    <circle cx="199.5" cy="901.18" r="61.118"/>
    <circle cx="100.57" cy="901.18" r="61.118"/>
   </g>
   <circle cx="100.57" cy="901.18" r="46.095" fill="#fff"/>
   <circle cx="100.57" cy="901.18" r="39.693" fill="#600"/>
   <path transform="matrix(.99998 -.0068913 -.0068913 -.99998 0 0)" d="m115.91-901.85a21.548 21.548 0 0 1-21.143 21.544 21.548 21.548 0 0 1-21.938-20.734 21.548 21.548 0 0 1 20.318-22.324 21.548 21.548 0 0 1 22.702 19.894" fill="none" stroke="#fff" stroke-dasharray="13.5009, 13.5009" stroke-linecap="round" stroke-linejoin="round" stroke-width="6.7504"/>
   <g>
    <circle cx="100.57" cy="901.18" r="8.0316" fill="#fff"/>
    <circle cx="100.57" cy="901.18" r="3.6676" fill="#600"/>
    <circle cx="199.5" cy="901.18" r="46.095" fill="#fff"/>
    <circle cx="199.5" cy="901.18" r="39.693" fill="#600"/>
   </g>
   <path transform="matrix(.99998 -.0068913 -.0068913 -.99998 0 0)" d="m214.83-902.53a21.548 21.548 0 0 1-21.143 21.544 21.548 21.548 0 0 1-21.938-20.734 21.548 21.548 0 0 1 20.318-22.324 21.548 21.548 0 0 1 22.702 19.894" fill="none" stroke="#fff" stroke-dasharray="13.5009, 13.5009" stroke-linecap="round" stroke-linejoin="round" stroke-width="6.7504"/>
   <g>
    <circle cx="199.5" cy="901.18" r="8.0316" fill="#fff"/>
    <circle cx="199.5" cy="901.18" r="3.6676" fill="#600"/>
    <circle cx="100.57" cy="988.5" r="46.095" fill="#fff"/>
    <circle cx="100.57" cy="988.5" r="39.693" fill="#600"/>
   </g>
   <path transform="matrix(.99998 -.0068913 -.0068913 -.99998 0 0)" d="m115.3-989.17a21.548 21.548 0 0 1-21.143 21.544 21.548 21.548 0 0 1-21.938-20.734 21.548 21.548 0 0 1 20.318-22.324 21.548 21.548 0 0 1 22.702 19.894" fill="none" stroke="#fff" stroke-dasharray="13.5009, 13.5009" stroke-linecap="round" stroke-linejoin="round" stroke-width="6.7504"/>
   <g>
    <circle cx="100.57" cy="988.5" r="8.0316" fill="#fff"/>
    <circle cx="100.57" cy="988.5" r="3.6676" fill="#600"/>
    <circle cx="199.5" cy="988.5" r="46.095" fill="#fff"/>
    <circle cx="199.5" cy="988.5" r="39.693" fill="#600"/>
   </g>
   <path transform="matrix(.99998 -.0068913 -.0068913 -.99998 0 0)" d="m214.23-989.85a21.548 21.548 0 0 1-21.143 21.544 21.548 21.548 0 0 1-21.938-20.734 21.548 21.548 0 0 1 20.318-22.323 21.548 21.548 0 0 1 22.702 19.894" fill="none" stroke="#fff" stroke-dasharray="13.5009, 13.5009" stroke-linecap="round" stroke-linejoin="round" stroke-width="6.7504"/>
   <g>
    <circle cx="199.5" cy="988.5" r="8.0316" fill="#fff"/>
    <circle cx="199.5" cy="988.5" r="3.6676" fill="#600"/>
    <circle cx="199.63" cy="736.82" r="61.118" fill="#030"/>
    <circle cx="199.63" cy="736.82" r="46.095" fill="#fff"/>
    <circle cx="199.63" cy="736.82" r="39.693" fill="#030"/>
   </g>
   <path transform="matrix(.99998 -.0068913 -.0068913 -.99998 0 0)" d="m216.09-738.18a21.548 21.548 0 0 1-21.143 21.544 21.548 21.548 0 0 1-21.938-20.734 21.548 21.548 0 0 1 20.318-22.324 21.548 21.548 0 0 1 22.702 19.894" fill="none" stroke="#fff" stroke-dasharray="13.5009, 13.5009" stroke-linecap="round" stroke-linejoin="round" stroke-width="6.7504"/>
   <g>
    <circle cx="199.63" cy="736.82" r="8.0316" fill="#fff"/>
    <circle cx="199.63" cy="736.82" r="3.6676" fill="#000037"/>
    <circle cx="100.45" cy="736.82" r="46.095" fill="#fff"/>
    <circle cx="100.45" cy="736.82" r="39.693" fill="#030"/>
   </g>
   <path transform="matrix(.99998 -.0068913 -.0068913 -.99998 0 0)" d="m116.92-737.49a21.548 21.548 0 0 1-21.143 21.544 21.548 21.548 0 0 1-21.938-20.734 21.548 21.548 0 0 1 20.318-22.324 21.548 21.548 0 0 1 22.702 19.894" fill="none" stroke="#fff" stroke-dasharray="13.5009, 13.5009" stroke-linecap="round" stroke-linejoin="round" stroke-width="6.7504"/>
   <circle cx="100.45" cy="736.82" r="8.0316" fill="#fff"/>
   <circle cx="100.45" cy="736.82" r="3.6676" fill="#000037"/>
  </g>
 </g>
</svg>
