<?xml version="1.0" encoding="UTF-8"?>
<svg width="105.83mm" height="148.17mm" version="1.1" viewBox="0 0 105.83 148.17" xmlns="http://www.w3.org/2000/svg">
 <g transform="translate(-145.08 -114.65)">
  <rect x="145.08" y="114.65" width="105.83" height="148.17" fill="#f9f9f9"/>
  <g transform="translate(855.49 183.78)">
   <g transform="matrix(.015041 0 0 -.015041 -761.6 196.84)">
    <path d="m6355.2 15510c0-16.1-9.24-39.2-18.47-60-11.55-53.1-25.41-104-36.96-154.8 62.36 4.7 124.73 7 187.09 13.9 13.86 87.8 23.1 180.2 32.33 279.5-62.36-2.3-131.65-9.3-205.57-13.9 23.11-20.8 41.58-43.9 41.58-64.7zm106.25-360.3c-66.98-2.3-133.96-4.6-200.95-9.2-30.03-117.8-66.98-235.6-103.95-353.4 71.61-6.9 143.22-18.5 212.51-27.7 39.27 127 71.61 258.7 92.39 390.3zm-314.13 272.6c6.93 41.6 11.55 67 11.55 92.4 0 16.1-2.32 30-4.62 46.2-46.2-4.7-92.39-9.3-138.59-13.9-18.48-73.9-41.57-145.5-64.67-219.4l-20.79-60.1c62.36 4.6 124.73 9.3 187.09 13.9zm-66.99-295.7c-66.98-4.6-136.27-13.8-203.26-23.1-34.65-94.7-69.29-189.4-106.25-288.7 73.92-2.3 147.83-6.9 219.44-11.5 32.33 106.2 62.36 214.8 90.07 323.3zm392.68 947c46.18 9.3 90.07 25.4 122.41 43.9 150.13-18.5 205.58-85.4 205.58-129.3 0-50.8-36.97-69.3-120.12-73.9-203.26-13.9-390.35-34.7-621.34-62.4-18.47 0-46.19 11.5-87.76 60-69.3-80.8-147.83-152.4-249.47-228.6-9.23-6.9-23.08-11.6-43.88-11.6-11.54 0-23.1 11.6-23.1 23.1 0 13.9 2.31 25.4 16.17 43.9 92.39 124.7 150.14 224.1 198.64 355.7 13.86 37 18.49 60.1 18.49 83.2 0 32.3-6.94 67-11.56 97 0 16.2 16.17 25.4 34.65 25.4 46.19 0 76.22-13.9 140.9-57.7 50.81-34.7 71.6-55.5 71.6-90.1 0-23.1-4.61-37-23.1-64.7-16.17-23.1-30.02-46.2-46.19-69.3 182.47 16.2 337.23 39.3 418.08 55.4zm297.96-1413.6c46.19-20.7 71.59-57.7 71.59-94.7 0-46.2-30.02-78.5-71.59-78.5-32.34 0-66.98 13.9-161.69 43.9-32.34 9.2-64.68 20.8-97.01 27.7-46.2-134-97.01-221.7-143.21-277.2-23.1-25.3-55.44-43.8-85.46-43.8-43.89 0-78.54 25.4-184.79 196.2-34.64 55.5-41.57 80.9-41.57 94.8 0 11.5 9.23 20.8 16.16 20.8 11.55 0 43.89-4.7 108.56-25.4 36.96-11.6 69.3-16.2 87.78-16.2 11.54 0 20.79 11.5 25.41 23.1 9.24 25.4 18.47 50.8 25.4 73.9-173.23 37-341.84 53.1-535.87 55.4-23.1 0-50.81-13.8-62.37-18.4-20.78-7-34.64-9.3-46.19-9.3-25.4 0-62.36 41.6-85.46 85.5-18.48 32.3-30.02 62.4-30.02 80.8 0 34.7 6.92 41.6 32.33 50.8 27.71 9.3 36.95 27.8 43.89 43.9 23.09 60.1 43.88 122.5 64.67 189.4-30.03-4.6-60.06-9.2-90.09-13.8-34.64 0-46.19 2.3-66.98 25.4-55.43 62.3-73.91 92.4-73.91 110.9 0 16.1 13.86 20.7 60.05 25.4 73.92 6.9 145.52 13.8 219.44 20.7 18.47 71.7 34.64 145.6 50.82 217.2 16.16 73.9 20.78 117.8 20.78 150.1s-2.32 50.8-6.93 80.8c0 11.6 9.24 20.8 36.95 20.8 30.03 0 64.68-16.1 94.71-36.9 143.21 9.2 286.41 23.1 489.67 41.6 41.58 2.3 78.54 18.4 108.56 36.9 53.13-9.2 101.64-34.6 180.17-99.3 30.03-25.4 48.51-50.8 48.51-71.6 0-34.7-13.87-53.1-41.59-80.9-11.54-11.5-20.78-39.2-25.4-66.9-6.93-43.9-13.87-85.5-20.78-124.8 60.04 2.3 101.63 11.6 136.27 27.7 145.52-46.1 198.64-103.9 198.64-152.4 0-50.8-30.03-60-94.7-60-90.08 9.2-180.17 13.8-270.24 16.1-25.42-143.2-57.75-286.4-94.71-427.3 90.09-20.8 164-41.6 210.2-62.4zm-1362.8 884.7c34.66-6.9 76.23-20.8 120.12-46.2 76.22-43.9 99.32-90.1 99.32-140.9 0-55.4-34.65-83.2-71.61-83.2-27.71 0-48.5 0-115.49 108.6-11.54 20.8-23.1 37-32.34 53.1l-13.85-1032.4c0-67-32.34-97.1-80.84-97.1-62.37 0-103.95 67-133.97 231 18.48 57.8 32.34 113.2 36.96 339.6l11.54 431.9c-108.56-161.7-233.29-298-385.73-413.5-9.24-6.9-30.03-11.5-43.89-11.5-11.55 0-25.4 16.2-25.4 27.7 0 16.2 4.62 25.4 18.47 39.3 147.83 173.2 272.56 378.8 381.11 628.2-71.59-11.5-145.51-25.4-226.36-39.2-30.02 2.3-43.88 9.2-66.97 36.9-41.58 50.8-60.06 80.9-60.06 99.4 0 13.8 4.62 16.1 25.41 18.4 157.06 13.9 277.17 30.1 381.11 46.2v207.9c0 143.2-11.55 228.7-25.41 265.6-6.92 16.2-16.16 41.6-16.16 55.5 0 13.8 11.54 20.8 32.34 20.8 36.95 0 99.31-23.1 168.6-57.8 36.96-18.5 69.31-48.5 69.31-76.2 0-16.2-4.63-34.7-16.18-57.8-16.17-32.3-23.09-92.3-25.4-214.8l-2.31-110.8c13.86 6.9 30.02 13.8 46.19 25.4 97.01-7 154.75-46.2 154.75-104 0-30-20.78-53.1-92.38-62.3-34.65-4.7-71.61-9.3-108.56-16.2l-2.32-71.6" fill="#002"/>
   </g>
   <g transform="matrix(.01212 0 0 -.01212 -761.6 196.84)">
    <path d="m6521 13474c58.39 60.2 154.17 38.4 227.12 19 122.17 36 269.4-17.3 397.38-8 19.57 21 20.48 29.6 5.51 51.4l44.62 12.5c-204.26 221-338.01 480.7-528.12 726.1 2.75 25.8 45.85 24 56.86 45.9 76.01 9.1 116.87-67.4 151.61-120.2 17.5-105.8 126.21-195.3 168.09-289.2 83.32-164.8 210.97-319.9 376.03-395.4 114.82-113.3 304.34-122 467.37-162.6 218.25-63.8 446.58-114.3 679.3-150.8 79.36-40.3 152.83-27.9 246.36-43.7l9.48 7.6 154.06-16.5c156.1-51.4 332.98-70.3 482.44-129.7l27.53 14.4c37.92 192.2-43.48 348.1-136.89 499.5-24.75 92.1-88.12 174-76.8 279.5-79.56 173-126.2 357-202.6 532.5-28.11 141.6-62.84 275.1-58.34 424.7-51.1 438.4-36.68 895.7-152.99 1317.9 21.92 69.8-24.54 120.9-22.6 192.9 48.09 17.9 75.6-48.5 123.8-56.6-12.75-65 25.45-112.4 42.46-169 18.44-16.5 23.33-51.6 56.24-40.7-28.03-126.8 24.74-253.7 37.25-379.1 13.21-307.4 53.01-608.9 92.82-910.3 0.9-233.9 19.82-461 140.03-658.6 46.96-100.2 102.79-198.6 158.93-294.1l28.42 22.9c65.43 125.8 125.81 257.8 147.68 408.4 98.57 246.3 131.42 525.6 237.89 765.2 18.22 61.5 25.54 130 54.44 184.6 15.81-68.1 15.52-151.7 2.7-216.8 10.03-41.4 4.24-95.6-5.2-129.2l7.71-9.5c-47.41-387.3-192.8-720.9-289.06-1080-214.38-196.3 67.45-393.9 92.31-592.8 41.33-125.6 46.92-261.9 97.41-382.7 185.25-129.6 341.85-310.8 527.05-440.3 146.9-137.1 286.3-290.5 440.7-411 73.3-96.8 209.2-250.6 209.2-250.6l-333.9-206.7s-58.3 98.7-60.6 102.1c-88.5 142.2-208 293.5-339.5 385.6-113.2 127.5-255.4 229.4-380.61 352.4-109.27 57.9-194.54 150.7-286.07 238.5-245.78 130.3-420.09 388.5-719.03 426.3-361.7 125.4-760.92 116.3-1129.2 233.6-396.76 94.5-790.67 188.8-1184.6 282.9-22.12-17.8-41.99-41.6-72.14-26.9-15.9 13.3-17.22 27.9-12.53 44.6" fill="#1a255c"/>
   </g>
   <g transform="matrix(.011792 0 0 -.011792 -761.6 196.84)">
    <path d="m9742.8 16188c1.53-13.5 6.07-33.3 23.09-33.6 6.86-46.7 48-98.5 6.9-143.1 1.56-26.8-29.91-36.8-29.07-63.5-42.71-52.6-105.94-61.4-166.83-62.2-93.05 17.3-183.23 75.2-199.47 172.6-29.68 55 2.05 122.9 31.59 170.1 63.84 62.9 147.83 71.6 231.78 45.6 38.74-19.1 77.28-46.9 102.01-85.9" fill="#600"/>
   </g>
   <g fill="#600">
    <path d="m-672.67 27.138c0.033 0.34566 0.0143 0.76255-0.11691 1.0895-0.48535 0.36784-1.046 0.62242-1.6548 0.34683-0.41547-0.20203-0.70197-0.54652-0.72964-1.0218 0.0366-0.50331 0.48449-0.84896 0.90583-1.1094 0.36399 0.0303 0.74655-0.11211 1.0948 0.0642l0.50076 0.63059"/>
    <path d="m-634.54 17.954c-0.54649-0.24641-1.0755-0.5547-1.6711-0.33049-0.25454-0.11327-0.0771-0.44374-0.29891-0.58738 0.033-0.37018-0.40407-0.45426-0.35038-0.75788 0.43912-0.12612 0.83616 0.20553 1.2624 0.20669 0.49983 0.36318 1.267 0.69833 1.058 1.4691"/>
    <path d="m-636.85 17.137c0.12379 0.63526 0.33511 1.2857-0.0559 1.8649-0.46478 0.33515-0.81981 0.86181-1.3932 1.0031-0.17282-0.16349-0.27439 0.11327-0.44958 0.0432-0.84425-0.58855-1.2927-1.7073-1.3172-2.7478 0.31647-0.77773 1.0382-1.107 1.8486-1.232 0.26508-0.0234 0.56169 0.0572 0.75673 0.26508 0.13426 0.32464 0.43668 0.51148 0.61072 0.80342"/>
    <path d="m-634.24 19.251c0.1238 0.5325-0.4204 0.83963-0.69014 1.1935-0.67616 0.34566-1.5707 0.58388-2.3309 0.54534-0.34679-0.0607-0.59667-0.34565-0.84311-0.54884 0.51854-0.1705 0.83616-0.58389 1.2414-0.89568 0.39818-0.33048 0.73451-0.95523 0.60491-1.4749 0.37833-0.0888 0.82089-0.10276 1.2098 0.12962 0.33632 0.29895 0.80812 0.522 0.80812 1.051"/>
   </g>
   <path d="m-637.92 19.611c-0.0724 0.17517-0.24286 0.35968-0.14709 0.51149 0.33159 0.0572 0.62355 0.24289 0.70526 0.59205-7e-3 0.18217-0.10386 0.36435-0.24987 0.46361-0.47181 0.0584-0.89802-0.19269-1.3324-0.37603-0.35266 0.0864-0.61889 0.3842-0.98912 0.49047-0.44141 0.33048-1.0148 0.49863-1.5672 0.69131-0.0735-0.0607-0.21132-0.056-0.19619-0.19034l0.0538-0.0993c0.7287-0.37602 1.7248-0.55002 1.9256-1.4375-0.28142-0.24289-0.15533-0.70183-0.42507-0.9529-0.0724-0.19618 0.11448-0.37252 0.13197-0.5617 0.30944-0.23238 0.58391 0.0234 0.78354 0.20787 0.19741 0.13546 0.12379 0.79875 0.52319 0.45309 0.0969-0.14013 0.29777-0.11677 0.44027-0.10393 0.15762 0.0631 0.27203 0.16699 0.34328 0.31179" fill="#947139"/>
   <path d="m-677.75 38.784-0.64742 7.1e-4c-0.33934-0.17749-0.72182-0.49046-0.77157-0.83611 0.17497-0.22539 0.243-0.62709 0.58649-0.65279-0.0222-0.17048-0.29769-0.20669-0.44657-0.31062-0.17053-0.21954-0.46707-0.21954-0.58176-0.47412 0.1068-0.26391 0.44055-0.28727 0.669-0.4239 0.82547 0 1.5729 0.74504 2.0653 1.3628 1.0999 0.1705 2.425-0.16582 3.3981 0.51149 0.033 0.0817-0.0566 0.12495-0.0997 0.18918-0.84641 0.035-1.6289-0.46827-2.4903-0.0409-0.20142 0.15882-0.51711 0.11677-0.67487 0.36551 0.0516 0.56287 0.20328 1.2787-0.24057 1.6792-0.25231 0.14481-0.50068-0.11211-0.59624-0.32464-0.1873-0.28727-0.16135-0.71585-0.16988-1.0463" fill="#947139"/>
   <g fill="#600">
    <path d="m-683.83 40.835c0.78347-0.46477 1.2633 0.76255 2.0734 0.5617-0.13397 0.48228 0.25676 0.82911 0.47689 1.197-1.03 0.03032-1.6466-0.98559-2.4414-1.5625l-0.10889-0.19618"/>
    <path d="m-684.26 39.459c0.0638-0.83612-0.0566-1.7341 0.46736-2.4196 0.24099 0.23238 0.33231 0.55001 0.61143 0.76838-0.0466 0.71702-0.488 1.3348-0.26758 2.0985-0.033 0.16115-0.0624 0.40638-0.28436 0.41456-0.49015 0.03971-0.50449-0.4928-0.52685-0.86181"/>
    <path d="m-681.27 41.257c0.20974-0.66329 0.28099-1.378 0.56757-2.0144 0.52413-0.48812 0.61416-1.3569 1.3578-1.5309 0.39181-0.0841 0.75931-0.11678 1.1155-0.11327 0.95637 0.61074 1.0924 1.6641 1.0157 2.7151 0.15777 0.63176-0.47503 1.0218-0.67373 1.5508-0.61595 0.55702-1.2736 1.0428-2.1744 1.0802-0.59173-0.13312-0.94769-0.72051-1.246-1.1794l0.0373-0.50797"/>
    <path d="m-683.03 39.063c0.0731-0.25458 0.10515-0.52433 0.28113-0.74037 0.51252 0.23005 0.94748 0.72051 1.4835 0.88867-0.16185 0.55002-0.14071 1.1502-0.3946 1.6711-0.43438 0.10275-0.74397-0.22187-1.1044-0.36318-0.42858-0.37718-0.089-0.97975-0.26565-1.4562"/>
    <path d="m-683.16 36.59c0.71229-0.63059 1.8072-0.85013 2.7654-0.75905 0.73616 0.14364 1.4456 0.65979 1.9361 1.2577-0.73193 0.0934-1.7145 0.15298-1.9192 0.96457l-0.60699 0.74388c-0.34156-0.0549-0.6257-0.32231-0.93995-0.49864-0.123-0.0911-0.3174-0.30362-0.51122-0.36317-0.32737-0.40172-0.86741-0.80694-0.72412-1.3453"/>
    <path d="m-668.88 31.935c0.80397 0.49512 1.4783 1.2215 1.6594 2.1452-0.69193 0.63877-0.94382 1.5263-1.1512 2.3647 0.0301 0.0911-0.0172 0.22305 0.10616 0.25224 0.24278 0.0771 0.36105-0.19502 0.41123-0.35266 0.12831-0.65862 0.25841-1.3558 0.7953-1.8684l0.77838-0.13195c0.51251 0.17166 1.0192 0.45075 1.4764 0.68547 0.24293 0.0268 0.43711 0.22421 0.64628 0.33749 0.81945 0.72635 1.242 1.6652 1.7835 2.5457 0.21139 1.1724 0.82233 2.7816-0.19662 3.6878-0.23798 0.11678-0.52728 0.22772-0.81113 0.17283-0.94726-0.37602-0.85924-1.4714-1.6017-2.0307-0.2569-0.40406-0.75845-0.79759-1.2121-0.95057-0.11412-6e-3 -0.19583 0.049-0.24737 0.14363-0.0756 0.26042 0.22307 0.12379 0.30156 0.30363 0.86332 0.41222 1.0185 1.2262 1.5808 1.8077 0.0523 0.27676 0.28787 0.44959 0.35131 0.71351 0.39138 0.36901 0.033 0.89801 9e-3 1.3231-0.21697 0.49865-0.48499 1.1491-1.0487 1.3371-0.7196-0.0072-1.4219-0.07941-2.1047-0.19853-0.72032-0.27208-1.6698-0.66796-1.7782-1.5625 0.11061-0.28493-0.18651-0.55118-0.0251-0.83028-9e-3 -0.64811-0.14916-1.3371-0.0473-1.9548-0.0466-0.07003-0.0825-0.15998-0.17634-0.20552-0.17999-0.02803-0.29317 0.13079-0.34572 0.26858-0.10121 0.88283 0.34873 1.7867 0.0122 2.6029-0.23153 0.4823-0.57846 0.84547-1.0875 0.96341l-0.86189 0.06659c-0.25669-0.08875-0.53466-0.09225-0.78189-0.20786-0.55209-0.39353-0.95751-0.93072-1.4893-1.3639l-9e-3 -0.07474c-0.3779-0.46476-0.8973-0.85013-1.0098-1.4667-0.033-0.43091 0.0822-0.98676 0.4893-1.2694 0.41983-0.75087 1.2311-0.92487 1.8825-1.3254 0.19604-0.0993 0.35904 0.1016 0.52656-0.0257-0.0667-0.1308-0.0559-0.30246-0.19891-0.39237-0.56205-7e-3 -0.86884 0.42741-1.3761 0.50681-0.0786 0.0794-0.17597 0.10978-0.28923 0.11094-0.24185-0.12145-0.48356-0.24407-0.72526-0.36551-0.79645-0.6411-1.4038-1.3873-1.8214-2.2328-0.16917-0.40754-0.2501-0.97158-0.0136-1.3604l0.71652-0.9564c0.43747-0.2931 0.86906-0.68548 1.4326-0.66562 0.45202 0.14129 1.0348 0.21604 1.2596 0.71817 0.27747 0.1051 0.19597 0.52433 0.20658 0.76956l-0.033 0.0409 0.0416 0.0327c-0.0681 0.16699 0.0826 0.31881 0.13325 0.47646 0.28651 0.80342 1.179 1.093 1.8456 1.5484 0.13282 2e-3 0.25884-0.0503 0.28027-0.18567l-0.0509-0.10744c-0.67839-0.44726-1.4689-0.83144-1.7758-1.594-0.16314-1.1911 0.16931-2.2468 0.62126-3.2534 0.41245-0.44725 1.0846-0.20669 1.5467-0.0362 0.43661 0.32581 1.0506 0.55353 1.3748 1.044"/>
   </g>
   <g fill="#fffae3">
    <path d="m-666.01 38.604c-0.16429 0.0257-0.21533-0.1378-0.32242-0.20903-0.015-0.0864 8e-3 -0.20319 0.0538-0.27675 0.0954-0.0958 0.25598-0.13547 0.37303-0.0479 0.078 0.15532 0.12831 0.45193-0.10465 0.53367"/>
    <path d="m-666.64 40.479c-0.0934-0.01283-0.18881 0.05254-0.26271-0.02566-0.10731-0.10393-0.01-0.27677 0.0301-0.38419 0.10157-0.09459 0.23984-0.21371 0.38851-0.15999 0.13088 0.17867 0.12135 0.52199-0.15591 0.56988"/>
    <path d="m-666.17 37.056c-0.16465-6e-3 -0.284-0.0806-0.36679-0.21137-0.0136-0.0923 9e-3 -0.20903 0.0552-0.2826 0.0807-0.0549 0.19827-0.13312 0.31374-0.10509 0.0922 0.0186 0.17598 0.11093 0.19612 0.20435-0.0358 0.15298-0.0366 0.35033-0.19841 0.39471"/>
    <path d="m-666.93 39.745c-0.13626 0.01168-0.0804-0.14363-0.1825-0.17633-0.34743-0.30945-0.72906-0.54417-1.0898-0.8186 0.0143-0.0736 0.0588-0.10393 0.13218-0.0887 0.49897 0.15414 0.8591 0.56286 1.1579 0.99143l-0.0179 0.09225"/>
    <path d="m-666.68 38.206c-0.44048 0.035-0.86999 0.0782-1.3169 0.0806-0.0416-0.0467-0.0764-0.12962-0.0115-0.16815 0.16372-0.18452 0.39525 7.1e-4 0.57531-0.10394 0.24443 0.0538 0.62082-0.0771 0.75322 0.19152"/>
    <path d="m-667.04 37.223c-0.33797 0.19619-0.69716 0.30362-1.034 0.4928-0.0773 4e-3 -0.1253-0.0432-0.11713-0.11795 0.37568-0.29077 0.82319-0.42622 1.2508-0.62358l0.12028 4e-3c-0.0287 0.1156-0.14666 0.16348-0.21999 0.24406"/>
    <path d="m-668.33 41.329c-0.0821 0.02803-0.15849-0.03735-0.22866-0.07003-0.1329-0.07125-0.12494-0.24173-0.053-0.34916 0.0794-0.11211 0.21189-0.1051 0.33217-0.10043 0.08 0.04788 0.22013 0.08174 0.20228 0.20553-0.0337 0.14013-0.11805 0.24523-0.25281 0.31412"/>
    <path d="m-668.53 40.493c0.0387-0.45893 0.0179-0.90852-0.0952-1.3394 0.0739-0.21487-0.11211-0.37251-0.0798-0.56986 0.0394-0.0374 0.0931-0.0525 0.1483-0.0421 0.13727 0.50564 0.22773 1.0206 0.17727 1.5718-0.0509 0.1308-0.0129 0.36084-0.1506 0.37953"/>
    <path d="m-668.55 37.432c-0.0861-0.0163-0.0702-0.0969-0.0902-0.15764l0.0294-0.0199c0.0545-0.4741 0.0734-0.92953 0.0545-1.3861-0.0136-0.0923-0.12114-0.16466-0.11892-0.24057 0.45503 0.18451 0.26952 0.74154 0.33497 1.1246-0.0358 0.21604 0.033 0.58038-0.20952 0.67964"/>
    <path d="m-668.54 35.413c-0.0859 0.0151-0.1769-0.0409-0.24959-0.0934-0.0681-0.10977-0.1901-0.23472-0.0717-0.35267 0.0856-0.0782 0.15526-0.17282 0.28787-0.13429 0.10802 7.2e-4 0.18443 0.0677 0.21067 0.16232 0.0487 0.14363 0 0.38303-0.17748 0.41807"/>
    <path d="m-669.47 39.542c-0.0674 0.31296-0.26651 0.54769-0.46328 0.77072l-0.0495-0.0093c-0.0186-0.09927 0.10767-0.09343 0.12838-0.16699 0.24322-0.23238 0.16028-0.68899 0.33583-0.96692l0.21296-0.72984c0.0358-0.0187 0.0437-0.0619 0.0918-0.0782 0.26787 0.0654 0 0.33749 0 0.50331-0.0886 0.22537-0.10344 0.4963-0.25375 0.6773"/>
    <path d="m-669.91 41.044c-0.0847 0.0093-0.13627 0.01168-0.20888-0.04086-0.1048-0.11561-0.0222-0.2137 0.0208-0.33398 0.088-0.09108 0.15533-0.1413 0.27905-0.18684 0.12394-0.01398 0.19203 0.09459 0.22422 0.19034 0.0122 0.19969-0.15576 0.30712-0.31504 0.37135"/>
    <path d="m-669.2 37.087c-0.17067-0.0397-0.0783-0.25106-0.16966-0.37134-0.30852-0.37953-0.38773-0.82211-0.60771-1.197 0.0759-0.0292 0.12916 0.0887 0.19081 0.13312 0.21683 0.4893 0.57036 0.76839 0.71487 1.2694-9e-3 0.0747-0.0308 0.19151-0.12831 0.16582"/>
    <path d="m-671.02 39.96-0.0921-0.01749c0.0538-0.07941 0.21304-0.14363 0.28142-0.23239 0.46105-0.40054 0.62198-0.99494 1.0092-1.4422 0.0616 0.0128 0.15591 0.0186 0.14645 0.0993-0.35841 0.59322-0.71552 1.2121-1.345 1.5928"/>
    <path d="m-669.92 37.19c-0.0834 2e-3 -0.0876-0.10626-0.14773-0.12496-0.47725-0.20201-0.81157-0.6119-1.2131-0.93888-0.0358-0.0128-0.13519-0.0269-0.10358-0.0911 0.20988-0.028 0.32736 0.18567 0.50685 0.2464 0.33131 0.26274 0.67358 0.50214 1.0415 0.70767 0.12559 0.0759 0.0172 0.20786-0.0839 0.20085"/>
    <path d="m-670.11 37.682c-0.66921-0.0677-1.2498-0.35967-1.9059-0.49397 0.0816-0.12495 0.25167 0.0175 0.36808-0.0234 0.51689-7.2e-4 1.0386 0.33048 1.559 0.2791 0.0616 0.0759 0.0215 0.15063-0.0215 0.23822"/>
    <path d="m-670.19 38.099c-0.49109 0.26158-1.0094 0.49864-1.4771 0.77073 0.10595-0.18334 0.28364-0.24524 0.44141-0.39821 0.29268-0.15999 0.61079-0.41689 0.94182-0.51148 0.0859-0.0152 0.13404 0.0642 0.0939 0.13896"/>
    <path d="m-671.22 40.737c-0.11175-0.0152-0.242-0.03505-0.25354-0.17048-7e-3 -0.19853 0.11763-0.34099 0.29418-0.39588 0.12881-0.0057 0.22737 0.07708 0.24988 0.18918 0.0136 0.19385-0.15447 0.30129-0.29052 0.37718"/>
    <path d="m-670.25 35.295c-0.17096-0.0724-0.20479-0.25691-0.26192-0.39003 0.13081-0.14598 0.30034-0.10044 0.45381-0.1016 0.0776 0.0596 0.12823 0.12612 0.14831 0.21953 0.0387 0.25691-0.20057 0.2102-0.3402 0.2721"/>
    <path d="m-672.04 39.663c-0.12401-0.01749-0.28493-0.04322-0.27339-0.19969 0.0387-0.16465 0.0366-0.38186 0.2463-0.41105 0.0674-0.0187 0.15963-7.2e-4 0.2088 0.0409 0.0645 0.12729 0.0237 0.30362-0.0322 0.4274-0.0538 0.04673-0.0781 0.1051-0.14924 0.14246"/>
    <path d="m-671.71 35.755c-0.0688 0.0245-0.17303 4e-3 -0.23339-0.0455-0.0801-0.0794-0.11261-0.20669-0.038-0.29427 0.0502-0.0922 0.11727-0.14364 0.22042-0.1483 0.14358 0.0152 0.19103 0.16465 0.28952 0.24757-0.0115 0.12494-0.13541 0.20319-0.23841 0.24055"/>
    <path d="m-672.64 37.43c-0.12494 0.0514-0.19547-0.0771-0.28643-0.13313-0.0877-0.10626-0.0294-0.27326 0.0229-0.37718 0.0915-0.10977 0.24385-0.10628 0.38141-0.0923 0.1344 0.16115 0.12981 0.54301-0.11784 0.60257"/>
   </g>
   <path d="m-656.02 43.407c-0.20329 0.3118-0.44277 0.60724-0.55617 0.9599-0.01 0.38887 0.0201 0.80808-0.0495 1.1654 0.11806 0.48463 0.46406 0.9564 0.51997 1.4912-9e-3 0.08058 0 0.17634-0.0986 0.21605-0.42908 0.06774-0.28357-0.40872-0.42543-0.61192-0.17282-0.56053-0.43754-1.086-0.85199-1.5648-0.41167-0.44724-1.1898-0.41105-1.7076-0.2207-0.14243 0.15415-0.40306 0.12029-0.58807 0.20086-1.0521 0.53601-1.5301 1.7061-1.3701 2.9124 0.14128 0.79642 0.44328 1.8544 1.3609 2.1043 0.71279 0.22071 1.2612-0.07941 1.8676-0.21487 0.10437 0.02337 0.16838 0.1308 0.24142 0.2137-0.0444 0.35501-0.42442 0.20086-0.63136 0.31063-0.43869 0.09809-0.92612 0.24056-1.2044 0.66446-0.57667 0.50447-1.153 1.1222-1.0793 1.9618 0.21411 0.8221 0.73545 1.5952 1.3815 2.2631 0.35547 0.20786 0.74176 0.36201 1.1527 0.4636 0.68025-0.0022 1.4244-0.07357 1.8432-0.63293 0.34213-0.021 0.16207-0.45543 0.40414-0.59906 0.11891-0.40287 0.44664-0.70182 0.53495-1.114 0.0552-0.04437 0.0616-0.10626 0.12809-0.13663 0.15662-0.05254 0.23268 0.11912 0.2787 0.21838-0.1048 0.80108-0.85637 1.2927-0.79645 2.1428 0.31525 0.75789 1.0489 1.1386 1.8798 1.1397 1.3983-0.0072 2.923-0.07707 3.7996-1.3243 0.25453-0.49513-0.0781-0.91436-0.11727-1.3721-0.27024-0.17983-0.384-0.46944-0.69473-0.5652-0.42679-0.4239-0.607-0.91554-0.7872-1.4072 0.01-0.09225 0.0495-0.16466 0.12988-0.21254 0.47912 0.05139 0.42206 0.64344 0.69201 0.94356 0.27411 0.43791 0.63724 0.69132 1.0855 0.79642 0.2301-0.03269 0.48593 0.16582 0.74692 0.07941 0.59545-0.09342 1.0513-0.58505 1.5018-0.97158 0.66921-0.72168 0.81436-1.782 0.83063-2.8132 0.0344-0.14714 0.0215-0.37485-0.0559-0.53483-0.45768-1.3079-1.0741-2.8972-2.4976-3.4788-0.39998-0.14363-0.8644-0.09926-1.1522 0.17867-0.45023 0.67614-0.76398 1.4293-0.95164 2.2398-0.0841 0.25574-0.23318 0.47294-0.41209 0.67379-0.13677 0.04208-0.1706-0.11327-0.24551-0.17749 0.0814-0.23005 0.24702-0.30713 0.32149-0.5325 0.0695-0.64695 0.40614-1.1456 0.52829-1.7563 0.21325-0.1086 0.12286-0.44024 0.16995-0.58622-0.0495-0.65278-0.0337-1.3312-0.3164-1.9221-0.39933-0.32581-0.75142-0.74153-1.2229-0.92487-1.0855-0.44375-2.75-0.77306-3.5863 0.33399" fill="#600"/>
   <g fill="#fffae3">
    <path d="m-653.16 46.925c-0.0785 0.16583-0.37618 0.27676-0.2321 0.49163 0.17311 0.13546 0.35095 0.22888 0.56054 0.17166 0.0872-0.16699 0.20192-0.35383 0.0718-0.54418-0.11877-0.09226-0.25798-0.1308-0.40026-0.11911"/>
    <path d="m-651.83 48.303c-0.0737 0.12378-0.27776 0.2067-0.22257 0.38536 0.15863 0.06659 0.2068 0.23238 0.38013 0.19618 0.18565-0.021 0.203-0.24172 0.24687-0.37719-0.0308-0.16932-0.21476-0.35734-0.40443-0.20436"/>
    <path d="m-655.17 46.594c-0.12028 0.15999 9e-3 0.32815 0.0165 0.4893 0.11491 0.03032 0.12996 0.167 0.25468 0.13663 0.11426-0.03735 0.19949-0.01864 0.28744-0.09576 0.0495-0.10977 0.0971-0.22888 0.0423-0.36201-0.11634-0.2102-0.40873-0.2896-0.6004-0.16816"/>
    <path d="m-653.19 48.056c-0.32306 0.40171-0.49897 0.96808-0.96396 1.2098-0.038 0.0572-0.0236 0.10394 0.0172 0.14597 0.223 0.09341 0.35998-0.13897 0.50657-0.25924 0.29404-0.34683 0.34959-0.75205 0.6419-1.107 9e-3 -0.21838-0.1516-0.05376-0.20135 0.01046"/>
    <path d="m-652.11 48.994c-0.46729 0.16465-0.77458 0.57804-1.3159 0.62709-0.0965 0.07941-0.31353 0.07941-0.29496 0.23356 0.14831 0.08174 0.36113-0.0036 0.50119-0.06888 0.38944-0.1483 0.75401-0.35149 1.0854-0.58388l0.082-0.1705-0.0581-0.03735"/>
    <path d="m-654.7 47.466-0.038 0.0572c0.14995 0.50214 0.31625 1.0825 0.13103 1.5601 0 0.05369 0.0409 0.08643 0.0892 0.08058 0.18995-0.10744 0.20529-0.3585 0.22278-0.55702-0.09-0.3877-0.0754-0.92487-0.40535-1.1409"/>
    <path d="m-651.53 49.963c-0.0667 0.11327-0.20106 0.2499-0.0925 0.3585 0.19311 0.05842 0.42141 0.15532 0.61295 0.01168 0.0602-0.10277 0.0935-0.22304 0.0215-0.32931-0.14902-0.17284-0.38127-0.13781-0.54198-0.04086"/>
    <path d="m-652.62 50.38c-0.37332-0.01283-0.72505-0.13779-1.0816-0.19969-0.0552 0.06193-0.0702 0.11911 0 0.167 0.24801 0.16932 0.53775 0.14947 0.81737 0.16816l0.0574 0.03856c0.30206-0.0043 0.6115 0.04788 0.91091-0.05491l0.038-0.0572c-0.23354-0.10043-0.50012-0.01398-0.74534-0.06186"/>
    <path d="m-656.71 47.561c-0.0813 0.04437-0.15361 0.10977-0.21196 0.19852 0.0315 0.21486 0.23841 0.2756 0.40715 0.32581 0.0991-0.0022 0.15404-0.06308 0.21619-0.11211 9e-3 -0.10626 0.0659-0.24873-0.0344-0.33631-0.10673-0.10043-0.25453-0.1378-0.37725-0.07591"/>
    <path d="m-656.2 48.296c7e-3 0.12962 0.15182 0.09926 0.22537 0.16932 0.33209 0.26975 0.56054 0.60607 0.89615 0.87115 0.043-0.0093 0.0724-0.06537 0.0998-0.10626-0.0953-0.19736-0.34959-0.28961-0.44499-0.4858-0.15068-0.15882-0.42235-0.26976-0.55209-0.41455-0.071-0.01634-0.13935-0.06071-0.22422-0.03383"/>
    <path d="m-652.06 51.592c-0.0566 0.03032-0.0998 0.10744-0.13756 0.16466 7e-3 0.10744 0 0.18917 0.0753 0.27325 0.12752 0.09109 0.2584 0.1775 0.4075 0.15531 0.0879-0.07707 0.19619-0.20903 0.18487-0.32814-0.01-0.11094-0.0452-0.19385-0.10652-0.27209-0.11734-0.12962-0.3078-0.06659-0.42356 0.0072"/>
    <path d="m-656.95 49.064-0.0409 0.06186c0.62527 0.24523 1.2556 0.47061 1.886 0.69716 0.0452-7.16e-4 0.0566-0.05254 0.0809-0.08992l-0.0129-0.06071c-0.62735-0.27559-1.2676-0.44025-1.9132-0.6084"/>
    <path d="m-654.07 50.56c-0.0244 0.03735-0.043 0.07707-0.0201 0.12262l0.81451 0.65279c0.22959 0.06071 0.45775 0.35149 0.72519 0.35499 0.0416-0.01749 0.10946 0.0043 0.12451-0.05369-0.17017-0.20787-0.45159-0.23589-0.61989-0.43558l-0.12351-0.02803c-0.30034-0.20436-0.51173-0.56753-0.90095-0.61308"/>
    <path d="m-657.72 48.763c-0.0394 0.07125-0.11024 0.09926-0.14594 0.18802 0.043 0.1413 0.18959 0.25924 0.3341 0.30128 0.14594 0.0057 0.29819-0.04437 0.4017-0.13313-0.0129-0.08292 0.0172-0.17517-0.0387-0.2499-0.1678-0.13196-0.35611-0.23356-0.55129-0.10627"/>
    <path d="m-654.52 50.686c-0.10931 0.21254 0.0832 0.39822 0.12301 0.58856 0.14665 0.09693 0.143 0.29662 0.22579 0.43208 0.20063 0.33398 0.40141 0.66679 0.69179 0.93188 0.0487-0.0057 0.0796-0.03032 0.10172-0.07475-0.33081-0.32931-0.52012-0.76021-0.76477-1.1526-0.0366-0.24055-0.19289-0.44725-0.25396-0.69716-0.0351-0.0152-0.0911-0.08991-0.12358-0.02803"/>
    <path d="m-655.3 50.238c-0.44686 0.13312-0.85931 0.21488-1.2288 0.45894-0.13455 0.11444-0.26551 0.22304-0.39482 0.34099l0.0366 0.02337c0.42033-0.19618 0.80999-0.51731 1.31-0.52666 0.10637-0.13896 0.39087 0.03154 0.39739-0.21836l-0.12042-0.07825"/>
    <path d="m-654.98 50.75c-0.19842 0.56636-0.60549 1.0848-0.79874 1.6547 0.0351 0.05957 0.0799-0.0082 0.1197-0.01168 0.24895-0.54068 0.66312-1.0475 0.81838-1.6045 0-0.08175-0.096-0.04788-0.13934-0.03856"/>
    <path d="m-653.28 52.851c-9e-3 0.12846-0.1592 0.27677-0.0595 0.38771 0.20049 0.09342 0.42506-0.04437 0.56635-0.16816 0.053-0.0701-0.0222-0.12612-0.0452-0.19385-0.15526-0.09459-0.305-0.14013-0.46191-0.02566"/>
    <path d="m-657.59 50.992c-0.0495 0.06537-0.13211 0.19035-0.0757 0.28728 0.19397 0.14947 0.42622 0.11443 0.63216 0.01749 0.0688-0.08174 0.0215-0.15765-0.0122-0.23239-0.15268-0.18918-0.37597-0.11093-0.54406-0.0724"/>
    <path d="m-656.27 52.675c-0.0876 0.12146-0.1802 0.26275-0.141 0.38653 0.17075 0.05842 0.37819 0.16465 0.55238 0.02451 0.11569-0.07357 0.14751-0.22538 0.11167-0.35384-0.15877-0.08875-0.34349-0.17166-0.52305-0.0572"/>
   </g>
   <path d="m-675.43 17.569c-0.10953 0.355-0.18336 0.72869-0.38206 1.0416-0.29253 0.25691-0.63401 0.50097-0.86418 0.78357-0.44808 0.21954-1.0318 0.25574-1.4786 0.55469-0.0566 0.0584-0.1354 0.1121-0.10286 0.2137 0.22271 0.37251 0.49517-0.0432 0.74261-0.0642 0.54097-0.22538 1.1144-0.35851 1.7475-0.34683 0.60692 0.0303 1.0771 0.65161 1.2623 1.1713-0.028 0.20787 0.16544 0.38653 0.22149 0.58038 0.26157 1.1514-0.33173 2.2678-1.3619 2.9171-0.70204 0.40054-1.7086 0.84546-2.4875 0.30012-0.62599-0.40638-0.74641-1.0195-1.0295-1.573-0.0852-0.0654-0.2088-0.0455-0.31948-0.0479-0.24386 0.2604 0.1177 0.45309 0.16565 0.68314 0.20544 0.39938 0.40744 0.86532 0.26021 1.3499-0.0186 0.76606-0.12545 1.6045-0.81724 2.0845-0.76892 0.36201-1.6971 0.4566-2.6234 0.38653-0.38736-0.14013-0.75343-0.33748-1.0938-0.58855-0.4331-0.52433-0.85444-1.1421-0.69244-1.8217-0.20357-0.27676 0.24579-0.41572 0.20149-0.69365 0.23361-0.34917 0.25325-0.79292 0.51367-1.1246 0-0.07 0.0423-0.1156 0.0237-0.18567-0.0602-0.15414-0.24063-0.10277-0.34629-0.0747-0.5485 0.59323-0.44599 1.4854-1.1376 1.984-0.78411 0.24173-1.5461-0.0782-2.0784-0.71584-0.88899-1.079-1.8111-2.2958-1.4136-3.7672 0.2177-0.51266 0.75308-0.5255 1.1297-0.78825 0.31131 0.0922 0.60635-5e-3 0.87924 0.17283 0.59846 0.0572 1.0914-0.11912 1.5845-0.29545 0.0652-0.0677 0.0952-0.14246 0.0803-0.23588-0.34607-0.33515-0.7644 0.0876-1.1675 0.0713-0.51245 0.0701-0.93909-0.0467-1.3065-0.32464-0.12257-0.19735-0.43797-0.26742-0.53932-0.52199-0.30909-0.51849-0.22229-1.183-0.21383-1.7762 0.1263-0.97625 0.8487-1.7668 1.6307-2.4383 0.0911-0.12145 0.27489-0.25691 0.44678-0.29895 1.2983-0.48579 2.9142-1.0288 4.2713-0.30595 0.36636 0.21487 0.62922 0.60023 0.60004 0.99961-0.23124 0.77773-0.6095 1.5006-1.1127 2.1639-0.14228 0.22771-0.21368 0.48112-0.25375 0.74737 0.0552 0.13195 0.19576 0.0596 0.29339 0.0759 0.12501-0.2102 0.078-0.38654 0.20314-0.58739 0.4531-0.46828 0.62119-1.0463 1.0118-1.5298-0.0523-0.23471 0.25977-0.37602 0.34184-0.50564 0.53417-0.38069 1.045-0.82678 1.68-0.98676 0.50606 0.0981 1.0508 0.10276 1.4927 0.34799 1.0356 0.55002 2.3539 1.6185 2.0386 2.9696" fill="#600"/>
   <g fill="#fffae3">
    <path d="m-679.97 17.618c-0.0771 0.16698 0.0272 0.4671-0.22931 0.49396-0.21504-0.0467-0.40105-0.12378-0.49108-0.32113 0.0729-0.174 0.14293-0.38186 0.37216-0.40288 0.14723 0.0315 0.26615 0.11444 0.34823 0.23005"/>
    <path d="m-681.88 17.481c-0.048 0.13546 0.0186 0.34566-0.1539 0.41689-0.1524-0.0794-0.3111-9e-3 -0.39425-0.16582-0.10286-0.15531 0.0559-0.31062 0.13182-0.4309 0.15032-0.0853 0.41224-0.0642 0.41633 0.17983"/>
    <path d="m-678.43 18.954c-0.0466 0.19619-0.25833 0.20319-0.38657 0.30129-0.0968-0.0689-0.21167 7e-3 -0.26794-0.10861-0.0444-0.11094-0.11304-0.16582-0.11003-0.2826 0.053-0.10743 0.11325-0.2207 0.25081-0.26274 0.23647-0.0455 0.48427 0.12845 0.51373 0.35266"/>
    <path d="m-680.82 18.367c-0.10228 0.50563-0.42449 1.0019-0.31274 1.5146-0.0201 0.0654-0.0652 0.0853-0.12286 0.0806-0.21461-0.11211-0.12386-0.36552-0.12472-0.55587 0.0781-0.44725 0.35374-0.74853 0.43954-1.2005 0.16257-0.14713 0.13863 0.0817 0.12078 0.16116"/>
    <path d="m-682.23 18.138c0.17204 0.46594 0.0516 0.96574 0.35984 1.413 0 0.12495 0.13999 0.29194 9e-3 0.37602-0.15798-0.0607-0.22873-0.2791-0.26809-0.42857-0.13454-0.39471-0.21203-0.80459-0.24579-1.2075l0.0788-0.17283 0.0659 0.0198"/>
    <path d="m-679.4 19.147-0.0201 0.0666c-0.48198 0.20553-1.0343 0.44959-1.2826 0.89684-0.043 0.0327-0.0925 0.0245-0.1192-0.0163-0.0387-0.21487 0.14479-0.3877 0.28586-0.52783 0.35589-0.17983 0.75895-0.53367 1.136-0.41923"/>
    <path d="m-683.34 18.314c-0.0444 0.12378-0.0631 0.31529-0.21626 0.30128-0.16895-0.11094-0.38965-0.22421-0.40155-0.4636 0.0409-0.11211 0.11153-0.21487 0.23999-0.22772 0.22773 5e-3 0.34951 0.20553 0.37782 0.39004"/>
    <path d="m-682.97 19.418c0.24852 0.27909 0.57001 0.46943 0.84512 0.70416-0.0122 0.0817-0.0459 0.12962-0.1301 0.10393-0.28909-0.0817-0.45926-0.31764-0.65237-0.51966l-0.066-0.021c-0.19002-0.23473-0.42872-0.43909-0.54104-0.73453l0.0201-0.0666c0.22651 0.11561 0.33002 0.37603 0.52406 0.53367"/>
    <path d="m-678.19 20.756c0.0179 0.0911 0.0143 0.18802-0.0165 0.28961-0.18536 0.11327-0.36442-7e-3 -0.51151-0.10393-0.0609-0.0771-0.0495-0.15882-0.0516-0.23823 0.0753-0.0747 0.1491-0.21019 0.28034-0.18917 0.14508 0.0186 0.26802 0.1086 0.29898 0.24172"/>
    <path d="m-679.08 20.83c-0.10293 0.0806-0.17354-0.0525-0.27482-0.0642-0.41991-0.0817-0.82476-0.0421-1.2428-0.13078-0.0208-0.0397 0-0.0969 0.0179-0.14481 0.21253-0.0537 0.44556 0.0829 0.65817 0.0303 0.21812 0.0152 0.47696 0.15298 0.67114 0.15998 0.0588 0.0444 0.13634 0.0677 0.1701 0.14948"/>
    <path d="m-684.26 19.764c0.0136 0.0631-0.0179 0.14479-0.0387 0.21019-0.0854 0.0654-0.14752 0.11911-0.25841 0.11795-0.15146-0.0397-0.30106-0.0864-0.37955-0.21487 0-0.11678 0.0344-0.28377 0.13383-0.35151 0.0915-0.0642 0.17798-0.0899 0.2769-0.0922 0.17447 8e-3 0.24838 0.19385 0.26565 0.33049"/>
    <path d="m-679.19 21.904-0.0222 0.0712c-0.58821-0.32347-1.165-0.66329-1.7417-1.0031-0.0287-0.035 7e-3 -0.0782 0.0172-0.11911l0.0545-0.0292c0.61337 0.30478 1.1498 0.69132 1.692 1.0802"/>
    <path d="m-682.18 20.648c-0.0129 0.0421-0.0315 0.0829-0.0808 0.0934l-1.023-0.20786c-0.19347-0.1378-0.56348-0.12729-0.73681-0.33048-0.0129-0.0432-0.0734-0.0817-0.0387-0.12962 0.26916-2e-3 0.47022 0.19619 0.73164 0.19735l0.10086 0.0771c0.34901 0.10042 0.76304 0.0303 1.047 0.30011"/>
    <path d="m-678.46 22.302c-0.0301 0.0759-7e-3 0.14832-0.0516 0.23239-0.13519 0.0572-0.3202 0.0199-0.44514-0.0642-0.0977-0.1086-0.15676-0.2569-0.15425-0.39352 0.0722-0.0432 0.12358-0.12613 0.21655-0.13079 0.20902 0.0444 0.40693 0.12494 0.43452 0.35616"/>
    <path d="m-681.99 21.073c-0.0937 0.22071-0.3597 0.19151-0.53159 0.2826-0.16759-0.0514-0.31876 0.0794-0.47668 0.10276-0.38456 0.0596-0.7692 0.11911-1.1586 0.0654-0.0265-0.0409-0.028-0.0806-7e-3 -0.12728 0.46456 0.0444 0.91658-0.0864 1.3744-0.14831 0.20873-0.12612 0.46771-0.13897 0.6986-0.25107 0.0344 0.0164 0.12709 0.0117 0.101 0.0759"/>
    <path d="m-681.15 21.382c0.18286 0.42973 0.38414 0.79875 0.43274 1.239 0 0.17634 0 0.34683-9e-3 0.52083l-0.0423-0.0128c-0.11798-0.44842-0.12064-0.95289-0.43338-1.3429 0.0394-0.17166-0.27432-0.28026-0.0863-0.44608l0.1377 0.0421"/>
    <path d="m-681.74 21.469c-0.30794 0.51498-0.44636 1.1596-0.76032 1.6722-0.0688 0.0117-0.0452-0.0654-0.0681-0.0993 0.25597-0.53716 0.38055-1.1794 0.70935-1.6547 0.0624-0.0537 0.0981 0.0432 0.11884 0.0817"/>
    <path d="m-684.44 21.506c-0.0928 0.0899-0.11132 0.30012-0.25991 0.29427-0.20042-0.0946-0.23849-0.355-0.23333-0.54301 0.0194-0.0852 0.11125-0.0642 0.17792-0.0899 0.17181 0.0596 0.30263 0.1448 0.31532 0.33865"/>
    <path d="m-680.26 23.631c-0.0179 0.0794-0.0616 0.22421-0.17232 0.24172-0.23891-0.0525-0.3607-0.25341-0.41768-0.47412 0.0193-0.1051 0.10802-0.11794 0.18665-0.13895 0.24336-4e-3 0.32615 0.2172 0.40335 0.37135"/>
    <path d="m-682.4 23.691c-0.038 0.14597-0.0874 0.30711-0.20695 0.355-0.15483-0.0923-0.36901-0.18451-0.37252-0.40755-0.0172-0.13663 0.0787-0.25807 0.20013-0.31179 0.16996 0.0642 0.35231 0.15297 0.37934 0.36434"/>
   </g>
   <g transform="matrix(.012142 0 0 -.012142 -761.6 196.84)">
    <path d="m8658.2 15936c-9.02-29.4-15.1-60.1-31.47-85.8-24.1-21.2-52.22-41.3-71.17-64.6-36.91-18.1-84.99-21-121.79-45.7-4.67-4.8-11.15-9.3-8.48-17.6 18.35-30.6 40.78 3.6 61.17 5.3 44.55 18.6 91.78 29.6 143.93 28.6 49.99-2.5 88.71-53.7 103.96-96.5-2.29-17.2 13.63-31.8 18.25-47.9 21.54-94.7-27.34-186.7-112.17-240.1-57.81-33-140.73-69.7-204.86-24.7-51.58 33.4-61.48 83.9-84.81 129.5-7.01 5.4-17.19 3.8-26.3 4-20.08-21.5 9.69-37.5 13.63-56.3 16.93-32.9 33.57-71.3 21.45-111.3-1.57-63.1-10.34-132-67.32-171.7-63.33-29.7-139.78-37.5-216.06-31.7-31.9 11.4-62.05 27.8-90.09 48.5-35.67 43.1-70.37 94-57.03 150-16.77 22.7 20.23 34.2 16.6 57.1 19.24 28.8 20.85 65.2 42.3 92.6-0.1 5.8 3.5 9.6 1.94 15.3-4.93 12.7-19.82 8.5-28.52 6.2-45.18-48.9-36.74-122.4-93.7-163.4-64.58-19.9-127.34 6.4-171.18 59-73.22 88.8-149.17 189-116.43 310.2 17.93 42.2 62.03 43.3 93.04 64.8 25.64-7.5 49.94 0.5 72.41-14.1 49.29-4.7 89.9 9.8 130.52 24.3 5.37 5.5 7.82 11.8 6.61 19.5-28.51 27.6-62.96-7.2-96.16-6-42.2-5.8-77.34 4-107.6 26.8-10.1 16.2-36.08 22.1-44.43 43-25.46 42.6-18.29 97.5-17.61 146.3 10.41 80.4 69.9 145.5 134.31 200.8 7.49 10 22.63 21.2 36.79 24.7 106.93 40 240.03 84.7 351.8 25.2 30.17-17.7 51.81-49.5 49.42-82.4-19.06-64-50.21-123.7-91.63-178.2-11.74-18.8-17.62-39.7-20.92-61.6 4.54-10.9 16.13-4.8 24.17-6.2 10.3 17.3 6.42 31.8 16.73 48.4 37.32 38.5 51.15 86.2 83.34 126-4.32 19.2 21.39 31 28.15 41.6 43.98 31.4 86.06 68.1 138.35 81.3 41.7-8.1 86.54-8.5 122.96-28.7 85.29-45.3 193.86-133.3 167.9-244.5" fill="#600"/>
   </g>
   <g transform="matrix(.011882 0 0 -.011882 -761.6 196.84)">
    <path d="m8465.9 16280c-6.49-13.9 2.31-39.2-19.3-41.4-18.09 3.9-33.75 10.3-41.33 27 6.13 14.6 12.03 32.1 31.31 33.9 12.41-2.7 22.41-9.6 29.32-19.5" fill="#fffae3"/>
   </g>
   <g transform="matrix(.011892 0 0 -.011892 -761.6 196.84)">
    <path d="m8297.9 16278c-4.05-11.4 1.56-29.1-12.94-35.1-12.83 6.6-26.16 0.8-33.15 14-8.65 13.1 4.68 26 11.08 36.2 12.65 7.2 34.67 5.3 35.01-15.1" fill="#fffae3"/>
   </g>
   <g transform="matrix(.01181 0 0 -.01181 -761.6 196.84)">
    <path d="m8647.9 16266c-3.95-16.5-21.88-17.1-32.73-25.4-8.2 5.8-17.93-0.6-22.71 9.2-3.74 9.4-9.56 13.9-9.31 23.8 4.48 9.2 9.6 18.7 21.25 22.3 20.02 3.9 41-10.8 43.5-29.9" fill="#fffae3"/>
   </g>
   <g transform="matrix(.011841 0 0 -.011841 -761.6 196.84)">
    <path d="m8423.5 16274c-8.65-42.7-35.86-84.8-26.43-128-1.69-5.6-5.5-7.2-10.35-6.8-18.14 9.5-10.47 30.9-10.54 47 6.58 37.8 29.87 63.2 37.11 101.4 13.73 12.4 11.7-6.9 10.21-13.6" fill="#fffae3"/>
   </g>
   <g transform="matrix(.011837 0 0 -.011837 -761.6 196.84)">
    <path d="m8307 16298c14.52-39.2 4.37-81.5 30.39-119.2 0.1-10.6 11.83-24.7 0.8-31.8-13.34 5.1-19.32 23.6-22.65 36.2-11.36 33.3-17.92 68-20.76 102l6.66 14.6 5.56-1.8" fill="#fffae3"/>
   </g>
   <g transform="matrix(.011781 0 0 -.011781 -761.6 196.84)">
    <path d="m8586.5 16290-1.71-5.7c-40.91-17.4-87.79-38.1-108.86-76.1-3.63-2.8-7.85-2.1-10.12 1.4-3.31 18.2 12.29 32.9 24.27 44.8 30.21 15.3 64.42 45.3 96.42 35.6" fill="#fffae3"/>
   </g>
   <g transform="matrix(.011849 0 0 -.011849 -761.6 196.84)">
    <path d="m8204.6 16267c-3.74-10.5-5.35-26.5-18.25-25.3-14.28 9.3-32.89 18.9-33.89 39.1 3.43 9.4 9.4 18.1 20.24 19.2 19.22-0.4 29.51-17.3 31.9-33" fill="#fffae3"/>
   </g>
   <g transform="matrix(.01179 0 0 -.01179 -761.6 196.84)">
    <path d="m8277.6 16255c21.07-23.5 48.34-39.7 71.67-59.6-0.99-6.9-3.91-11-11.03-8.8-24.52 6.9-38.95 26.8-55.34 44.1l-5.58 1.8c-16.12 19.9-36.36 37.1-45.89 62.3l1.71 5.5c19.22-9.7 27.99-31.9 44.46-45.3" fill="#fffae3"/>
   </g>
   <g transform="matrix(.011691 0 0 -.011691 -761.6 196.84)">
    <path d="m8756.4 16278c1.56-7.7 1.25-16-1.41-24.6-15.85-9.8-31.17 0.5-43.75 8.8-5.24 6.6-4.22 13.6-4.4 20.4 6.44 6.4 12.76 17.9 23.98 16.2 12.41-1.6 22.93-9.3 25.58-20.8" fill="#fffae3"/>
   </g>
   <g transform="matrix(.011695 0 0 -.011695 -761.6 196.84)">
    <path d="m8677.4 16266c-8.79-6.7-14.84 4.6-23.49 5.6-35.9 7-70.53 3.6-106.27 11.2-1.78 3.4 0.3 8.3 1.55 12.4 18.17 4.5 38.1-7.2 56.28-2.6 18.65-1.3 40.79-13.1 57.39-13.7 5.01-3.8 11.66-5.8 14.54-12.9" fill="#fffae3"/>
   </g>
   <g transform="matrix(.011756 0 0 -.011756 -761.6 196.84)">
    <path d="m8191.4 16272c1.16-5.4-1.54-12.3-3.26-17.9-7.27-5.7-12.54-10.1-21.98-10-12.88 3.4-25.61 7.2-32.28 18.3 0.26 9.9 2.93 24.1 11.38 29.9 7.78 5.3 15.14 7.6 23.55 7.8 14.83-0.7 21.13-16.5 22.59-28.1" fill="#fffae3"/>
   </g>
   <path d="m-660.22 7.6807-0.0215 0.0724c-0.58822-0.32464-1.165-0.66446-1.7416-1.0043-0.0287-0.035 7e-3 -0.0771 0.0165-0.11911l0.0545-0.0292c0.61351 0.30478 1.1498 0.69248 1.6921 1.0802" fill="#fffae3"/>
   <g transform="matrix(.011717 0 0 -.011717 -761.6 196.84)">
    <path d="m8396.3 16251c-1.1-3.5-2.7-7-6.91-7.9l-87.29 17.7c-16.52 11.8-48.09 10.8-62.89 28.2-1.11 3.7-6.26 6.9-3.32 11.1 22.97 0.2 40.13-16.7 62.44-16.8l8.61-6.6c29.78-8.6 65.12-2.6 89.36-25.7" fill="#fffae3"/>
   </g>
   <g fill="#fffae3">
    <path d="m-659.5 8.0789c-0.0301 0.0759-7e-3 0.1483-0.0516 0.23238-0.13519 0.0572-0.32013 0.0199-0.44514-0.0642-0.0977-0.10744-0.15677-0.25691-0.15433-0.39355 0.0723-0.0432 0.12365-0.12611 0.21662-0.13078 0.20888 0.0444 0.40693 0.12495 0.43453 0.35617"/>
    <path d="m-663.03 6.8492c-0.0935 0.22071-0.35955 0.19152-0.53144 0.2826-0.16767-0.0514-0.31877 0.0794-0.47668 0.10393-0.38464 0.0584-0.76921 0.11794-1.1586 0.0642-0.0265-0.0409-0.028-0.0806-7e-3 -0.12729 0.46442 0.0444 0.91666-0.0853 1.3744-0.1483 0.20881-0.12613 0.46779-0.13896 0.69867-0.25107 0.0344 0.0163 0.12702 0.0128 0.10093 0.0759"/>
    <path d="m-662.19 7.1599c0.18293 0.42857 0.38428 0.79758 0.43281 1.2378 0 0.17633 0 0.34683-9e-3 0.52082l-0.0423-0.0117c-0.11792-0.44958-0.12064-0.95406-0.43338-1.3441 0.0394-0.17167-0.27425-0.28027-0.0862-0.44492l0.13756 0.0421"/>
    <path d="m-662.78 7.2451c-0.30801 0.51499-0.44635 1.1596-0.76024 1.6722-0.0688 0.0117-0.0452-0.0654-0.0681-0.0993 0.25597-0.536 0.38062-1.1794 0.70935-1.6547 0.0624-0.0525 0.098 0.0432 0.11878 0.0817"/>
    <path d="m-665.48 7.2837c-0.0928 0.0888-0.11139 0.29895-0.25991 0.29311-0.20042-0.0946-0.23863-0.35384-0.23332-0.54301 0.0194-0.0853 0.11125-0.0642 0.17791-0.0888 0.17168 0.0584 0.30264 0.1448 0.31532 0.33865"/>
    <path d="m-661.3 9.409c-0.0179 0.0794-0.0616 0.22305-0.17211 0.24173-0.23898-0.0537-0.36076-0.25457-0.41775-0.47528 0.0194-0.1051 0.10795-0.11678 0.18666-0.13897 0.24335-5e-3 0.32614 0.21721 0.4032 0.37252"/>
    <path d="m-663.43 9.4674c-0.038 0.14597-0.0874 0.30712-0.20694 0.35618-0.15483-0.0934-0.36901-0.18569-0.37253-0.40873-0.0172-0.13663 0.0787-0.25808 0.20006-0.31179 0.17003 0.0654 0.35239 0.15297 0.37941 0.36434"/>
   </g>
   <path d="m-654.54 12.882c-0.20336 0.31179-0.44277 0.60724-0.55631 0.9599-0.01 0.38887 0.0208 0.80809-0.0495 1.1654 0.11799 0.48463 0.46399 0.9564 0.52004 1.4912-9e-3 0.0806-1.4e-4 0.17633-0.0987 0.21604-0.42915 0.0677-0.28364-0.40872-0.42543-0.61191-0.17289-0.56053-0.43768-1.086-0.85199-1.5648-0.41167-0.44725-1.1899-0.41105-1.7076-0.22071-0.14243 0.15415-0.40321 0.12029-0.58814 0.20086-1.0521 0.536-1.5302 1.7061-1.37 2.9124 0.14129 0.79641 0.44313 1.8544 1.3608 2.1043 0.71279 0.22071 1.2613-0.0794 1.8676-0.21487 0.10444 0.0234 0.16845 0.13079 0.24135 0.2137-0.0444 0.355-0.42435 0.20086-0.63129 0.31063-0.43862 0.0981-0.92605 0.24055-1.2044 0.66445-0.5766 0.50448-1.1528 1.1222-1.0792 1.9607 0.21397 0.82327 0.73538 1.5963 1.3815 2.2643 0.35532 0.20787 0.74175 0.36201 1.1527 0.46361 0.68011-2e-3 1.4243-0.0736 1.8432-0.6341 0.34213-0.0198 0.16207-0.45426 0.40414-0.5979 0.11877-0.40287 0.44657-0.70182 0.53495-1.114 0.0552-0.0444 0.0616-0.10626 0.12802-0.13779 0.1567-0.0514 0.23275 0.12028 0.27877 0.21954-0.1048 0.80109-0.85637 1.2927-0.79645 2.1428 0.31533 0.75787 1.0488 1.1386 1.8796 1.1397 1.3984-7e-3 2.9231-0.0771 3.7997-1.3242 0.25454-0.49513-0.0783-0.91436-0.11727-1.3721-0.27031-0.17984-0.38407-0.46945-0.69473-0.56521-0.42679-0.42389-0.60699-0.91552-0.78713-1.406 0.01-0.0934 0.0488-0.16582 0.12982-0.21371 0.47911 0.0514 0.42191 0.64345 0.692 0.94356 0.27411 0.43791 0.63717 0.69132 1.0856 0.79642 0.23002-0.0327 0.48578 0.16465 0.74677 0.0794 0.59552-0.0934 1.0512-0.58505 1.5018-0.97157 0.66914-0.72168 0.81436-1.782 0.83049-2.8132 0.0344-0.14714 0.0215-0.37486-0.0559-0.53484-0.45768-1.3079-1.0741-2.8972-2.4976-3.4788-0.39998-0.14364-0.8644-0.0993-1.1522 0.17867-0.45022 0.67613-0.76397 1.4293-0.95163 2.2398-0.0841 0.25574-0.23332 0.47295-0.41231 0.6738-0.13669 0.0421-0.17038-0.11327-0.24536-0.1775 0.0815-0.23005 0.24708-0.30712 0.32149-0.5325 0.0695-0.64694 0.40621-1.1456 0.52843-1.7563 0.2131-0.10861 0.12272-0.44025 0.16988-0.58622-0.0495-0.65278-0.0337-1.3312-0.31633-1.9221-0.3994-0.32581-0.7515-0.74153-1.2229-0.92487-1.0855-0.44375-2.75-0.77306-3.5863 0.33398" fill="#600"/>
   <g fill="#fffae3">
    <path d="m-651.68 16.399c-0.0785 0.16465-0.37618 0.27676-0.23217 0.49163 0.17304 0.13546 0.35088 0.22888 0.56054 0.17166 0.0872-0.16699 0.202-0.35384 0.0718-0.54418-0.11878-0.0923-0.25798-0.13079-0.4002-0.11911"/>
    <path d="m-650.35 17.777c-0.0735 0.12378-0.27784 0.2067-0.2225 0.38537 0.15863 0.0666 0.20687 0.23238 0.38012 0.19618 0.18558-0.021 0.20286-0.24173 0.24687-0.37719-0.0308-0.16933-0.21483-0.35734-0.40449-0.20436"/>
    <path d="m-653.69 16.069c-0.12028 0.15998 9e-3 0.32813 0.0165 0.48929 0.1149 0.0303 0.12988 0.16698 0.25461 0.13662 0.11426-0.0373 0.19956-0.0186 0.28737-0.0957 0.0494-0.10977 0.0971-0.22888 0.0423-0.36201-0.11648-0.21136-0.40873-0.2896-0.6004-0.16815"/>
    <path d="m-651.71 17.531c-0.323 0.4017-0.4989 0.96807-0.96389 1.2098-0.038 0.0572-0.0237 0.10393 0.0172 0.14597 0.223 0.0934 0.35998-0.13896 0.50657-0.25924 0.29389-0.34683 0.34958-0.75205 0.64175-1.107 9e-3 -0.21837-0.15146-0.0537-0.20128 0.0105"/>
    <path d="m-650.63 18.469c-0.46728 0.16466-0.77465 0.57688-1.3159 0.62709-0.0966 0.0794-0.31353 0.0794-0.29497 0.23355 0.14831 0.0817 0.3612-4e-3 0.50119-0.0689 0.38945-0.14831 0.75401-0.3515 1.0855-0.58389l0.0818-0.1705-0.0573-0.0373"/>
    <path d="m-653.22 16.941-0.038 0.0572c0.15003 0.50214 0.31633 1.0825 0.1311 1.5601 0 0.0537 0.0409 0.0864 0.0891 0.0806 0.1901-0.10743 0.20529-0.3585 0.22286-0.55702-0.09-0.3877-0.0753-0.92487-0.40536-1.1409"/>
    <path d="m-650.05 19.438c-0.0667 0.11327-0.20092 0.2499-0.0925 0.3585 0.19326 0.0584 0.42149 0.15531 0.61295 0.0117 0.0602-0.10276 0.0937-0.22304 0.0215-0.32931-0.14902-0.17282-0.38141-0.13779-0.54205-0.0409"/>
    <path d="m-651.14 19.855c-0.37338-0.0128-0.72512-0.1378-1.0816-0.19969-0.0552 0.0619-0.0702 0.11911 0 0.16699 0.24787 0.16933 0.53761 0.14948 0.8173 0.16816l0.0581 0.0385c0.30199-5e-3 0.61143 0.0479 0.91091-0.0549l0.038-0.0572c-0.23347-0.10043-0.50005-0.014-0.74527-0.0619"/>
    <path d="m-655.23 17.036c-0.0812 0.0444-0.15354 0.10977-0.21182 0.19852 0.0308 0.21487 0.23834 0.27559 0.40722 0.32581 0.0988-2e-3 0.1539-0.0631 0.21611-0.11211 9e-3 -0.10626 0.066-0.24873-0.0344-0.33748-0.10673-0.0993-0.25454-0.13663-0.3774-0.0747"/>
    <path d="m-654.72 17.769c7e-3 0.1308 0.15196 0.10044 0.2255 0.1705 0.3321 0.26976 0.56055 0.60607 0.89601 0.87115 0.0437-9e-3 0.0725-0.0654 0.0999-0.10626-0.0953-0.19735-0.34958-0.28961-0.44499-0.48696-0.15067-0.15765-0.42227-0.26859-0.55201-0.41339-0.071-0.0163-0.13935-0.0607-0.22436-0.035"/>
    <path d="m-650.58 21.067c-0.0573 0.0303-0.0999 0.10743-0.13762 0.16465 7e-3 0.10744 0 0.18918 0.0753 0.27326 0.12752 0.0911 0.25841 0.17633 0.40751 0.15531 0.0878-0.0771 0.19619-0.20902 0.18479-0.32814-9e-3 -0.11094-0.0452-0.19385-0.10652-0.27209-0.11727-0.12962-0.30772-0.0666-0.42342 7e-3"/>
    <path d="m-655.47 18.539-0.0409 0.0619c0.62527 0.24523 1.2557 0.47061 1.8861 0.69716 0.0452-1e-3 0.0566-0.0537 0.0808-0.0899l-0.0129-0.0607c-0.62735-0.27559-1.2675-0.44025-1.913-0.6084"/>
    <path d="m-652.59 20.034c-0.0244 0.0374-0.043 0.0771-0.0201 0.12262l0.81443 0.65278c0.22967 0.0607 0.45775 0.35149 0.72512 0.355 0.0416-0.0175 0.10946 5e-3 0.12466-0.0537-0.17017-0.20786-0.45159-0.23589-0.61997-0.43557l-0.12343-0.028c-0.30035-0.20436-0.51173-0.56753-0.90096-0.61308"/>
    <path d="m-656.24 18.237c-0.0394 0.0713-0.11032 0.0993-0.14602 0.18801 0.043 0.14131 0.18967 0.25925 0.33411 0.30128 0.14587 6e-3 0.29826-0.0444 0.40155-0.13312-0.0129-0.0829 0.0172-0.17516-0.0387-0.2499-0.16773-0.13196-0.35611-0.23355-0.55115-0.10627"/>
    <path d="m-653.04 20.161c-0.10932 0.21254 0.0832 0.39821 0.123 0.58855 0.14652 0.0958 0.143 0.29545 0.22579 0.43208 0.20064 0.33398 0.40142 0.6668 0.69172 0.93188 0.0488-6e-3 0.0796-0.0303 0.10179-0.0747-0.33081-0.32931-0.52012-0.76021-0.76476-1.1526-0.0366-0.24056-0.19289-0.44725-0.25411-0.69715-0.0351-0.0152-0.091-0.0899-0.12343-0.028"/>
    <path d="m-653.82 19.712c-0.44678 0.13312-0.85938 0.21487-1.2288 0.45893-0.13447 0.11444-0.2655 0.22304-0.39474 0.34099l0.0366 0.0234c0.42027-0.19619 0.80992-0.51732 1.3099-0.52666 0.10637-0.13896 0.3908 0.0315 0.39732-0.21838l-0.12035-0.0782"/>
    <path d="m-653.5 20.225c-0.19848 0.56636-0.60556 1.0848-0.79888 1.6547 0.0351 0.0596 0.0799-8e-3 0.11985-0.0117 0.24895-0.54068 0.66319-1.0475 0.81823-1.6045 0-0.0817-0.0958-0.0479-0.1392-0.0386"/>
    <path d="m-651.8 22.326c-9e-3 0.12846-0.15906 0.27676-0.0595 0.3877 0.20042 0.0934 0.42492-0.0444 0.56635-0.16816 0.053-0.07-0.0222-0.12612-0.0452-0.19386-0.15526-0.0946-0.305-0.14012-0.46205-0.0257"/>
    <path d="m-656.11 20.467c-0.0502 0.0654-0.1321 0.19034-0.0757 0.28727 0.19389 0.14947 0.42621 0.11444 0.63201 0.0175 0.0688-0.0817 0.0215-0.15765-0.0122-0.23239-0.15261-0.19034-0.37589-0.1121-0.54406-0.0724"/>
    <path d="m-654.79 22.148c-0.0876 0.12262-0.18021 0.26392-0.141 0.3877 0.17067 0.0584 0.37819 0.16466 0.55237 0.0245 0.11562-0.0736 0.14738-0.22538 0.11168-0.35383-0.15885-0.0887-0.34357-0.17167-0.52305-0.0584"/>
   </g>
   <path d="m-634.89 29.45c0.52549 0.10159 0.8454 0.57221 1.246 0.90618 0.52319 0.70534 0.61308 1.5882 0.57337 2.4792 0.0559 0.0957-0.0315 0.23706 0.10043 0.31296 0.25109 0.0105 0.24407-0.2931 0.31883-0.46945 0.0265-0.14245 0.0186-0.37835 0.0899-0.52782 7e-3 -0.15064 0.0652-0.39587 0.028-0.56754 0.0258-0.13662 0.15182-0.27443 0.0794-0.42857 0.1997-0.6154 0.77307-1.2086 1.4469-1.288 0.79179-0.28376 1.4702 0.27559 2.241 0.34099 0.72634 0.2791 1.2647 0.891 1.7832 1.5344 0.31174 1.0078 0.6586 2.158 0.15647 3.2406-0.327 0.85946-1.3266 0.94237-2.1195 0.97508-0.21254-0.0561-0.43439-0.0186-0.55237 0.14246 0.015 0.11911 0.0387 0.26742 0.16701 0.31997 0.37955 0.16933 0.80813-0.0199 1.1549 0.19152 0.61889 0.3293 1.4994 0.63059 1.587 1.4796 0.56055 1.2402 0.0201 2.8447-0.74741 3.842-0.1086 0.06652-0.19031 0.20903-0.32464 0.20085-0.6399 0.44609-1.3639 0.62008-2.0716 0.85247-0.47531-7.17e-4 -1.0194-0.09342-1.2834-0.50797-0.42277-0.12846-0.72634-0.53017-0.97629-0.90969-0.11211-0.31413 0.0993-0.71702-0.16343-0.98559 0.0688-0.17167-0.0459-0.30713-0.15999-0.38654-0.11096-0.06308-0.16938 0.06537-0.24644 0.10744-0.12028 0.23938 0.12845 0.4169-0.0337 0.6341 0.43209 0.65628 0.16694 1.7248-0.24873 2.318-0.47066 0.47061-1.0977 0.78941-1.7155 0.95757-0.62363 0.13546-1.5134 0.19034-2.0576-0.2207l-0.28959-0.06423c-0.50219-0.47879-1.2998-0.71585-1.4843-1.5018-0.34328-1.1841 0.64233-2.0249 1.531-2.6847 0.0538-0.19502 0.33517-0.31647 0.25926-0.543-0.0502-0.10627-0.1483-0.1273-0.25461-0.12846-0.73214 1.0802-1.9828 1.7411-3.2639 1.6255-0.72513-0.12728-1.3324-0.72518-1.5251-1.434-0.0911-0.60841-0.23003-1.1935-0.27562-1.8089-0.12608-0.75204-0.1845-1.7715 0.51503-2.2947 0.33396-0.35616 0.74383-0.73219 1.2542-0.7392 0.74849 8e-3 1.4398 0.24991 2.0517 0.58973 0.1238-9e-3 0.29081 0.10977 0.37604-0.0596 0-0.40872-0.49983-0.34566-0.71114-0.57454-0.44493-0.27793-0.83028-0.75555-1.0066-1.2495-0.21841-0.31997-0.12379-0.72985-0.18572-1.0942 7e-3 -0.5652 0.44263-0.89334 0.58506-1.3815 0.41689-0.49279 0.45431-1.3114 1.2332-1.4796 0.82096-0.40405 1.768 0 2.631 0.1483l0.28844 0.13079" fill="#600"/>
   <g fill="#fffae3">
    <path d="m-629.91 35.108c-0.0667 0.11561-0.1273 0.22771-0.27798 0.26741-0.1144-0.0105-0.16343-0.10976-0.20436-0.20553 0.0523-0.16932 0.0806-0.4017 0.28615-0.45659 0.13892-7e-3 0.12723 0.1483 0.19031 0.21954-0.0652 0.0607 0.0409 0.10977 7e-3 0.17517"/>
    <path d="m-630.88 35.281c-0.68785 0.25341-1.329 0.69599-1.8965 1.1211-0.0444-0.0186-0.14013-0.0327-0.0993-0.1016 0.20902-0.32231 0.56054-0.51032 0.87816-0.72284 0.42972-0.26275 0.87113-0.37836 1.3207-0.45193-0.0115 0.11561-0.16465 0.0817-0.20314 0.15531"/>
    <path d="m-631.7 33.547c-0.0574 0.0631-0.16931 0.0572-0.25691 0.0455-0.12028-0.021-0.20199-0.1448-0.20436-0.26041 0.0272-0.16349 0.17756-0.27325 0.33984-0.29195 0.16114 0.0771 0.29196 0.33983 0.12143 0.50682"/>
    <path d="m-629.99 37.804c-0.1296 0.0432-0.2744 0.0946-0.39704-0.0152-0.0899-0.11211-0.071-0.25108 7e-3 -0.35851 0.0958-0.0537 0.15182-0.1775 0.28027-0.16582 0.13311 0.14481 0.29661 0.3515 0.11096 0.53951"/>
    <path d="m-633.06 36.048c-0.0574 8e-3 -0.0736 2e-3 -0.12265-0.0409-0.0351-0.0993-0.0136-0.21953 0.0523-0.30711 0.35145-0.55703 0.64341-1.1666 0.87465-1.8287l0.071-8e-3c-0.0782 0.79059-0.48807 1.5344-0.87579 2.1849"/>
    <path d="m-631.04 37.191c-0.66211-0.17632-1.3055-0.24639-1.9431-0.22303-0.0552-0.014-0.0573-0.0736-0.0841-0.11561 0.0129-0.0677 0.10623-0.11444 0.17748-0.10861 0.70419-0.07 1.5496 0.14597 2.1673 0.46711-0.0934 0.15649-0.20314-0.0631-0.31762-0.0199"/>
    <path d="m-633.39 32.837c-0.0523 0.1016-0.17282 0.0654-0.25805 0.10043-0.1063 0.0327-0.12494-0.0876-0.19382-0.12846-0.0409-0.12377-0.0865-0.27091-0.0129-0.38301 0.0688-0.0549 0.11562-0.12613 0.20787-0.15882 0.15418 0.0467 0.30944 0.0852 0.3422 0.27442-7e-3 0.0993-0.0588 0.19969-0.0853 0.29544"/>
    <path d="m-633.66 35.603c-0.0222 0.0794-0.0609 0.14013-0.11211 0.18567-0.0688 0.014-0.16694-0.0327-0.13662-0.1086 0.18336-0.42741 0-0.81627 0.0841-1.232 0.0115-0.42973 0.0736-0.86998 0.0771-1.3032 0.0409-0.0409 0.0358 0.0164 0.0817 0.014 0 0.81277 0.071 1.6267 7e-3 2.4441"/>
    <path d="m-631.56 39.722c-0.1296 0.04437-0.22773-0.01634-0.30708-0.10744-0.14716-0.15882 0.0502-0.32581 0.10509-0.46243 0.0829-0.0677 0.16228-0.0596 0.2359 7e-3 0.0652 0.0759 0.0899 0.20786 0.10042 0.31179-0.0201 0.08524-0.071 0.18568-0.13433 0.25108"/>
    <path d="m-632.1 39.059c-0.55703-0.40638-0.9856-1.0066-1.3091-1.6454-0.028-0.0409-0.033-0.0794-8e-3 -0.12612 0.0631-0.0373 0.1483-0.0736 0.18335 0.0117 0.28257 0.63876 0.72283 1.1783 1.1642 1.6699-7e-3 0.0303 0.0387 0.0899-0.0301 0.0899"/>
    <path d="m-635.38 33.697c-0.0652 0.0876-0.15648 0.0713-0.23819 0.0981-0.1448-0.0444-0.27089-0.14598-0.28142-0.30479 7e-3 -0.13897 0.1296-0.17983 0.20902-0.25341 0.0958-0.014 0.22658 0.0164 0.31181 0.049 0.0674 0.1378 0.0616 0.29078 0 0.41106"/>
    <path d="m-634.27 36.087c-0.0545 0.0549-0.13662 0.0409-0.18329-0.0117-0.1845-0.70066-0.58857-1.3885-0.88518-2.0821 0.0136-0.0677 0.0958-0.0537 0.12379-0.0128 0.29425 0.72869 0.94117 1.3289 0.94468 2.1066"/>
    <path d="m-633.75 38.33c0.0993 0.58623 0.46242 1.1643 0.39819 1.7365-0.0186-0.02566-0.043-0.10159-0.0265-0.16465-0.31296-0.69832-0.47646-1.4107-0.71817-2.1172 0.0143-0.0689-0.0129-0.15064 0.0301-0.19968 0.0444-0.0221 0.0935-0.0607 0.14831-0.0199 0.11677 0.2499 0.0459 0.51849 0.16816 0.76488"/>
    <path d="m-634.8 36.532c-0.0552 0-0.11326 8e-3 -0.16702-0.0199-0.36314-0.57804-1.0311-0.80692-1.4807-1.2729-0.15297-0.12846-0.34213-0.20553-0.49517-0.32114l7e-3 -0.0303c0.6948 0.2429 1.2133 0.7357 1.8147 1.107 0.11677 0.16698 0.34679 0.32697 0.32228 0.53717"/>
    <path d="m-632.95 40.663c-0.0523 0.10159-0.15885 0.06537-0.23827 0.09809-0.12257-0.04086-0.2078-0.15647-0.21597-0.28259 0.0201-0.12495 0.0969-0.20436 0.1658-0.28611 0.0817-0.06889 0.18565-0.06537 0.25926 0 0.0957 0.15064 0.15527 0.32581 0.0294 0.47061"/>
    <path d="m-634.97 36.821c-0.10157 0.0712-0.26042 0.0957-0.38651 0.1448-0.69014 0.12378-1.3044-0.34216-1.9969-0.37485-0.0165-0.0186-7e-3 -0.0374 0-0.0537 0.77774-0.1413 1.6056 0.52082 2.3648 0.13663 0.0244 0.049 0.0595 0.0922 0.0186 0.14714"/>
    <path d="m-634.71 37.853c-0.19848 0.35851-0.33045 0.76605-0.42736 1.1631 0.0516 0.19969-0.14013 0.36318-0.13784 0.56053l-0.14128 0.48696c0-0.11794 0-0.23238 0.0294-0.35617-8e-3 -0.12612 0.0387-0.25107 0.0748-0.37135 0.0552-0.53367 0.0981-1.1222 0.45775-1.5683 0.0595-0.0432 0.13082 0.0175 0.1448 0.0853"/>
    <path d="m-635.34 37.628c-0.39238 0.33865-0.81745 0.65278-1.3442 0.87232-0.27324 0.12262-0.5523 0.15298-0.82905 0.25575 0.0876-0.12497 0.31525-0.0946 0.42736-0.2394 0.033 0.0105 0.1063 8e-3 0.10981-0.0268l0.033 0.0105c0.60843-0.31646 1.2273-0.6376 1.5824-1.1759l0.17512-0.0596c0.0841 0.14247-0.10745 0.23706-0.15411 0.36318"/>
    <path d="m-637.19 34.678c-0.0934 0.0736-0.19963 0.0525-0.28142 0.0105-0.0265-0.15064-0.16114-0.30945-0.0373-0.44608 0.0899-0.0654 0.19153-0.0677 0.29776-0.0187 0.12028 0.11795 0.15884 0.33165 0.0208 0.45426"/>
    <path d="m-635.25 40.702c-0.12265 0.09576-0.2511 0.08525-0.37955 0.05957-0.0143-0.13663-0.19382-0.30712 0-0.40988 0.10164-0.07125 0.24758-0.20552 0.3807-0.11443 0.13662 0.12378 0.18572 0.37251 0 0.46476"/>
    <path d="m-637.71 36.791c-0.0466 0.0841-0.14831 0.0736-0.21605 0.0864-0.12608-0.0467-0.21604-0.17284-0.22651-0.30362 0.0387-0.15649 0.17283-0.2429 0.29662-0.32464 0.19619 0.12029 0.27561 0.36084 0.14594 0.54185"/>
    <path d="m-637.76 39.139c-0.0387 0.0596-0.13196 0.10628-0.20321 0.10044-0.12028-0.0362-0.18215-0.17517-0.19849-0.29078 0.0165-0.0619-0.0136-0.15063 0.0552-0.20435 0.0852-0.049 0.18328-0.0981 0.28722-0.0409 0.1448 0.0852 0.13899 0.30712 0.0595 0.43557"/>
   </g>
   <g transform="matrix(.013044 0 0 -.013044 -761.6 196.84)">
    <path d="m8746.3 15180c28.31 29.8 27.19 73.3 37.28 112 1.15 67.3-32.6 126.3-74.81 180.1-0.72 8.6-12.52 13.5-7.69 24 15.19 11.9 28.28-7.3 40.83-15 8.02-7.7 18.03-22.7 29.15-28.8 7.02-9.2 21.7-21.8 27.03-34.2 7.73-7.4 21.76-10.3 24.05-23.1 39.99-29.6 102.17-41 147.7-15.8 62.04 17.6 79.41 82.7 124.53 121.2 32.76 49.8 39.12 111.9 42.7 175.1-25.42 76.8-55.15 164-134.73 209.1-58.8 39-124.82-0.4-175.67-33.8-10.73-13-26.27-20.5-40.8-15.7-4.36 8.1-9.51 18.3-3.85 27.4 16.09 27.5 51.25 34.8 63.48 63.4 23.91 48.2 65.32 106.2 32.96 163.1-20.39 102.4-125.68 178.2-218.03 206.1-9.69-0.6-21.18 4.6-29.11-1.8-59.86-0.9-112.75-22.2-167.21-39.3-29.63-21.4-59.46-51.3-57.39-88.9-20.58-26.9-21.6-65.6-20.28-100.3 7.04-24.6 38.16-40.3 33.8-68.8 11.95-7.6 10.86-21.1 7.27-31.2-4.14-8.8-13.5-3.4-20.19-4.3-18.19 9.6-10.56 31.8-30.44 38-2.27 60.3-66.48 115.1-118.89 133.4-50.27 8.4-103.61 0.3-149.61-16.7-44.92-19.4-102.9-55.7-118.46-105.6l-15.18-16.9c-9.95-52.3-49.11-102.6-25.52-159.9 31.42-89 130.32-97.5 215.13-99.1 12.12-9.7 35.07-4.7 40.4-22.3 1.61-8.7-3.56-14.6-10.17-19.3-93.78 34.7-201.26 20.1-275.96-44.2-39.48-40.3-50.74-104.6-31.12-157.4 21.44-42 38.91-84.7 63.48-125.1 25.67-52.5 67.48-118.7 134.46-120.1 36.74-7.3 79.04-12.5 111.14 9.8 46.36 34 78.62 79.8 101.65 128.3 8.13 5 13.22 19.8 26.13 13 18.16-25.5-15.82-43.8-18.7-67.5-15.43-37.1-18.14-84.1-7.08-122.8 0.7-29.7 24.86-51 37.28-76.5 25.48-35 67.41-35.9 98.05-60 47.94-12.1 86.78-61.5 142.86-37.2 69.24 11.4 110.29 78.8 157.45 126.5l12.08 21.1" fill="#600"/>
   </g>
   <g transform="matrix(.012615 0 0 -.012615 -761.6 196.84)">
    <path d="m9104 16291c-9.55 4.4-18.61 8.8-30.2 4.5-6.9-6.1-5.51-14.7-3.72-22.7 11.2-8.5 23.72-22.2 39.47-16.3 9.37 5.9 1.44 15.4 2.2 22.9-7 0.9-2.42 9-7.75 11.6" fill="#fffae3"/>
   </g>
   <g transform="matrix(.012587 0 0 -.012587 -761.6 196.84)">
    <path d="m9053.7 16294c-56.12-15.5-118.01-16.5-174.35-15.3-1.93-3.3-7.48-8.6-1.66-11.1 28.39-11.2 59.75-7.1 90.14-6.2 39.9 3 73.79 15.9 106.17 31.9-6.04 6.9-14.4-2.3-20.3 0.7" fill="#fffae3"/>
   </g>
   <g transform="matrix(.012468 0 0 -.012468 -761.6 196.84)">
    <path d="m9168.2 16299c-6.7 1.4-13.75-4.2-18.94-9-6.82-7.1-6.4-18.9-1.2-26.6 9.47-9.4 24.4-9.5 35.81-3.2 6.94 12.6 3.19 35.9-15.67 38.8" fill="#fffae3"/>
   </g>
   <g transform="matrix(.01274 0 0 -.01274 -761.6 196.84)">
    <path d="m8886.8 16300c-10.2-3-21.82-6.4-24.67-19.1-0.61-11.2 7.01-19.2 16.79-22.5 8.61 0.9 17.73-4.5 25.43 2.1 1.91 15.4 2.97 36-17.55 39.5" fill="#fffae3"/>
   </g>
   <g transform="matrix(.012543 0 0 -.012543 -761.6 196.84)">
    <path d="m8909 16300c-4.11-2.1-4.92-3.3-6.06-8.4 2.28-8 9.3-14.8 17.62-17.4 48.67-19.8 95.85-45.8 141.55-78l4.99 2.8c-41.76 47.6-102.81 76.8-158.1 101" fill="#fffae3"/>
   </g>
   <g transform="matrix(.012689 0 0 -.012689 -761.6 196.84)">
    <path d="m8883.5 16278c-34.33-41.7-72.35-75.7-114.29-103.5-2.87-3.4-0.28-7.3-0.15-11.2 4.03-3.8 12.13-2.5 16.42 1.2 48.29 27.8 92.6 80.3 117.44 129.3-13.12 5.7-10.06-13.4-19.42-15.8" fill="#fffae3"/>
   </g>
   <g transform="matrix(.012374 0 0 -.012374 -761.6 196.84)">
    <path d="m9159.7 16296c-8.19 4.2-14.41-3.8-21.66-5.5-8.56-2.9-4.12-11.7-6.68-17.6 3.12-10.1 7.03-22 17.17-25.8 7.08-0.4 13.48-2.9 21.15-0.6 7.86 10.3 16.28 20.1 9.53 34.1-5.01 6.2-13.2 10.4-19.51 15.4" fill="#fffae3"/>
   </g>
   <g transform="matrix(.012504 0 0 -.012504 -761.6 196.84)">
    <path d="m8917.8 16293c-5.12 4.1-10.42 6.2-15.97 6.8-5.09-2.3-9.31-9.9-3.78-13.4 31.84-19.3 38.26-52.9 62.83-76.3 20.76-27.3 45.24-53.1 65.6-81.1 4.59-0.8 1.55 2.7 4.7 4.8-37.77 52.8-71.09 108.9-113.38 159.2" fill="#fffae3"/>
   </g>
   <g transform="matrix(.01278 0 0 -.01278 -761.6 196.84)">
    <path d="m8671.8 16300c-10.17-3.1-13.69-11.4-14.6-20.7-2.14-16.9 18.01-18.5 27.73-24.7 8.34-0.6 13.01 3.5 14.7 11.1 0.68 7.9-3.75 17.3-7.81 24.4-5.09 4.6-13.02 8.6-20.02 9.9" fill="#fffae3"/>
   </g>
   <g transform="matrix(.01273 0 0 -.01273 -761.6 196.84)">
    <path d="m8701.8 16297c-17.05-51.5-16.98-109.5-8.51-165.1 0.13-3.8 1.54-6.6 5.25-8.4 5.77 0.5 12.81 2.1 11.19 9.2-11.08 53.6-7.69 108.3-1.87 159.9-1.73 1.6-1.7 7.5-6.06 4.4" fill="#fffae3"/>
   </g>
   <g transform="matrix(.012345 0 0 -.012345 -761.6 196.84)">
    <path d="m9009.8 16297c-8.46 2.6-13.63-2.7-20.32-4.8-7.48-9.7-10.96-22.4-4.18-33.3 6.96-9 17-5.8 25.72-6.9 6.94 3.6 14.16 11.8 18.19 18-1.97 12.2-9.57 22-19.41 27" fill="#fffae3"/>
   </g>
   <g transform="matrix(.012502 0 0 -.012502 -761.6 196.84)">
    <path d="m8857 16299c-6.12 1-10.81-3.8-11.41-9.3 20.63-54.1 26.39-117.7 39.34-176.6 4.08-3.8 8.78 0.9 8.64 4.9-14.79 61-0.65 130.3-36.57 181" fill="#fffae3"/>
   </g>
   <g transform="matrix(.012733 0 0 -.012733 -761.6 196.84)">
    <path d="m8627.4 16171c-20.39 41.9-23.65 95.4-53.89 129-0.09-2.4 1.86-8.4 5.78-11.7 11.92-58.9 34.07-111.8 50.9-168.1 4.02-3.7 6.03-10.1 11.08-11.3 3.8 0.6 8.7 0.4 10.31 5.6-3.91 21.2-20.75 35.1-24.18 56.5" fill="#fffae3"/>
   </g>
   <g transform="matrix(.012505 0 0 -.012505 -761.6 196.84)">
    <path d="m8800.3 16300c-3.55-2.5-7.67-4.7-9.94-9.1 3.32-54.4-29.45-100.3-37.06-151.6-3.94-15.5-12.62-29.3-17.21-43.9l1.76-1.8c33.9 48.1 44.67 104.4 66.52 156.5-0.15 16.4 7.37 37.4-4.07 49.9" fill="#fffae3"/>
   </g>
   <g transform="matrix(.01278 0 0 -.01278 -761.6 196.84)">
    <path d="m8540.3 16296c-7.93 4-13.09-3.1-19.63-4.6-5.95-8.3-6.1-19.5-0.86-27.9 6.96-7.1 15.46-8.5 23.56-10.6 8.34-0.7 14.82 4.2 16.51 11.8-0.78 13.9-4.96 27.8-19.58 31.3" fill="#fffae3"/>
   </g>
   <g transform="matrix(.012513 0 0 -.012513 -761.6 196.84)">
    <path d="m8769.9 16300c-9.89-0.1-21.34-5.9-31.81-8.6-50.63-24-68.89-82.9-112.42-117.1-0.18-2.1 1.43-2.8 2.55-3.6 57.09 27 80.12 108.5 147.33 118.8-0.7 4.3-0.43 8.9-5.65 10.5" fill="#fffae3"/>
   </g>
   <g transform="matrix(.012659 0 0 -.012659 -761.6 196.84)">
    <path d="m8638.1 16190c-29.16 13.9-56.39 34-80.83 55.1-5.88 15.2-25.74 16.9-34.65 29.6l-31.42 24.8c5.61-7.4 10.73-14.8 18.16-21.5 5.28-8.5 14.07-14.4 21.91-20.5 28.11-31.7 57.88-67.6 101.44-79.7 5.88 0 7.67 7.1 5.39 12.2" fill="#fffae3"/>
   </g>
   <g transform="matrix(.012544 0 0 -.012544 -761.6 196.84)">
    <path d="m8687.2 16296c-41.13 3.7-83.23 4.4-127.57-5.7-23.45-4.8-42.92-15.8-65.66-21.9 11.54-4.1 24.84 8.4 38.85 4.3 1.62 2.2 6.53 5.5 8.36 3.3l1.62 2.2c54.1 7.8 109.18 15.6 157.12-2.8l14.14 4.1c-1.12 13.3-17.98 10.6-26.86 16.5" fill="#fffae3"/>
   </g>
   <g transform="matrix(.012327 0 0 -.012327 -761.6 196.84)">
    <path d="m8856.7 16300c-9.63 0.4-15.61-6-19.09-12.7 5.32-11.1 4-28 18.6-31.1 9.06-0.1 15.86 4.5 20.56 12.8 2.36 13.5-5.22 29.3-20.07 31" fill="#fffae3"/>
   </g>
   <g transform="matrix(.012699 0 0 -.012699 -761.6 196.84)">
    <path d="m8445.8 16297c-12.29 0.5-20-6.1-27.1-13.7 5.41-9.4 1.66-28.5 18.87-26.2 9.75 0.1 25.19-1.8 29.61 10.1 3.09 14.2-5.2 32.4-21.38 29.8" fill="#fffae3"/>
   </g>
   <g transform="matrix(.012416 0 0 -.012416 -761.6 196.84)">
    <path d="m8660.1 16297c-7.04 3.4-13.14-2.1-18.27-4.4-6.03-8.9-6.02-21.4-0.57-30.6 9.84-8.3 22.73-7.8 34.64-7.3 7.23 17.1 1.1 36.6-15.8 42.3" fill="#fffae3"/>
   </g>
   <g transform="matrix(.012531 0 0 -.012531 -761.6 196.84)">
    <path d="m8468.8 16298c-5.28 2.1-13.49 0.8-17.84-2.9-6.15-7.9-3.73-19.9 0.57-28.1 3.99-3.3 6.12-10.4 13.1-10.7 7.79 0.7 16.47 2.1 20.54 10.7 5.44 12.2-5.24 26.3-16.37 31" fill="#fffae3"/>
   </g>
  </g>
 </g>
</svg>
