<?xml version="1.0" encoding="UTF-8"?>
<svg width="105.83mm" height="148.17mm" version="1.1" viewBox="0 0 105.83 148.17" xmlns="http://www.w3.org/2000/svg">
 <g transform="translate(-161.87 -202.65)">
  <rect x="161.87" y="202.65" width="105.83" height="148.17" fill="#f9f9f9"/>
  <g transform="translate(688.92 433.73)">
   <g transform="translate(54.901 -162.59)">
    <g transform="matrix(.015075 0 0 -.015075 -761.6 196.84)">
     <path d="m14909 15738c-124.5-4.6-242-9.2-389.5-20.8l-2.4-82.9c131.4 6.9 260.5 13.8 391.9 20.7zm0-184.4c-131.4-2.3-262.8-6.9-394.2-16.1v-85.3c131.4 6.9 262.8 13.8 394.2 18.5zm0-195.9c-113-2.3-253.6-9.2-405.6-20.7-13.9-25.4-46.2-43.8-66.9-43.8-60 0-87.6 36.9-108.4 124.4 4.7 66.9 4.7 96.8 4.7 198.2s-9.2 129.1-32.3 193.6c0 23.1 6.9 34.6 34.6 34.6 16.1 0 55.3-6.9 103.7-23 168.2 11.5 271.9 16.1 398.7 25.3 32.3 2.3 66.8 9.2 103.7 32.3 46.1-9.3 89.8-30 138.3-66.9 48.4-36.8 73.7-78.3 73.7-101.4 0-18.4-6.9-27.6-30-62.2-16.1-20.7-20.7-53-20.7-112.9v-311.1c0-315.8 0-447.1 4.6-760.5 0-92.2-18.4-159.1-48.4-216.7-27.7-53-69.1-78.3-89.9-78.3-29.9 0-59.8 13.8-106 53-50.7 43.7-108.3 96.8-147.5 149.8-6.9 11.5-11.5 20.8-11.5 30 0 16.1 11.5 20.7 36.9 20.7 57.6-9.3 126.7-16.2 168.3-16.2zm-624.6-569.2c73.7 6.9 131.3 11.5 186.7 13.8l4.5 4.6 7 55.4c-66.9-2.4-131.4-4.7-198.2-9.3zm0 140.6 69.1 6.9c23 2.3 50.7 6.9 76.1 16.1 20.7-4.6 41.5-11.5 62.2-20.7l11.6 76c-71.5-4.6-143-9.2-219-13.8zm-345.7-172.9c62.2 7 126.8 13.9 189 20.8v64.5c-69.1-6.9-133.7-13.8-191.3-20.7zm191.3 223.6c-53-4.6-131.4-11.5-195.9-20.8l2.3-62.2c64.5 6.9 126.7 13.8 191.3 18.5zm2.3-375.7c-117.6-92.1-255.9-168.2-410.2-221.2-16.2-4.6-27.7-6.9-43.8-6.9-18.5 0-27.7 9.2-27.7 23 0 6.9 6.9 25.4 27.7 36.9 117.5 66.9 221.2 131.4 336.4 251.2-27.6-2.3-53-4.6-80.6-9.2-9.2-27.7-25.4-41.5-50.7-41.5-41.5 0-83 30-89.9 96.8 2.3 16.1 2.3 30 2.3 48.4 0 27.6-2.3 62.2-6.9 119.8-6.9 64.6-13.9 110.6-34.5 142.9-4.7 6.9-7 16.1-7 23.1 0 13.8 11.5 25.3 32.3 25.3 30 0 106-25.3 138.3-43.8 71.4 6.9 140.6 13.8 212 20.8v55.3c-71.4-4.6-142.9-11.6-202.8-18.5-13.8 0-25.4 2.3-43.8 20.8-27.6 27.6-46.1 55.3-46.1 64.5s9.2 13.8 27.7 16.1c89.8 4.6 182 11.6 265 16.2v27.6c0 48.4-2.3 78.4-18.5 117.6-4.6 9.2-4.6 18.4-4.6 25.3 0 13.8 7 23 30 23 34.5 0 92.2-13.8 147.5-43.7 20.7-11.6 29.9-25.4 29.9-41.5 0-6.9-4.6-20.8-11.5-36.9-6.9-18.4-13.8-32.3-16.1-57.6l39.2 2.3c39.2 2.3 76 13.8 103.7 30 71.4-2.3 138.2-41.5 138.2-78.4 0-27.7-20.7-39.2-64.4-41.5-55.4-4.6-133.7-9.2-216.7-13.8v-53c59.9 4.6 110.6 9.2 159 11.5 36.9 2.3 62.2 11.5 94.5 30 32.3-4.6 71.5-25.4 110.6-55.3 32.3-25.4 55.3-57.7 55.3-78.4 0-16.1-9.2-30-32.2-48.4-9.3-6.9-13.8-16.1-20.8-46.1-11.5-43.8-32.2-122.1-50.7-161.3-11.5-23-34.6-39.2-66.8-39.2-18.5 0-39.2 9.2-53 25.4-43.8 0-85.3-2.3-131.4-4.6 73.8-46.1 149.8-83 235.1-117.6 32.2-11.5 122.1-46.1 168.2-64.5 30-11.5 48.4-23 48.4-36.9 0-18.4-13.9-27.6-34.5-36.9-34.6-13.7-143-34.5-191.3-34.5-27.7 0-39.2 0-73.7 30-106.1 92.2-161.4 142.8-221.3 193.5l-2.3-297.2c0-94.5-23.1-122.2-69.2-122.2-32.2 0-73.7 36.9-92.2 140.6 4.7 34.5 6.9 85.3 9.3 129zm-587.7 792.8c126.8 11.5 255.8 23.1 382.6 30v78.3c-126.8-4.6-255.8-16.1-382.6-29.9zm0 175.2c126.8 11.5 255.8 23 382.6 29.9v73.8c-131.4-4.6-255.8-13.9-382.6-25.4zm-2.3-1182.3c0-119.8-46.1-159-85.3-159-50.7 0-96.8 34.5-126.7 186.7 18.5 89.8 25.3 177.4 25.3 433.2v546.2c0 223.6-9.2 295-34.5 382.6 0 20.7 9.2 29.9 29.9 29.9 27.7 0 73.7-16.1 115.3-32.2 18.4-6.9 34.5-13.9 46.1-20.8 145.1 11.5 237.3 18.5 357.1 25.4 27.7 2.3 53 11.5 83 27.6 27.7-4.6 60-18.4 119.8-55.3 46.1-29.9 69.2-55.3 69.2-76 0-13.9-2.3-30-13.8-43.8-11.6-13.8-20.8-25.4-23.1-55.3l-6.9-186.7c-4.6-80.7-43.8-112.9-96.8-112.9-18.4 0-41.5 11.5-62.2 36.8-131.4-4.6-262.7-13.8-394.1-27.6zm1044 1710c69.1 2.3 138.3 6.9 212 9.2 36.9 2.3 76 16.2 112.9 32.3 142.9-27.7 219-87.6 219-145.2 0-34.6-32.3-46.1-83-46.1-78.4 4.6-175.1 9.2-348 9.2-46.1 0-112.9-2.3-191.3-4.6-11.5-20.7-23.1-39.2-30-48.4-32.2-46.1-57.6-53-85.2-53-20.7 0-34.6 13.8-34.6 46.1 0 6.9 0 16.1 2.3 25.4l4.7 20.7c-115.3-4.6-239.8-13.8-345.7-23v-18.5c0-62.2-30-89.9-66.9-89.9-34.5 0-55.3 20.8-71.4 73.8l-6.9 25.3c-136-11.5-276.6-23-419.5-34.5-27.6 0-39.2 4.6-59.9 25.3-69.1 73.8-73.7 87.6-73.7 103.7 0 16.2 13.8 20.8 39.1 23.1 165.9 11.5 322.7 20.7 472.5 29.9l-9.2 34.6c-13.8 50.7-25.4 76-46.1 101.4-13.8 16.1-25.4 30-25.4 41.5 0 23 20.8 27.6 43.8 27.6 55.3 0 106-11.5 156.7-32.2 50.7-20.8 66.9-36.9 66.9-62.3 0-13.8-4.7-36.8-4.7-43.7v-55.4c124.5 7 248.9 13.9 375.7 18.5v6.9c4.6 32.3 4.6 59.9 4.6 78.4 0 20.7-4.6 36.8-16.1 59.9-6.9 13.8-16.1 29.9-16.1 43.8 0 16.1 13.7 20.7 36.8 20.7 41.5 0 101.4-13.8 189-59.9 27.6-13.8 36.8-34.6 36.8-46.1 0-20.8-13.7-43.8-20.6-55.3l-18.5-39.2" fill="#002"/>
    </g>
    <g transform="matrix(.015183 0 0 -.015183 -761.6 196.84)">
     <path d="m16184 11272c-38.4 35.9-78.7 69.3-120.2 101.3 82.7 48.6 147.5 149.1 162.2 239.6 18.9 116.2-7.6 225.1-52.9 332.1-3.8 9-19.5 4.3-16.6-5.3 29.7-99.9 50.4-212.9 16.8-314.9-31.5-95.4-98-144.7-157-215.7-100.2 73.2-205.5 139.4-308.3 209.4-66.3 45.1-136.8 86-213.9 109.6-123.1 37.7-247.8 48.3-376.2 44.3-37.6-1.1-75.9-4.4-114.3-6.9 134 89.5 230.3 275.4 251.1 410.6 1.8 12.1-18 16.8-21 4.8-25.7-98.9-89.7-189.9-154.9-267.8-64.6-77-131.9-108.3-211.7-147.4-50.5 5.3-99.6 18.7-145.6 47.8-101.3 64.1-179.8 52.4-294.2 64.2-75.1 7.8-146.7 24.3-216.8 45.9-42.2 213.1-221.5 369.2-356 529-8.6 10.2-24.1-3-15.7-13.4 65.4-82.5 133.7-164.2 191.5-252.3 33-50.4 72.8-108.9 93.4-166.5 9.6-26.7 15.9-51.7 24-76.2-50.3 17.5-100.1 37-150.5 57.2-91.6 36.9-185.7 72.5-283.2 90.8 15.4-13.3 29.2-28.3 45.8-40.1 10-6.9 16-20.2 19.7-33.4 89.1-28.7 176.3-63.7 263.2-99.1 111.7-45.6 226.2-88.4 347-101.3 47-5 95.2-0.9 142.4-3.9-90.8-100.7-195.6-166.4-332.1-199-127.8-30.5-269.9-40.8-388.8-98.6-6.8-3.3-5.6-14.8 2.6-15.1 163.6-5.9 356.6 46.2 510.9 99.8 89 31 251.4 91.5 263.6 204.3 48.1-13.5 84.4-41.9 130.7-63.3 125.7-58 261.4-47.1 397.5-39.8 74.2-190.6-88.3-347.1-239.9-480.2 14.7-11.1 27.3-24.7 39.6-38.8 176.3 144.8 366.8 374.9 242.2 521 75.4 3.3 150.8 3.2 224.3-12.7 71.6-15.5 140.7-42.4 205.5-76 74-38.4 143.3-84.3 210.9-132.8-67.6-9.3-132.9-70.4-176.1-117.3-67.9-73.8-94.9-152.2-101.7-238.8 12.8 0.1 25.6-0.7 38.5-2.8 0.4-0.1 0.7-0.3 1.1-0.5 48.7 144.2 140.8 286.8 290.1 321.5 23.1-17.1 46.2-34.4 69.2-51.6 57-42.6 117.8-78.6 170.1-127.2 51.3-47.8 95.8-102.6 136.7-159.4l73.4 46c-36.9 41.3-75.8 81-116.4 118.9" fill="#030"/>
    </g>
    <g transform="matrix(.013644 0 0 -.013644 -761.6 196.84)">
     <path d="m16257 12371c4.3 15.5 10.7 30.3 18.5 44.6-10 7-19.6 14.2-29 21.9-11.2-9.4-20.8-19-27.4-28.6-71.8-105.4-100.8-252.9-79.6-404.9 0.7-4.6 1.5-8.9 2.3-12.2 39.5-3.9 96.7-6.1 158.4 2.9-58.8 126.5-74.6 262.5-43.2 376.3" fill="#4a000d"/>
    </g>
    <g transform="matrix(.013953 0 0 -.013953 -761.6 196.84)">
     <path d="m16286 12077c-6.1 17-14 33.9-24 50.5-2.2 3.7-4.6 7.3-6.8 10.8-2.2-2.8-4.5-5.6-6.9-8.1-4.2-4.6-8.8-8.8-13.8-12.9-33.1-26.7-83.3-43.6-131.6-43.6-10.3 0-20.6 0.8-30.7 2.4-44 7.2-87.3 22.7-126.9 44.9-5.8-10.9-10.7-22.3-13.9-33.9-29.2-105.7-12.9-233.1 44.3-351.4 1.6-3.2 3-6.4 4.6-9.6 1.4-2.7 2.8-5.2 4.1-7.4 0.2-0.3 0.4-0.6 0.6-1 34.8 8.2 67.2 18.5 96.5 30.7 49.5 20.8 92.7 48.3 127.5 80.1 41.7 38.2 71.3 82.5 84.2 129 4.3 15.3 6.4 31.6 6.2 48.4-0.3 23.2-4.9 47.2-13.4 71.1" fill="#4a000d"/>
    </g>
    <g transform="matrix(.013897 0 0 -.013897 -761.6 196.84)">
     <path d="m15967 12246c4.7-4.2 9.6-8.4 14.6-12.4 5.8-4.5 11.9-8.8 18-13.1 5.1-3.4 10.1-6.8 15.3-10.1 5.3-3.3 10.6-6.5 16.1-9.5 35.3-19.5 73.7-33.2 112.9-39.6 47.4-7.6 105.4 8.7 136.8 36 4.8 4.2 8.9 8.7 12.4 13.3 0.4 0.6 0.9 1.2 1.3 1.7 1.2 1.7 2.3 3.8 3.3 6 0.7 1.5 1.4 3.1 2 4.9-7.1 8.6-29.6 26.8-52.1 41.8-18.3 12.1-38.1 22.4-58.5 30.9-13.4 5.5-27.1 10.2-41 14.1-2.1 0.5-4.2 1.2-6.3 1.8-24.6 6.3-49.6 9.8-73.7 10-44.1 0.8-84.6-15.6-127.7-50.2 4.1-4.5 8.5-8.6 12.8-12.8 4.5-4.3 9-8.7 13.8-12.8" fill="#4a000d"/>
    </g>
    <g transform="matrix(.014569 0 0 -.014569 -761.6 196.84)">
     <path d="m16284 11470c-1.4-8.7-3.6-17.4-6.6-25.7-25.4-68.8-81.5-131.9-155.7-175.5 24.5-22.6 50-39.8 69.4-51.3 0.8 0.7 1.6 1.5 2.4 2.4 65.4 68.8 104.1 153.3 105.9 232.1 0.1 5.4-0.7 11.7-2.1 18.4-4.5-0.3-8.9-0.4-13.3-0.4" fill="#4a000d"/>
    </g>
    <g transform="matrix(.014524 0 0 -.014524 -761.6 196.84)">
     <path d="m16296 11493c1.9 5.1 3.3 10.5 4.3 16.1-27.7 3.7-54.7 11.6-79.3 23.8-28.6 14.3-58.5 45.5-70.4 79.2-2.1 5.8-3.6 11.8-4.4 17.6l-0.3 1.5-0.2-0.2c-26.6-11.4-48.3-28-62.9-47.7-6.1-8.3-10.8-17.2-14.1-26.2-15.6-42.6-10.4-96.5 13.3-149.3 5.3-11.7 11.4-23.4 18.5-34.9 9.9-16 21.9-32.2 35.6-48.3 0.5 0.2 1 0.5 1.4 0.7 3.4 1.8 6.7 3.6 10 5.5 71.2 39.8 125.1 98.4 148.5 162.2" fill="#4a000d"/>
    </g>
    <g transform="matrix(.014589 0 0 -.014589 -761.6 196.84)">
     <path d="m16276 11539c-5.7 6.8-12.1 12.8-19.4 17.9-6 4.2-12.5 8.1-19.2 11.7-11.4 6-23.6 11-36.3 14.9-18 5.6-37 9-55.9 9.6-12.4 0.5-29.1-0.1-37.7-1.4-0.1-1-0.2-1.9-0.2-2.7v-0.2-0.4c0-5.1 1.2-10.7 3.1-16.6 7.7-22.8 29.2-48.4 52.9-60.2 20.1-10 42-16.6 64.6-20 5.9-0.8 11.8-1.6 17.8-2 5.8-0.4 11.8-0.5 17.7-0.5h0.2c6.2 0.1 12.3 0.4 18.4 0.9 6 0.6 12 1.3 18 2.4h0.2c-5.8 19-13.8 34.3-24.2 46.6" fill="#4a000d"/>
    </g>
    <g transform="matrix(.015027 0 0 -.015027 -761.6 196.84)">
     <path d="m16188 12122c4 1.4 8.2 2.4 12.3 3.5-0.9 8.7-1.2 17.4-0.4 26.1 6 70.8 42.3 144.2 100.4 204-28.8 14.9-56.9 24.4-78.1 30.1-0.5-0.8-1-1.8-1.6-2.7-43.5-81.2-57.8-170.2-39.4-244.3 1.3-5.1 3.7-10.8 6.8-16.7" fill="#4a000d"/>
    </g>
    <g transform="matrix(.01518 0 0 -.01518 -761.6 196.84)">
     <path d="m16246 12159c-7.8 9.4-16.5 18.7-25.9 27.5-13.3 12.2-28.3 24.2-45.2 35.5-0.3-0.3-0.7-0.6-1-0.9-2.7-2.5-5.3-5.1-7.9-7.7-55.6-54.8-90.4-122.4-95.9-187.2-0.3-5.2-0.3-10.6 0.2-16 26.5 3.6 53.5 3.1 79.2-1.9 30-5.9 65.6-27.1 85.1-55.2 3.4-4.8 6.2-9.9 8.6-15.1 0.1-0.4 0.3-0.8 0.5-1.2l0.1 0.1c21.7 17.4 37.6 38 46 60 3.5 9.2 5.7 18.6 6.4 27.9 3.5 43.2-14.9 91.5-50.2 134.2" fill="#4a000d"/>
    </g>
    <g transform="matrix(.015101 0 0 -.015101 -761.6 196.84)">
     <path d="m16300 11980v0.4c-1.3 4.8-3.8 9.8-7.1 14.7-13 19.3-39.7 37.6-64.8 42.5-21.2 4.1-43.4 4.8-65.3 2.1-5.8-0.7-11.4-1.6-17-2.7-5.7-1.1-11.2-2.5-16.7-4.1h-0.2c-5.7-1.7-11.4-3.4-17-5.5-5.4-2.1-10.8-4.4-16-6.8-0.1-0.1-0.2-0.1-0.3-0.2 10.3-16.1 21.7-28.3 34.5-37.1 7.1-5 14.7-8.9 22.7-11.8 6.7-2.4 13.8-4.3 20.9-5.8 12.1-2.8 24.7-4.4 37.6-4.8 18.2-0.5 36.8 1.2 54.6 5.5 13.3 3.1 27.6 7.7 34.6 10.9-0.1 0.9-0.2 1.7-0.4 2.6 0 0.1 0 0.1-0.1 0.1" fill="#4a000d"/>
    </g>
    <g transform="matrix(.012885 0 0 -.012885 -761.6 196.84)">
     <path d="m16300 14902c0-87.5-71-158.6-158.6-158.6-87.5 0-158.6 71.1-158.6 158.6 0 87.6 71.1 158.6 158.6 158.6 87.6 0 158.6-71 158.6-158.6" fill="#300"/>
    </g>
    <g transform="matrix(.012625 0 0 -.012625 -761.6 196.84)">
     <path d="m15832 15686c90.5 53.2 161 47.8 205.4 32.5 67.1-23 106.1-76.9 115.9-107.5 8.8-27.3 65.8-103.4 89.2-109.5 17.1 0 32.5-3.8 46.1-9.5-0.4 14.7 1.8 30.4 8 46.2 3 24.1-46.9 105.2-69 123.3-24.8 20.4-60.6 76.4-57.3 147.4 2.1 46 22.4 112.1 101.6 175.5-60.4 57.5-199.4 158.2-396.5 110.4-116.7-165.4-74.5-331.4-43.4-408.8" fill="#4a000d"/>
    </g>
    <g transform="matrix(.012564 0 0 -.012564 -761.6 196.84)">
     <path d="m15828 15636c-183.4-183.8-199.2-348.3-198.3-406 70.7 63.7 354.9 300.3 670.7 304.2-46.5 21.5-103.3 107.2-113.2 138-11.4 35.4-130.9 192.5-359.2-36.2" fill="#4a000d"/>
    </g>
    <g transform="matrix(.013153 0 0 -.013153 -761.6 196.84)">
     <path d="m15703 14812c7.9-6 47.1-33.2 84.8-15.1 85.4 40.8 177.1-25 205.1-44.7 28.1-19.8 232.4-106.2 275.9 226.3 31.4 239.9-11.2 352.4-37.4 396.5-24.2-11.3-453.9-217.6-528.4-563" fill="#4a000d"/>
    </g>
    <g transform="matrix(.013067 0 0 -.013067 -761.6 196.84)">
     <path d="m15708 15166c24.1-19.7 80.5-100.9 83.3-149.9 115.2 280.9 427.3 451.3 509.2 491.9-51.4 21.2-204 65.3-433.2-33.6-285.2-123.2-187-285.7-159.3-308.4" fill="#4a000d"/>
    </g>
    <g transform="matrix(.013 0 0 -.013 -761.6 196.84)">
     <path d="m16279 14755c-15.1 0.1-30.5 0.5-46.2 1.5-12.5-39.9-44.4-96.1-124.3-150.4-77.5-52.7-138-63.3-177.9-61.5-5-15.3-10.3-30.2-16-44.6 64.9-50 147.4-65.6 220.9-43.4 54.3 16.4 31 62.2 27.7 68.1 4.1-5.4 37.5-44.3 72.7 0.2 49.3 62.1 63.9 150.1 43.1 230.1" fill="#030"/>
    </g>
    <g transform="matrix(.013306 0 0 -.013306 -761.6 196.84)">
     <path d="m15713 14307c116.8 79.4 109.1 158.1 109.1 158.1 289.8-31.9 478 99 478 99-32.5 95.2-125.2 183.5-175.2 226-17.3-119.8-57.7-202.5-120.6-245.4-84.8-57.5-185.7-24.4-222.2 1.3-22.3 15.6-86.5 60.9-143.4 44.5 8.6-5.4 16.2-12.1 22.1-20.7 26.4-38.8 10.4-95.8-35.9-127.3-46.2-31.4-105.1-25.5-131.5 13.4-5.2 7.6-8.3 15.9-10.3 24.6-28.5-47.1-11.7-116.7-5.6-141.6 10.4-43.5 4-149.5-80.8-207.1-64.3-43.8-158.7-50.5-280.6-20.2 20.1-60.4 69-185.2 148.1-252.5 0 0 191.9 121.6 268.8 402.7 0 0 63.2-34.1 180 45.2" fill="#4a000d"/>
    </g>
    <g transform="matrix(.012651 0 0 -.012651 -761.6 196.84)">
     <path d="m16233 15069c-8.3 34.7-36.8 148.5 35.4 215.5 31.8 29.5 20.4 77.8 17.8 87.7-362.4 60.1-726.3-276.5-746.4-295.5 32.5-42.2 125-126.5 368.9-187.8 338.1-85.1 332.7 145.5 324.3 180.1" fill="#4a000d"/>
    </g>
    <g transform="matrix(.014438 0 0 -.014438 -761.6 196.84)">
     <path d="m16009 13017c9.9-77.5 80.8-132.4 158.4-122.5 77.5 9.9 132.3 80.7 122.4 158.3-9.8 77.6-80.7 132.4-158.2 122.5-77.6-9.8-132.5-80.8-122.6-158.3" fill="#300"/>
    </g>
    <g transform="matrix(.014784 0 0 -.014784 -761.6 196.84)">
     <path d="m16183 13544c-172.1 19.2-278.9-81.1-323.9-136.3 73.9-45.2 98.2-99 105-137.7 10.4-59.8-13.8-111.1-32.7-131-16.8-17.8-50.3-91.9-45.2-111.9 7.1-12.8 10.6-25.8 11.9-38.3 10.9 6.3 23.4 11.1 37.9 12.9 19.2 7.8 59.4 78.5 63.8 102.5 5 27 32.2 76.7 86.6 103.5 36 17.8 95.1 30 177.4-5.4 18.1 69.1 35.9 214.2-80.8 341.7" fill="#4a000d"/>
    </g>
    <g transform="matrix(.015018 0 0 -.015018 -761.6 196.84)">
     <path d="m15791 12893c-4.9-26.7-43-103.8-79.3-126.5 262.5 30.1 523.3-136.3 588.7-181.5-5.4 47.9-35.9 182.8-207.5 315.9-213.6 165.7-296.2 22.6-301.9-7.9" fill="#4a000d"/>
    </g>
    <g transform="matrix(.014372 0 0 -.014372 -761.6 196.84)">
     <path d="m15755 13751c-18.7-43.1-44.4-150.2 11.8-364.3 78-296.7 253.5-194.7 276.7-173.5 23.1 21.1 98.7 91.4 181 64.2 36.4-12 68.8 17.3 75.2 23.5-107.5 305-521.5 442.6-544.7 450.1" fill="#4a000d"/>
    </g>
    <g transform="matrix(.014505 0 0 -.014505 -761.6 196.84)">
     <path d="m16031 13678c-216 62.3-347.4 5.6-390.9-19.2 77.9-27.1 376.2-143.7 511-381.7-3 44.2 38.2 123.1 57.5 143.5 22.1 23.4 91.4 179.8-177.6 257.4" fill="#4a000d"/>
    </g>
    <g transform="matrix(.014399 0 0 -.014399 -761.6 196.84)">
     <path d="m16009 12822c36.6-35.8 62.1 2.9 65.2 8.2-2.2-5.7-17.9-49.3 32.5-57.9 68.3-11.5 140.6 12 192.9 64-6.6 12.4-13.1 25.1-19.4 38.2-35.5-6.1-90.9-3.5-166.3 34.8-77.8 39.5-112.7 86.2-128.5 120.4-14-2.6-27.6-4.7-41.2-6.4-9.5-74.1 13.6-151.2 64.8-201.3" fill="#030"/>
    </g>
    <g transform="matrix(.014755 0 0 -.014755 -761.6 196.84)">
     <path d="m15910 12614c100.8-242.7 286.3-329.5 286.3-329.5 63.1 69.1 92.6 186.4 103.7 242.7-105.5-41-190.7-45.8-253.3-13.9-82.4 41.8-100.1 135.9-95.8 176 2.6 23 9.7 87.2-21.2 126-0.8-8-2.6-15.8-6.3-23.2-19.2-37.7-71.3-49.7-116.1-26.9-45.1 22.8-66 72-46.7 109.7 4.2 8.4 10.3 15.3 17.4 21.1-52.7 8.2-105-39.7-123.2-56.2-29.7-27.2-116.2-68.2-198.6-26.4-61.2 31.1-106.8 100.5-135.9 205.7-39.9-43.7-112.8-133.2-130.9-222.1 0 0 183.2-95.6 438.8-34.1 0 0 2.2-71.3 115.7-129s166.1-19.9 166.1-19.9" fill="#4a000d"/>
    </g>
    <g transform="matrix(.015009 0 0 -.015009 -761.6 196.84)">
     <path d="m16011 12354c197.4 77.3 265.8 157.6 288.6 196.3-18.9 13.8-359 256.5-655.6 167.5-1.2-8.5-5.6-50.1 24.2-71.4 67.6-48.2 55.8-146.5 52.5-176.3s16.8-223.2 290.3-116.1" fill="#4a000d"/>
    </g>
    <g transform="matrix(.012815 0 0 -.012815 -761.6 196.84)">
     <path d="m16166 13649c76.8-5.8 134.3-72.8 128.6-149.5-5.9-76.8-72.8-134.4-149.6-128.6s-134.3 72.7-128.6 149.5c5.9 76.8 72.9 134.3 149.6 128.6" fill="#300"/>
    </g>
    <g transform="matrix(.012502 0 0 -.012502 -761.6 196.84)">
     <path d="m16099 13315c-40.8 83.1-31.4 144.9-14.9 183 24.7 57.5 74.7 88.3 102.2 94.9 24.7 5.9 95.5 51 102.4 71.3 1.1 15 5.5 28.3 11.5 39.9-13 0.6-26.7 3.6-40.3 10.1-21 4.3-95.6-34.2-113.1-52.5-19.6-20.5-71.2-48.3-133.5-40.8-40.5 5-97.3 27.2-147.8 101.1-54.7-49.3-152.5-165-123.5-341.7 137.9-113.7 286.8-87.6 357-65.3" fill="#4a000d"/>
    </g>
    <g transform="matrix(.012691 0 0 -.012691 -761.6 196.84)">
     <path d="m15962 13038c146.7-170.3 287.6-194.6 337.5-197.6-50.3 65.1-236.1 325.8-218.9 598.6-21.6-38.7-99.2-82.1-126.5-88.7-31.3-7.4-174.7-100.5 7.9-312.3" fill="#4a000d"/>
    </g>
    <g transform="matrix(.01269 0 0 -.01269 -761.6 196.84)">
     <path d="m16114 13557c5.9 6.8 33.2 40.3 19.4 75.6-31.1 80 34.6 158.4 54.4 182.3 19.7 24 111.7 202.7-185.7 264.7-214.6 44.7-319.2 13.9-360.8-6.8 8.5-22.5 165.7-424.9 472.7-515.8" fill="#4a000d"/>
    </g>
    <g transform="matrix(.01247 0 0 -.01247 -761.6 196.84)">
     <path d="m16157 13725c19.6 20.6 97.7 66.6 142.7 65.8-248.7 124.5-382.8 421.5-414.4 499-22.9-45.4-73.7-181.8 1-398 92.8-269 248-190.5 270.7-166.8" fill="#4a000d"/>
    </g>
    <g transform="matrix(.012939 0 0 -.012939 -761.6 196.84)">
     <path d="m16034 13624c-1.1-13.2-2.5-26.7-4.3-40.4 34.1-13.5 81.2-45.2 123.5-118.7 41-71.4 46.3-125.1 42.1-160 13.1-5.4 25.8-11.1 38-16.9 48.1 53.5 67.2 124.8 52.7 190.7-10.9 48.5-52.5 31.1-57.9 28.7 5 3.2 41.3 29.9 4.7 63.7-51.3 47.3-127.3 65.8-198.8 52.9" fill="#030"/>
    </g>
    <g transform="matrix(.013089 0 0 -.013089 -761.6 196.84)">
     <path d="m15933 13291c-62.5 108.7-132.8 107.2-132.8 107.2 47.7 254.7-55.7 430.2-55.7 430.2-86.5-22.3-171-98.6-212-140 105.1-23.4 175.6-64.7 209.4-123.3 45.4-79.1 9.2-166.3-15.9-196.9-15.5-18.7-59.9-72.7-49.1-124.1 5.3 7.3 11.8 13.6 19.8 18.2 36.2 20.8 85.7 2.7 110.4-40.4 24.8-43.1 15.5-94.9-20.6-115.7-7.1-4-14.8-6.1-22.5-7.4 39.8-28.5 102.6-18.2 125.2-14.5 39.1 6.4 132.6-6.4 178-85.3 34.6-60 34.2-144.1-0.9-250 54.9 13.7 168.8 48.7 233.8 114.3 0 0-94.9 178.2-339 265.1 0 0 34.5 53.7-28.1 162.6" fill="#4a000d"/>
    </g>
    <g transform="matrix(.012945 0 0 -.012945 -761.6 196.84)">
     <path d="m16073 13190c-30-4.9-128.8-21.9-181.3 44-23.1 29-65 22.5-73.5 20.8-74.5-304.9 188.8-636.6 203.8-655 37.9 25.1 115.7 98.5 183.6 302.4 94.3 282.5-102.5 292.8-132.6 287.8" fill="#4a000d"/>
    </g>
    <g transform="matrix(.014033 0 0 -.014033 -761.6 196.84)">
     <path d="m16281 10949c19.4-60.3-13.9-125-74.2-144.4-60.4-19.4-125.1 13.8-144.5 74.2s13.8 125.1 74.3 144.5c60.3 19.4 125-13.8 144.4-74.3" fill="#300"/>
    </g>
    <g transform="matrix(.013762 0 0 -.013762 -761.6 196.84)">
     <path d="m15943 11315c50.5 56.7 100.3 68.5 134.2 67.9 51.4-1.1 90.1-29.6 103.6-48.4 12.2-16.9 68.3-56.8 85.7-55.8 11.8 3.9 23.3 4.6 33.9 3.7-3.5 10-5.5 21.3-4.7 33.7-3.3 17.2-55.5 62-74.8 69.6-21.6 8.5-58.6 39.2-72.1 88.8-8.7 32.2-9.5 82.1 31.1 143.4-54.3 26.2-172.3 64.8-297.5-11.7-43.8-139.8 22-244.7 60.6-291.2" fill="#4a000d"/>
    </g>
    <g transform="matrix(.013728 0 0 -.013728 -761.6 196.84)">
     <path d="m15953 11238c-85.4-166.7-59.9-283.3-46.7-322.7 34.7 59.3 177.6 284.7 393.8 357.1-36.7 4.5-94.7 50.7-108.3 69.8-15.6 21.8-132.4 103.4-238.8-104.2" fill="#4a000d"/>
    </g>
    <g transform="matrix(.014163 0 0 -.014163 -761.6 196.84)">
     <path d="m15899 10938c6.8-2.4 40.2-12.6 62.5 8.5 50.4 47.7 129 22.3 153 14.8 23.9-7.4 185.8-21.9 141.7 219.6-31.8 174.4-86.8 243.3-114.9 268.1-14.3-13.3-267.8-253.4-242.3-511" fill="#4a000d"/>
    </g>
    <g transform="matrix(.013996 0 0 -.013996 -761.6 196.84)">
     <path d="m15962 11227c21.3-8.4 79.1-52.6 92.2-86.4 17.5 222.9 197.9 412.6 246.1 459.6-40.7 3.3-157.7-0.2-296-121.2-172.2-150.6-66.8-242.3-42.3-252" fill="#4a000d"/>
    </g>
    <g transform="matrix(.014129 0 0 -.014129 -761.6 196.84)">
     <path d="m16258 10891c-10.5-3.2-21.1-6.4-32.2-9.3 0.2-30.2-9.4-76.2-52.5-131.4-41.9-53.6-81.3-74.4-109.3-82 0-11.7-0.4-23.2-1.1-34.4 55.9-20 116.4-12.5 162.2 19.1 33.9 23.3 7.6 49.8 4 53.2 4-2.8 35.8-22.3 50.2 16.3 20.3 53.8 10.8 117.8-21.3 168.5" fill="#030"/>
    </g>
    <g transform="matrix(.014306 0 0 -.014306 -761.6 196.84)">
     <path d="m15948 10638c63.7 81.6 40.7 134.9 40.7 134.9 209.6 42.7 311.6 176.3 311.6 176.3-44 59.2-128.5 100.1-173 118.5 14.8-87.5 5.2-154.3-29.2-198.3-46.3-59.3-124.2-58.8-155.4-49.1-19.1 6-74.1 23.2-110.1-1 7.2-1.8 14-4.8 20.1-9.5 27.1-21.2 28.7-64.6 3.4-97-25.2-32.3-67.8-41.3-94.9-20.1-5.3 4.1-9.3 9.3-12.6 14.8-9.4-39.2 17.9-84.1 27.8-100.1 17-28 36.3-103.5-10-162.7-35.1-45-99.5-70.9-191.4-77 27.6-37.7 89.7-114 160.1-143.2 0 0 106.8 127.9 97.4 341.6 0 0 51.7-9.8 115.5 71.9" fill="#4a000d"/>
    </g>
    <g transform="matrix(.013879 0 0 -.013879 -761.6 196.84)">
     <path d="m16232 10914c-13.4 21.9-58 93.6-23.3 155.2 15.3 27.3-3.1 57.9-7.1 64-261.3-38.5-436.3-348.8-445.9-366.3 31.6-21.8 113.5-59 293.8-47.4 250.1 16.1 195.7 172.7 182.5 194.5" fill="#4a000d"/>
    </g>
    <g transform="matrix(.016119 0 0 -.016119 -761.6 196.84)">
     <path d="m16208 8483.1c28.3 1.3 56.5 2.46 84.9 2.89 2.3 0.73 4.7 1.45 7.2 2.17-35.4 63.47-67.6 128.81-92.7 202.05-52 151.48-90.5 308.25-161.7 452.42-95.8 194.29-215 373.59-280.5 581.58-63.6 202.48-152.2 366.25-268.8 541.55l-143.7 239.3-69.1-43.3c41.3-57.3 78.9-117 117-176.4 64.4-100.6 141.2-199.6 189.7-309.05 41.2-93.02 71.2-189.15 101.6-286.22 65.4-209.01 188.9-384.61 279.2-582.09 70.1-153.44 106.9-318.4 164.6-476.39 19-52.16 44.7-100.85 72.3-148.51" fill="#030"/>
    </g>
    <g transform="matrix(.0161 0 0 -.0161 -761.6 196.84)">
     <path d="m15871 10312c144.7-25.7 310.6 12.7 429 104-4.4 7.9-8.1 16.1-11.5 24.5-60.2-33.5-127-55.6-194.7-68.1-53.5-9.9-108.5-20.9-163.3-16.5-17.3 1.3-32.3 3.3-47.3 3.9 32.4 120.2 74.9 232.8 128.6 350.1 43.9 95.9 70.8 197.4 17.7 295.6-5.8 10.6-23.6 7.3-21.4-6 29.3-172.9-69.7-296.8-129.4-451.2-54.4-140.7-86.2-292.2-106.7-441.5-22-159.58-6.9-319.37 22.7-477.35 6.9-37.14 17.4-74.28 30.9-110.4l61.8-22.99c-35 78.85-39.4 172.78-50.4 257.06-22 167.77-17.3 316.58 16.8 482.58 5.3 25.9 11.1 51.3 17.2 76.3" fill="#030"/>
    </g>
    <g transform="matrix(.016488 0 0 -.016488 -761.6 196.84)">
     <path d="m16201 10396c-1.7-95.6-32.8-184.3-86.5-245-7.3-8.2-15.7-15.6-24.9-22.1 4.1-7.2 7.8-14.6 11.2-22.2 9.8 2.5 18.8 5.5 25.7 9.5 76 43.4 138.3 125.7 170.9 225.8 1 3 1.7 5.9 2.3 8.2-23.2 14.3-57.9 32.8-98.7 45.8" fill="#4a000d"/>
    </g>
    <g transform="matrix(.016363 0 0 -.016363 -761.6 196.84)">
     <path d="m16017 10321c35.7 8.2 82.8-0.8 115.9-24.2 25.8-18.2 48.5-41.5 66.7-67.9 7.2 5.1 13.7 10.9 19.4 17.3 51.3 58 80.5 144.1 80.8 237 0 2.5 0.1 5 0 7.6 0 2.1-0.1 4.1-0.3 5.9v0.9c-24.7 5.5-48.5 9-70.8 10.3-37.4 2.1-73-1.8-104.7-11-38.9-11.2-71.9-30.4-94.7-56.2-7.4-8.3-13.8-18.1-18.9-28.8-7.1-14.8-11.6-31.5-13.6-49.3-1.4-12.7-1.6-25.9-0.4-39.6 0.3-3.1 0.8-5.9 1.2-8.9 2.2 1.1 4.4 2.1 6.7 2.9 4.1 1.6 8.3 2.9 12.7 4" fill="#4a000d"/>
    </g>
    <g transform="matrix(.016275 0 0 -.016275 -761.6 196.84)">
     <path d="m16291 10222c-1.7 4.1-3.5 8.3-5.4 12.3-2.3 4.8-4.9 9.4-7.5 14.1-2.1 3.7-4.3 7.5-6.6 11-2.3 3.8-4.6 7.5-7.2 11.1-16.5 23.4-36.6 44-59.6 60.2-27.8 19.6-69.7 27.2-98.2 19.5-4.3-1.1-8.3-2.7-12-4.6-0.4-0.2-1-0.3-1.4-0.6-1.2-0.7-2.5-1.6-3.8-2.7-1-0.8-2-1.6-3-2.6 2-8.2 11.7-28 20.3-42.7 7.9-13.4 17.3-26.1 27.6-37.8 6.8-7.7 14-15 21.7-21.7 1-0.9 2-1.9 3.1-2.8 13.9-11.8 28.7-21.9 44.1-29.6 27.7-13.9 58.8-16.4 96.9-7.7-1.2 4.1-2.7 8.1-4.2 12.1-1.5 4.2-3 8.3-4.8 12.5" fill="#4a000d"/>
    </g>
    <g transform="matrix(.015858 0 0 -.015858 -761.6 196.84)">
     <path d="m16284 9328.3c-0.7 6.48-1.1 12.96-1.7 19.36-9.8 14.59-19.6 29.31-29.6 43.53-36.5 51.54-73.3 102.94-106.9 156.47l-59.2-42.63c-36.4 20.25-74.3 37.41-112.9 50.81-163.7 56.92-331.5 98.75-505.3 100.95-162.6 2.07-329.1-7.43-488-42.85-174.3-38.81-322.3-124.45-501.9-65.39-13.8 4.49-20.3-13.99-9.8-21.87 96.1-72.39 208.7-60.02 318-28.65 133.7 38.37 260.7 65.54 394 80.86-1.7-16.2-2.1-32.4-3.4-51.11-4.2-59.13-24.8-115.98-43.9-171.5-24.8-71.8-60.4-140.87-107.4-200.66 7.5-5.45 14.5-11.63 21-18.41 120.6 111.34 190.9 285.56 186.6 446.91 27.8 2.5 55.7 4.71 84.2 6.18 182.5 9.57 342-9.35 517.3-59.72 88.1-25.33 176.3-43.44 254.8-93.45 54.9-35.05 99.7-85.34 146.7-132.03 21-30.93 42.2-60.01 63.5-88.95-4.9 37.33-12.1 74.89-16.1 112.15" fill="#030"/>
    </g>
    <g transform="matrix(.014684 0 0 -.014684 -761.6 196.84)">
     <path d="m16245 9636.7c-64.1-41.44-146.3-63.23-233.7-63.23-23.3 0-47 1.59-70.8 4.69 8.1-50.42 23.8-94.47 36.6-124.46 2.8 0.24 6.4 0.64 10.1 1.28 123.8 20.67 232 79.44 296.7 161.36 5.8 7.48 11.1 17.49 15.7 28.63-8.3 5.41-16.4 11.05-24.2 17.18-9.3-9.63-19.4-18.29-30.4-25.45" fill="#4a000d"/>
    </g>
    <g transform="matrix(.014641 0 0 -.014641 -761.6 196.84)">
     <path d="m16276 9690.8c8.6 5.58 16.5 12.28 23.8 19.7-27.8 26.16-51.1 56.87-67.9 90.37-21.5 43.07-23.7 100.02-7.8 140.46 2 4.94 4.3 9.65 6.9 14.11 1.4 2.56 2.9 4.95 4.6 7.34-3.4 0.96-6.7 2.16-10.3 3.03-15.7 3.75-31.3 5.9-46.4 6.47-21.3 0.79-41.7-1.52-60.3-7.1-13.6-4.15-26.1-9.89-37.3-17.15-34.4-22.41-62.9-57.83-83-101.7-16.3-35.41-27-76.41-31.2-120.52-2.5-26.48-2.5-55.03-0.3-85.02 0.2 0 0.6-0.08 1-0.16 2-0.48 4.4-0.96 6.7-1.36 3.1-0.48 6-0.88 9-1.27 109.2-16.12 215.3 2.87 292.5 52.8" fill="#4a000d"/>
    </g>
    <g transform="matrix(.014747 0 0 -.014747 -761.6 196.84)">
     <path d="m16289 9723.9c-6.2 19.17-15.2 38.01-26.4 55.99-1 1.51-2 3.01-2.9 4.52-6.5 9.97-13.7 19.63-21.3 28.9-11.8 14.09-24.9 27.16-39.2 38.64-15.5 12.59-36.8 27.16-46 30.88-1.2-0.95-2.3-1.9-3.4-2.84-1.5-1.35-2.7-2.7-3.9-4.04-0.3-0.48-0.6-1.03-1-1.51-2.8-3.88-5.3-8.31-7.4-13.14-13.8-31.68-12.3-81.65 5.5-117.2 14.8-29.46 35.2-56.46 59.4-79.67 3.7-3.56 7.7-6.89 11.6-10.29 3.8-3.33 7.7-6.49 11.8-9.66 4.9-3.8 9.8-7.53 14.9-11.01 4.3-2.93 8.8-5.78 13.3-8.47 4.5-2.77 9.1-5.31 13.7-7.76 4.4-2.3 8.7-4.83 13.3-6.89 16.7 42.68 19.2 79.03 8 113.55" fill="#4a000d"/>
    </g>
    <g transform="matrix(.015973 0 0 -.015973 -761.6 196.84)">
     <path d="m16264 11224c-35.8-50.3-105.7-62-156-26.1s-62 105.8-26.1 156.1 105.8 62 156 26.1c50.3-35.9 62-105.8 26.1-156.1" fill="#300"/>
    </g>
    <g transform="matrix(.016041 0 0 -.016041 -761.6 196.84)">
     <path d="m15934 11764c72-6.3 109.3-37.6 128.1-63.8 28.4-39.8 28.7-85.5 22-106.5-6.1-18.9-4.5-84.3 6.2-97.1 9.6-6.8 16.6-15.1 21.9-23.7 5.7 8.4 13.2 16.3 23.1 22.7 11.2 12.2 15.7 77.6 10.6 96.6-5.8 21.3-3.4 67.1 26.8 105.5 19.6 25 57.3 53.9 127 57.7-10.9 56.4-48.5 168.2-178 220.2-131.5-45.9-174.1-155.8-187.7-211.6" fill="#4a000d"/>
    </g>
    <g transform="matrix(.015807 0 0 -.015807 -761.6 196.84)">
     <path d="m16074 11900c-177.9-29.9-253.2-116.6-276.1-149.6 65.7 7.5 322 26.7 502.2-98.6-17.6 30.9-15.1 102.3-8.3 123.7 7.9 24.6 3.7 161.8-217.8 124.5" fill="#4a000d"/>
    </g>
    <g transform="matrix(.016406 0 0 -.016406 -761.6 196.84)">
     <path d="m15769 11157c2.1-6.6 13.3-38 42.2-43.1 65.4-11.4 91-86.3 98.9-109s89.4-155.1 249.5 16.8c115.6 124.1 137.1 205.7 140.1 241.5-18.4 3.4-347.6 60.6-530.7-106.2" fill="#4a000d"/>
    </g>
    <g transform="matrix(.016399 0 0 -.016399 -761.6 196.84)">
     <path d="m15826 11348c5.6-20.9 4.8-89.8-13.5-118.7 179.1 112.7 425 83.1 487.9 73-20.5 32.8-89.3 119.5-259.3 156.1-211.6 45.6-221.7-86.3-215.1-110.4" fill="#4a000d"/>
    </g>
    <g transform="matrix(.016001 0 0 -.016001 -761.6 196.84)">
     <path d="m16300 11145c-8.7 6.2-17.4 12.8-26.1 19.8-23.7-17.9-65.3-37.2-133.9-35.6-66.5 1.5-105.9 20.4-128.3 37.8-9.2-6.8-18.4-13.2-27.6-19.3 16.9-55.6 58.2-98.6 109.9-116.2 38.1-12.9 43.5 23.2 44.1 28 0.1-4.8 3.4-41.1 42.1-29.9 54.1 15.7 98.9 60.5 119.8 115.4" fill="#030"/>
    </g>
    <g transform="matrix(.016313 0 0 -.016313 -761.6 196.84)">
     <path d="m15832 10948c100.7-2.3 128.9 46.6 128.9 46.6 155-138.6 318.4-140.5 318.4-140.5 20.6 68.7 3.3 158.4-8.1 203.7-59.6-62.4-117.3-93.7-171.6-92.4-73.1 1.7-118 62.7-128.5 92.7-6.4 18.3-25.1 71.3-64.8 85.2 2.7-6.6 4.5-13.7 4.2-21.2-0.7-33.4-33.6-59.8-73.6-59-39.8 1-71.5 28.9-70.8 62.3 0.2 6.5 1.9 12.7 4.3 18.6-36.1-15.6-55.2-63-62-79.9-11.9-29.6-59.5-88.5-132.6-86.9-55.5 1.3-113.1 36.5-171.2 104.6-13.4-43.4-36.7-136.1-18.7-207.9 0 0 161.8-9 322.9 122.5 0 0 22.6-46.1 123.2-48.4" fill="#4a000d"/>
    </g>
    <g transform="matrix(.015839 0 0 -.015839 -761.6 196.84)">
     <path d="m16147 11406c9.3 23.1 39.2 99.4 107.4 108.1 30.1 3.9 43.3 36 45.7 42.7-181.7 181.1-525 137.4-544.2 134.7 1.4-37.2 19.9-122.6 133.6-256.4 157.7-185.5 248.2-52.2 257.5-29.1" fill="#4a000d"/>
    </g>
   </g>
  </g>
 </g>
</svg>
