<?xml version="1.0" encoding="UTF-8"?>
<svg width="105.83mm" height="148.17mm" version="1.1" viewBox="0 0 105.83 148.17" xmlns="http://www.w3.org/2000/svg">
 <g transform="translate(-168.82 -196.29)">
  <rect x="168.82" y="196.29" width="105.83" height="148.17" fill="#f9f9f9"/>
  <g transform="translate(622.32 264.49)">
   <g transform="matrix(.021929 0 0 -.021929 -761.6 196.84)">
    <path d="m15917 10557c0-20.6-11-30.1-36.4-45.9-77.6-50.7-122-71.3-175.9-88.8-4.7-1.6-9.4-1.6-12.6-1.6-11.1 0-15.9 4.8-15.9 14.3 0 6.3 3.2 14.3 9.5 22.2 34.9 39.6 60.3 71.3 76.1 106.1 7.9 15.9 9.5 30.1 9.5 42.8 0 7.9 0 14.3-1.6 20.6 1.6 17.4 6.3 25.3 19 25.3 6.3 0 15.9-3.1 28.6-9.5 58.5-28.5 99.7-57 99.7-85.5zm-364.3 438.8c90.3 7.9 179 15.9 269.3 22.2 6.3 39.6 9.5 63.4 9.5 76 0 14.3-4.8 28.6-12.7 46-4.7 9.5-11.1 22.2-11.1 30.1s8 15.8 27 15.8c22.1 0 68.1-12.6 128.3-47.5 17.4-11.1 22.2-20.6 22.2-33.3 0-14.2-8-30.1-12.7-38-6.4-9.5-12.7-26.9-19-41.2 26.9 1.6 52.3 3.2 77.6 4.8 47.5 3.1 74.5 9.5 99.8 25.3 96.7-23.7 150.5-68.1 150.5-104.5 0-27-22.2-39.6-57-39.6-53.9 1.5-104.6 4.7-193.3 4.7-33.3 0-76 0-123.6-1.6-15.8-34.8-31.7-66.5-42.7-82.4-17.5-28.5-33.3-39.6-52.3-39.6-14.3 0-28.5 12.7-28.5 34.9 0 4.7 0 9.5 1.5 15.8 4.8 20.6 11.1 42.8 15.9 66.6-82.4-3.2-164.8-9.5-247.2-17.5v-42.7c0-39.6-23.7-63.4-45.9-63.4-23.8 0-44.4 14.3-52.2 50.7-3.2 14.3-6.4 28.5-9.6 44.4-77.6-9.5-158.4-19.1-239.2-31.7-19 0-30.1 0-41.2 14.2-31.7 36.5-55.4 71.3-55.4 82.4 0 9.5 3.2 12.7 36.4 14.3 103 9.5 194.9 17.4 278.8 25.3-1.6 12.7-4.7 25.4-7.9 39.6-7.9 36.5-15.8 47.5-31.7 68.1-15.8 19.1-17.4 25.4-17.4 33.3s15.9 17.4 31.7 17.4c38-1.6 74.5-9.5 109.3-25.3 34.9-15.9 44.3-28.5 44.3-46-1.5-9.5-3.1-25.3-3.1-30.1zm77.6-730.3c57-7.9 150.5-28.5 207.5-53.9 47.6-22.1 101.4-71.3 101.4-112.4 0-27-17.4-57.1-55.4-57.1-28.6 0-58.7 22.2-123.6 72.9-53.9 42.8-96.6 74.5-129.9 99.8l1.6-264.54c0-82.38-20.6-123.6-60.2-123.6-47.5 0-79.2 71.31-79.2 150.49 11.1 28.55 14.2 53.85 15.8 144.15l1.6 63.4c-114.1-131.5-231.3-201.21-388.2-262.98l-12.6-3.14c-11.1 0-17.4 7.88-17.4 17.41 0 7.93 6.3 19.01 15.8 25.35 144.2 99.76 251.9 199.56 331.1 321.56-58.6-7.9-118.8-15.8-180.6-26.9-20.6 0-25.3 3.2-34.9 11.1-23.7 20.6-53.8 63.4-53.8 74.4 0 8 9.5 12.7 34.8 14.3 137.9 14.3 234.5 25.3 309 33.3v45.9c0 99.8-6.4 123.6-15.9 155.3-4.7 11-6.3 17.4-6.3 23.7 0 11.1 7.9 19 25.3 19 22.2 0 74.5-15.8 107.8-36.4 23.7-14.3 31.6-25.4 31.6-36.4 0-8-3.2-17.5-12.6-38.1-11.1-25.3-12.7-55.4-12.7-101.4v-19l80.8 9.5c50.7 6.4 82.4 8 115.6 27 65-6.4 137.8-44.4 137.8-87.2 0-28.5-15.8-38-50.6-38-42.8 1.6-63.4 1.6-106.2 1.6-26.9 0-91.8-3.2-177.4-11.1zm-540.2 182.2c-6.4-3.2-19-9.5-25.4-9.5-11.1 0-23.7 11.1-23.7 22.2 0 9.5 1.6 17.4 12.6 26.9 72.9 64.9 139.4 129.9 220.2 259.8 12.7 20.6 17.4 36.4 17.4 52.3 0 14.2-1.5 25.3-6.2 45.9 0 11.1 9.4 15.9 22.1 15.9 20.6 0 47.6-4.8 98.3-38.1 31.6-20.6 45.9-33.2 45.9-55.4 0-6.3-3.2-12.7-7.9-19 264.5 23.7 440.4 38 584.5 47.5 36.5 1.6 69.7 15.9 91.9 31.7 47.5-15.8 80.8-34.9 123.6-72.9 39.6-36.4 57-66.5 57-83.9 0-15.9-7.9-31.7-19-50.7-12.7-20.6-15.8-47.6-22.2-106.2-25.3-240.8-49.1-377-80.7-503.8-38.1-152.05-92-209.08-126.8-236.03-12.7-9.48-23.8-15.81-44.3-15.81-15.9 0-42.9 22.15-71.3 49.09-34.9 31.69-53.9 52.3-93.6 102.99-7.8 11.08-12.6 19.01-12.6 28.49 0 7.94 4.8 17.47 15.8 17.47 42.8-3.2 125.2-20.61 137.9-20.61 14.2 0 26.9 7.93 34.8 30.09 19 55.42 47.5 145.72 68.1 286.72 22.3 153.7 33.3 277.3 39.7 443.6-221.8-4.7-427.8-20.6-684.4-53.9-14.3 0-19 3.2-33.3 14.3-9.5 7.9-17.4 15.8-25.3 23.8-25.4-30.1-52.3-58.7-80.8-84 76-17.4 155.2-76 155.2-142.6 0-31.7-22.2-53.8-49.1-53.8-50.7 0-101.4 77.6-126.7 156.8-1.6 6.3-3.2 12.7-3.2 17.4-61.8-52.3-126.8-95-188.5-126.7" fill="#002"/>
   </g>
   <g transform="matrix(.020583 0 0 -.020583 -761.6 196.84)">
    <path d="m15973 9579.8c0.4-0.57 0.9-1.08 1.3-1.59 11.7-14.64 44.6-35.69 84.6-57.87-11.3 30.58-20.3 57.02-12.9 72.5l13.4 11.41c13.6 4.42 60.5 8.68 116.5 3.17 4.2-0.45 8.3-0.79 12.6-1.3s8.9-1.31 13.3-1.99c32.5-4.87 66.6-13.21 98.6-26.83l-23.1 35.23c-41.1 69.78-142.8 88.11-233 88.85-4.6-0.06-9.2 0.11-13.7 0.17-4.5-0.12-8.7-0.34-13.1-0.51-66.8-1.93-122.6-12.2-134.4-16.12-2.5-0.85-4.1-1.81-4.3-2.66-0.4-2.33 1.7-6.13 5.5-10.84 7.4-9.25 21-21.9 32.7-32.79l56-58.83" fill="#764100"/>
   </g>
   <g transform="matrix(.020712 0 0 -.020712 -761.6 196.84)">
    <path d="m16262 9463c-2.6 1.86-5.3 3.66-8 5.47-0.9 0.56-1.8 1.07-2.8 1.58-3.3 2.14-6.7 4.28-10.1 6.2-3.4 1.97-6.8 3.89-10.3 5.69-28 14.27-58.5 23.68-88.5 29.71-4.6 0.96-9.3 1.92-13.8 2.71-4.6 0.73-8.9 1.41-13.3 1.97-62.6 8.8-117.6 4.23-132.3-0.62l-6.2-5.13c-5.7-11.78 5-40.53 15.3-68.33l2.1-6.82 2.4-8.07 2.5-8.11 14.3-47.87c0.6-4.06 2.9-8.46 6.7-13.14 7.7-9.64 22.3-20.69 40.3-32.31 76.2-15.78 146.5-39.52 196-58.63-10.1 17.03-18 34.84-21.5 52.38-0.4 1.97-0.7 4-1 6.03-0.3 2.14-0.4 4.23-0.5 6.31-0.2 1.64-0.5 3.27-0.5 4.91-0.3 21.65 8 40.25 23.4 53.73 2 3.1 10.2 10.54 22 20.19 1.1 0.95 2.4 1.91 3.6 2.93 0.4 0.28 0.7 0.56 1.1 0.84 0.3 0.23 0.5 0.4 0.8 0.68 1 0.79 1.9 1.47 2.9 2.25 0.3 0.29 0.7 0.62 1 0.91 0.8 0.5 1.5 1.07 2.3 1.69 0.5 0.39 1 0.79 1.6 1.13 2 1.63 4.1 3.26 6.3 4.9 0.8 0.56 1.3 1.02 2 1.58-7.8 9.53-16.5 17.93-25.8 25.77-3.9 3.32-7.9 6.42-12 9.47" fill="#764100"/>
   </g>
   <g transform="matrix(.020727 0 0 -.020727 -761.6 196.84)">
    <path d="m15962 9154.2c-22.7-12.06-39-28.9-44.8-52.51-13-52.96-8.5-96.06 11.9-121.64 3.3-4.22 7.2-8 11.5-11.26 1.2-0.96 2.6-1.47 3.9-2.37 17.6 14.25 29.6 22.37 30.2 22.76l0.3 0.22c130.8 73.7 234.1 113.98 306.5 120.29 8.2 5.35 15 8.45 19 10.03-0.4 4.45-0.7 11.6-0.1 21.41-4.7 4.28-10.5 9.91-17.4 16.84-17.9-0.9-44.1 0.85-80.4 3.49-72.2 5.24-167 11.84-240.6-7.26" fill="#764100"/>
   </g>
   <g transform="matrix(.020717 0 0 -.020717 -761.6 196.84)">
    <path d="m15948 9173.7c11.9 5.35 24.9 9.47 38.3 12.96 11.2 2.99 22.8 5.36 34.8 7.22 22.2 3.44 45.4 5.3 68.8 5.97 49.4 1.3 99.5-2.31 141.9-5.35 13-0.96 26.9-1.92 40.2-2.65 5.4-0.28 10.5-0.51 15.5-0.68 4.4-0.17 8.6-0.22 12.5-0.28-1 1.01-1.9 2.03-2.9 3.1 0 0.11-0.1 0.23-0.2 0.34-2.1 2.31-4.3 4.62-6.5 7.16-0.6 0.73-1.2 1.46-1.8 2.2-8.8 10.03-17.6 21.08-25.7 32.8-41.3 16.29-102.5 37.99-171.1 55.07-7.2 1.75-14.3 3.55-21.6 5.19-5.7 1.35-11.6 2.42-17.4 3.6-99.6 20.75-208.4 27.79-290.7-9.13-57.4-25.76-96.1-71.47-116.2-134.77 26.3-8.51 161.6-46 302.1 17.25" fill="#764100"/>
   </g>
   <g transform="matrix(.020887 0 0 -.020887 -761.6 196.84)">
    <path d="m16095 9525.2c1.1-3.85 2.1-6.99 2.7-8.94 0.5-1.51 0.8-2.57 0.9-2.63 1.1-3.08 2.3-5.59 3.4-8.55 18.7-48.09 38.7-83.87 58.5-108.64 10.9-13.58 21.5-22.98 31.7-30.69 2.8 2.01 5.6 4.02 8.5 6.09 1.7 1.12 3.2 2.24 4.8 3.3 0.8 1.18 1.4 2.24 2.2 3.47 1.7 2.74 3.7 5.65 5.7 8.83 9.8 14.48 23.3 32.71 39.7 50.32 1.8 2.07 3.6 3.97 5.5 5.98 1.6 1.57 3.2 3.13 4.8 4.7-2.3 10.4-4.6 21.64-6.5 33.32-4.3 24.55-7.1 51.33-7.2 78.72 0 6.32-0.2 12.53 0.2 18.73 2.3 50.66 15.7 101.2 50.3 139.5-6.3 67.37-20.1 119.2-44.7 138.54-10.9 8.67-23.5 10.29-38.5 5.2-54.2-18.51-93.1-51.66-115.9-98.35-3.2-6.76-6.1-13.58-8.7-20.62-0.6-1.96-1.1-3.98-1.7-5.99-0.7-1.79-1.2-3.74-1.8-5.59-24.6-82.35-2.9-174.94 6.1-206.7" fill="#764100"/>
   </g>
   <g transform="matrix(.021222 0 0 -.021222 -761.6 196.84)">
    <path d="m16072 9574.7c-1.7-1.87-3.8-3.41-5.3-5.17-2-2.37-3.5-4.9-5.4-7.27-50.8-66.8-41.9-168.98-27.1-239.09 7.8 6.88 16 13.21 24.6 18.82 2 1.32 4 2.64 6.1 3.85 2.1 1.1 4.1 2.31 6.2 3.47 8.1 4.24 16.3 7.92 25 10.34 5.6 1.66 10.5 1.77 15.7 2.37 2 0.22 4 0.72 5.9 0.83s4.2 0.93 6 0.88c34.5-0.06 57.5-20.8 70.7-38.47 11.9 2.04 28.9 3.03 49 1.76 3.8 5.34 7.5 10.68 10.9 16.07-15.6 43.36-29.2 111.98 0.8 182.96 0.9 1.87 2 3.8 2.9 5.67 0.9 2.04 2 4.02 2.9 6.06 9.4 18.87 21.9 37.74 38.6 56.29-7.1 47.37-19.7 80.56-23.4 85.84-3.9 3.74-36.8 7.26-105-32.25-1.7-0.99-3.4-2.03-5.2-3.13-1.4-0.77-2.9-1.76-4.4-2.64-10.9-6.66-22.7-14.48-35.4-23.45-1.9-1.26-3.8-2.69-5.7-4.12-1.9-1.32-3.9-2.7-5.7-4.07-9.1-6.66-18.5-13.71-28.4-21.68-5.3-4.24-9.8-9.14-14.3-13.87" fill="#764100"/>
   </g>
   <g transform="matrix(.021525 0 0 -.021525 -761.6 196.84)">
    <path d="m16099 9454.3c-1.9-2.11-3.6-4.17-5.4-6.23-1.7-2.07-3.5-4.02-5.2-6.03-14-16.98-24.7-34.07-32.5-50.99-0.9-2.01-2.1-4.07-2.9-6.02-1-2.12-1.6-4.18-2.4-6.24-23.2-59.84-14.4-116.7-1.4-156.14 0.9-2.55 1.6-5.21 2.6-7.6 0.9-2.55 1.8-4.83 2.6-7.16 2.7-6.51 5.2-12.42 7.6-17.41 1.2-0.22 2.5-0.66 3.7-0.87 2.3-0.38 4.5-1.03 6.8-1.47 2.2-0.49 4.4-0.87 6.5-1.41 31.9-7.43 64.7-20.61 89.8-43.51 8.3-7.59 15.2-15.89 21.2-24.79 4.7 18.06 17.2 42.8 38.4 75.57l0.6 0.76c2.3 2.55 25.8 27.89 61.4 57.67 9.4 48.5 3 102.76-31.2 160.05-30.9 51.7-62.6 78.5-94.5 79.8-36.6 1.36-61.3-32.82-62.2-33.85-1.3-1.36-2.2-2.77-3.5-4.13" fill="#764100"/>
   </g>
   <g transform="matrix(.021969 0 0 -.021969 -761.6 196.84)">
    <path d="m15988 9062.8c-2.6-2.18-5-4.35-7.5-6.48-27.6-24.13-45.4-43.11-46.6-44.44-22.2-34.28-31.9-55.44-35.8-68.83 13.8 12.01 29.5 25.24 46.7 39.01 4.5 3.51 9.1 7.07 13.7 10.63 4 3.14 8 6.33 12.1 9.41 66.1 50.02 144.2 98.6 196.9 100.2 25.9 0.85 55.8-0.59 85.2-3.78 25.3 13.88 43.4 23.82 46.8 25.73-28.3 26.63-61.5 41.14-99.8 40.61-74.1-1.06-151.8-52.68-203.9-95.63-2.7-2.17-5.3-4.35-7.8-6.43" fill="#764100"/>
   </g>
   <g transform="matrix(.022058 0 0 -.022058 -761.6 196.84)">
    <path d="m16174 9033.3c-3.3 0.26-6.5 0.69-9.8 1-21.9 1.86-44.8 2.54-67.4 1.91-55.9-1.8-145.2-61.89-213.7-116.37-6-4.65-11.9-9.37-17.5-14.08-11.9-9.69-22.6-18.85-32.4-27.37-2.1-1.8-4.3-3.76-6.3-5.45 0.1-0.06 0.2-0.11 0.2-0.27 0.7-1.53 1.5-3.07 2.2-4.66 0.1-0.26 0.2-0.58 0.3-0.84 0.7-1.91 1.3-3.81 2-5.77 0-0.06 0.1-0.21 0.2-0.32 0.6-2.01 1.4-3.92 2.1-5.93 4.8-16.25 7-34.2 6.3-53.52 4.3-5.35 8.3-10.75 11.8-16.42 30.9 26.48 58.6 42.83 61.4 44.48 7.7 4.44 15.8 8.36 24.1 11.8 92.6 85.02 221.6 166.77 360.4 141.88 2.6 5.14 1.2 8.47 0.6 9.91-7.6 16.94-55.7 31.87-114.8 38.85-3.3 0.37-6.4 0.8-9.7 1.17" fill="#764100"/>
   </g>
   <g transform="matrix(.022071 0 0 -.022071 -761.6 196.84)">
    <path d="m15978 8838.7c41.3 11.54 87.1 13.65 131.8 10.11 22.3 12.22 44.3 24.23 65 35.71 1.4 0.63 2.6 1.38 3.8 2.06 8.5 4.71 16.8 9.26 24.7 13.76 3.7 2.06 7.2 4.07 10.8 6.19 5.4 2.91 10.5 5.87 15.6 8.78 4.5 2.6 8.7 5.14 13 7.57 3.7 2.12 7.2 4.23 10.7 6.3 4.3 2.59 8.4 5.13 12.4 7.56 2.7 1.75 5.4 3.33 7.8 4.92 3.9 2.44 7.3 4.71 10.6 6.93 2 1.33 3.9 2.65 5.7 3.92 2.9 2.01 5.4 3.91 7.7 5.66 0.6 0.48 1.5 1.11 2.1 1.59-0.1 0-0.2-0.06-0.2 0-121.4 17.93-235-47.14-321.5-121.06" fill="#764100"/>
   </g>
   <g transform="matrix(.020699 0 0 -.020699 -761.6 196.84)">
    <path d="m16289 8786.2c-2.8 1.57-5.6 2.7-8.3 5.13-28.6 27.08-39.8 98.39-38.7 107.08-3.2 42.37 0.2 76.49 6.9 104.53 0.6 1.98 0.8 4.18 1.4 6.15 0.6 2.2 1.4 4.06 1.9 6.21 11.8 38.81 30.4 63.92 47.7 79.66-60.8-9.48-150.5-42.48-283.2-117.23-0.6-0.51-10.4-7-25.1-18.73-1.6-1.36-3.6-2.99-5.4-4.46-1.6-1.3-3.3-2.76-4.9-4.12-71.3-59.46-219-211.39-140.2-399.71 27.9 8.81 192.5 61.16 221.2 84.18 10.2 8.12 26 9.81 46 12.01 37.7 4.18 94.4 10.55 159.2 66.35 3.7 25.05 11.2 49.53 21.5 72.95" fill="#764100"/>
   </g>
   <g transform="matrix(.022225 0 0 -.022225 -761.6 196.84)">
    <path d="m16016 8587.2c-34.1-13.35-83.3-33.05-129.8-53.65 12.4-1.78 24.7-4.78 36.8-10.14 78.4-34.99 106-77.34 115.3-106.76 7.2-23.02 5.9-46.35-3.8-62.53-0.1-0.11-0.4-0.26-0.5-0.42 0 0 0.1-0.05 0-0.11 52.6-29.32 122-58.69 170.5-38.72 46.5 19.18 95.7 61.37 93.5 108.61-1.7 36.67-35.8 90.21-188.6 137.08-35.1 10.77-65.8 19.5-93.4 26.64" fill="#764100"/>
   </g>
   <g transform="matrix(.021886 0 0 -.021886 -761.6 196.84)">
    <path d="m16191 8439.4c-56.4-9.49-161.2-15.9-242.4 7.79-1.2-5.22-2.8-10.3-4.3-15.42 4.8-11.2 9.2-22.35 13.3-33.13 65.5-28.76 132.7-58.27 132.7-58.27l112.6-64.61c36.2-23 77.1-49.15 84.9-40.83 6.9 9.66 11.9 120.17-29.8 223.31-0.1 0.27-0.2 0.53-0.3 0.75-0.2-0.11-0.2-0.22-0.4-0.27-16.3-9.55-46.7-16.06-66.3-19.32" fill="#764100"/>
   </g>
   <g transform="matrix(.021459 0 0 -.021459 -761.6 196.84)">
    <path d="m16229 8586.1c-0.8-2.01-1.6-4.08-2.4-6.09-13.2-31.73-30.6-57.19-50-65.46-11.4-4.79-28.6-6.1-46.1 15.01-19 22.81-33.9 43.65-46.1 62.86-6.7-49.2-24.1-102.15-47.2-140.24 20.2-36.84 51.5-79.12 100.9-121.24 47.4-40.32 89.8-51.92 116.3-31.67 37.7 28.57 45.3 122.66-11.2 273.5-1.1 2.89-2.2 5.66-3.3 8.6-0.8 2.18-1.9 4.46-2.7 6.58-1.2 3.16-2.5 6.32-3.7 9.36-0.8-2.28-1.8-4.29-2.6-6.53-0.6-1.57-1.3-3.1-1.9-4.68" fill="#764100"/>
   </g>
   <g transform="matrix(.021075 0 0 -.021075 -761.6 196.84)">
    <path d="m16269 8550.7c-13.6-5.98-34.3-7.87-54.8 16.74-36.6 43.88-60.9 81.89-77 114.92-11.3-13.19-23.1-24.88-34.8-34.63-4.8-3.99-9.6-7.59-14.2-10.92-4.6-3.27-9-6.1-13.3-8.64-10.7-6.43-20.5-10.75-28.1-12.03-3.2-0.55-6.1 0.39-9.1 0.78-7.6-17.12-14-34.85-18.1-52.97-0.8-3.44-1.2-6.93-1.8-10.42-0.7-3.27-1.3-6.48-1.8-9.64-4.3-31.64-1.7-63.84 12.2-95.03 49.3-111.04 93.1-141.24 121.3-146.9 22.5-4.65 39.2 5.66 49.3 15.13 34.2 31.81 101.6 174.49 99.9 258.49-9.4-11.02-19.2-20.33-29.7-24.88" fill="#764100"/>
   </g>
   <g transform="matrix(.021822 0 0 -.021822 -761.6 196.84)">
    <path d="m16294 8569.1c-8.7 27.72-35.1 67.86-111.1 101.73-17.9 7.97-36.5 10.92-55.2 10.75-2.3-1.07-4.5-2.14-6.9-3.21-2.6-1.28-5.3-2.57-8-3.74-2.9-1.45-5.9-2.78-8.8-4.23-0.8-0.38-1.6-0.64-2.4-1.07-1.1-0.59-2.4-1.12-3.5-1.71-9.4-4.5-18.3-9.05-26.4-13.38-23.9-12.79-45.1-19.37-63.9-22.69-3-0.48-5.8-0.91-8.6-1.23-3.1-0.38-5.9-0.32-8.8-0.54-0.9 0-1.7-0.05-2.6-0.1-4.4-3.05-8.8-6.16-13.1-9.21 7.3-10.59 12-25.25 14-43.72 2.4-22.47 0.1-49.39-5.2-76.09 70.1-21.03 164-20.76 239-8.14 29.4 4.93 46.5 10.33 56.7 14.83 2.3 1.07 4.9 2.09 6.4 2.94 0.5 0.32 0.8 0.48 1.3 0.81 1.8 1.06 3 2.14 3.7 2.99 0.1 0.16 0.6 0.43 0.7 0.54 0.1 0.16 0.2 0.42 0.2 0.48 1.2 1.98 2.1 4.39 3 6.9 4.1 11.24 5.7 27.61-0.5 47.09" fill="#764100"/>
   </g>
   <g transform="matrix(.021066 0 0 -.021066 -761.6 196.84)">
    <path d="m16239 9403c-2 0-4 0-6-0.17s-3.9-0.39-6-0.72c-3.9-0.61-8-1.27-12.3-2.49-10-2.83-19.9-7.54-29.3-13.31-2.1-1.27-4.2-2.6-6.3-3.99-2.1-1.38-4.2-2.82-6.2-4.32-7.2-5.27-14.1-10.92-20.6-17.13-1.8-1.61-3.5-3.33-5.2-4.93-1.6-1.72-3.4-3.39-5-5.05-0.5-0.55-1.1-1.05-1.6-1.61-1.9-1.99-3.8-4.16-5.6-6.21-1.9-2.05-3.8-4.1-5.6-6.2-8.2-9.48-15.4-18.79-21.7-27.44 7.5 4.76 14.9 9.25 22.3 13.69 2 1.16 3.9 2.27 5.8 3.38 1.9 1.05 3.8 2.22 5.7 3.22 1.8 1.1 3.7 1.99 5.5 3.04 1.8 0.89 3.7 1.94 5.5 2.89 1.8 0.88 3.7 1.94 5.5 2.82 4.1 2.06 8.1 3.88 12.1 5.6 2.1 0.94 4.1 1.89 6.2 2.66 2.1 0.83 4.1 1.61 6.1 2.33 16.9 6.27 31.1 8.7 39.9 4.6 1-0.44 1.9-1.16 2.9-1.72 1.9-1.11 3.9-2.21 5.7-3.54 2.2-1.67 3.9-3.61 5.7-5.49 4.6-5.1 8.1-11.14 10.6-17.8 18.5 8.54 36.3 13.92 52.9 16.74-1.1 1.22-2.4 2.44-3.4 3.61-4.9 6.26-7.7 11.97-7.1 16.91 0.4 3.43 3.3 7.48 9.4 10.42-11.9 14.74-31.4 30.26-59.9 30.21" fill="#764100"/>
   </g>
   <g transform="matrix(.021155 0 0 -.021155 -761.6 196.84)">
    <path d="m16283 9172.3c9.7 10.6 17.3 23.29 17 28.32-0.3 4.96 0.2 18.6 0.2 18.65v0.06s-1.2 0.33-2.5 0.66l-1.4 0.17-19.6 2.42c-34.5-5.63-61-11.26-58.9-12.53l1.4-1.76c1.9-2.49 3.4-5.47 4.1-8.94 1.7-7.84 6.8-16.23 13-23.91l10.2-12.8c8.7-7.18 26.9-0.94 36.5 9.66" fill="#764100"/>
   </g>
   <g transform="matrix(.021402 0 0 -.021402 -761.6 196.84)">
    <path d="m16262 9111.8c1-0.71 2-1.42 3-2.19 0.6-0.43 1.2-0.87 1.9-1.36 0.9-0.76 1.9-1.58 2.8-2.4 1.6-1.2 3-2.62 4.5-3.93 9.2-7.8 17.9-16.15 26.1-24.99-0.5 14.41-2.9 27.77-6.9 40.11-0.6 2.01-1.2 3.98-2 5.89-0.4 0.93-0.6 2.02-1 2.89-0.4 1.04-0.6 2.02-1.1 3 0 0.06-0.1 0.27-0.1 0.33-0.7 1.69-1.8 3.22-2.6 4.85 0 0.28-0.2 0.55-0.4 0.71-0.8 1.75-1.6 3.44-2.5 5.02-6.5 11.62-14.7 22.26-24.9 31.54-25.6 23.3-59.3 36.12-91.6 42.78-0.5 0.16-1 0.22-1.4 0.33-1.7 0.32-3.4 0.81-5.1 1.09-0.7 0.16-1.4 0.38-2.2 0.49-1.6 0.27-3.2 0.49-4.8 0.82-0.7 0.05-1.4 0.11-2.1 0.22-6 0.87-11.9 1.63-17.5 2.12-2.3 0.22-4.5 0.38-6.7 0.49-2.5 0.11-4.7 0.17-7.2 0.17-13 0.49-24.6 0.16-33.6-1.04-2.3-0.27-4.2-0.71-6.1-1.09-1.9-0.27-4.3-0.55-5.8-1.04-0.1 0-0.1-0.05-0.2 0-2.7-0.81-4.1-1.8-4.3-2.51-0.4-3.49 4.8-9.65 13-16.91 0-0.06 0.1-0.11 0.1-0.11 1.9-1.69 3.7-3.33 5.9-5.18 0.2 0 0.3-0.17 0.4-0.22 1.6-1.37 3.5-2.78 5.3-4.2 0.1-0.06 0.2-0.11 0.3-0.17 0.3-0.27 0.6-0.49 0.9-0.76 1.2-0.87 2.2-1.64 3.4-2.57 1.5-1.14 3.1-2.34 4.8-3.43 1.9-1.42 3.8-2.73 5.8-4.2 1.8-1.2 3.4-2.35 5.2-3.61 1.5-1.03 3.1-2.07 4.7-3.11 9.2-6.05 19-12.27 29.1-18.22 1.2 1.8 2.1 3.71 3.6 5.13 2.6 2.45 6.7 4.91 12.2 5.51 1.9 0.22 4 0.11 6.2-0.22 0.7-0.11 1.4 0 2.2-0.16 1.1-0.27 2.8-0.98 4.1-1.37 7.9-2.4 19-7.2 32.1-14.24 2.2-1.14 4.4-2.45 6.8-3.76 2.4-1.37 4.6-2.46 7.1-3.93 11-6.49 22.6-14.51 34.1-23.19 1.5-1.09 3-2.18 4.5-3.38" fill="#764100"/>
   </g>
   <g transform="matrix(.02098 0 0 -.02098 -761.6 196.84)">
    <path d="m16138 9302.8c-2.3-1.61-4.6-3.23-6.8-4.84-0.2-0.06-0.3-0.22-0.5-0.28-0.7-0.5-1.1-0.89-1.7-1.28-1.3-0.89-2.4-1.78-3.6-2.62-0.3-0.27-0.7-0.5-1.1-0.77-0.3-0.28-0.7-0.51-1-0.78-0.4-0.28-0.7-0.56-1.1-0.78-0.6-0.5-1.3-0.95-2-1.51-0.6-0.44-1.2-0.83-1.7-1.22-1.6-1.17-3.1-2.34-4.7-3.51-1.5-1.11-2.8-2.06-4.2-3.17-1.7-1.34-3.5-2.67-5.2-3.95-1.1-0.84-2.1-1.67-3.1-2.45-0.6-0.45-1.1-0.89-1.6-1.34-1.1-0.83-2.1-1.61-3.1-2.44-0.5-0.4-1.2-0.84-1.7-1.29-1-0.83-2-1.67-2.9-2.39-10.1-8.29-17-14.64-19-17.64-13.8-12.42-20.5-27.22-20.2-45.31 0-1.84 0.8-3.73 0.9-5.62 0.2-1.95 0.7-3.96 0.9-5.9 0.4-2.12 0.6-4.12 1.1-6.24 4.4-19.48 14.5-39.69 27.4-58.61 2.2-3.17 4.6-6.18 6.8-9.29 2.3-3.12 4.5-6.3 6.9-9.36 0.7-0.83 1.3-1.83 2-2.72 7.8-9.8 15.5-18.32 22.9-26.22 1.3-1.39 2.5-2.67 3.7-4.06 1-0.95 1.9-1.9 2.8-2.84 0.1-0.11 0.2-0.22 0.3-0.39 1.5-1.45 3-3.23 4.3-4.56 0.1-0.06 0.3-0.12 0.3-0.28 1-0.95 1.6-1.62 2.6-2.45 0.9-1.01 1.7-1.73 2.6-2.51l1.5-1.5c0.7-0.78 1.5-1.45 2.1-2.06 0.1 0.56 0.2 1.17 0.2 1.78 0.2 0.95 0.3 1.84 0.4 2.84l0.1 0.06c0.1 1.11 0.3 2.05 0.4 3.17 0.1 0.89 0.4 1.78 0.5 2.73 0.1 0.39 0.2 0.77 0.4 1.22 0 0.61 0.2 1.34 0.4 2.01 0.1 0.83 0.3 1.66 0.5 2.55 0.5 2.4 0.9 4.74 1.6 7.19 0.5 2.67 1.5 5.51 2.3 8.29 6.6 23.65 18.5 51.54 38.7 82.16 1.2 1.78 2.3 3.56 3.6 5.34 1.1 1.72 2.3 3.56 3.5 5.34 9.2 12.69 20 25.94 32.3 39.35 1.5 1.56 2.6 3.01 4.1 4.57 1.4 1.45 2.8 2.84 4.2 4.23 3.7 3.9 7.9 7.79 11.9 11.69 1.6 1.5 3 3 4.6 4.5 1.6 1.45 3 3.01 4.7 4.51 5.9 5.4 12.4 10.8 18.9 16.26 1.6 1.33 3 2.67 4.7 4 1.6 1.23 2.8 2.45 4.5 3.79 0.3 0.33 0.7 0.61 1.1 0.89 0.6 0.33 2.6 1.23 4.9 2.28 2.6 1.12 5.7 2.4 9.6 3.73l-0.6 3.68-1.1 5.84-0.9 4.56c-0.2 2.23-0.4 4.46-0.7 6.74-0.3 2.95-0.5 6.01-0.9 8.96-0.2 1.34-0.3 2.78-0.4 4.12-0.4 1.95-0.7 3.95-1.1 5.9-0.1 0.67-0.3 1.22-0.3 1.95-0.2 1.22-0.5 2.39-0.7 3.73-0.1 0-0.1 0.11-0.1 0.16-0.5 2.01-1 4.01-1.5 5.96-0.6 2-1.3 3.84-2 5.73-0.3 0.78-0.6 1.67-0.9 2.45-1.5 3.62-3.3 7.02-5.5 10.02-1.7 2.23-3.5 4.29-5.7 6.07-2.1 1.78-4.5 3.34-7.2 4.56-7.2 3.4-20.4 0.39-36.3-6.23-2.2-0.89-4.2-1.67-6.5-2.67-2.2-1-4.6-2.23-6.9-3.34-2.2-1.06-4.4-2.12-6.7-3.29-1.8-1-3.6-1.95-5.5-2.95-1.8-1-3.6-2-5.5-3.06-2.7-1.5-5.4-2.89-8.1-4.51-1.9-1.11-3.8-2.22-5.8-3.45-1.9-1.11-3.8-2.22-5.8-3.45-13.5-8.24-27.1-17.2-40.2-26.21-1.7-1.17-3.4-2.4-5.1-3.57" fill="#764100"/>
   </g>
   <g transform="matrix(.021213 0 0 -.021213 -761.6 196.84)">
    <path d="m16157 8864.2c1.8-0.11 3.4-0.44 5.2-0.55 2.6-0.17 5-0.5 7.4-0.77 26.3-3.08 43.5-10.24 44.4-10.74 0.8-0.11 1.3-0.6 2-0.77 2.2 27.58 13.7 40.74 14.9 41.9l0.4 0.49 0.6 0.39c12 7.87 23.7 13.32 35 17.67 3.3 1.32 6.4 2.09 9.6 3.19 2.9 0.88 5.9 2.09 8.7 2.86 5.2 1.32 10 2.15 14.9 2.92-1.3 1.43-2.6 2.53-3.9 4.13-17.6 21.96-32.8 56.48-42.6 91.6-0.6 1.98-1.2 3.91-1.7 5.95-0.6 2.03-0.9 4.12-1.3 6.22-2.4 9.63-4.6 19.32-5.9 28.62-0.8 5.34-1.5 11.67-1.9 18.39-0.2 2.26-0.2 4.68-0.2 6.94-0.1 2.42-0.2 4.78-0.1 7.15 0 1.49 0.1 3.03 0.2 4.57 0.2 3.36 0.4 6.66 0.8 10.02 0.6 4.4 1.4 8.75 2.5 12.88 2.4 8.86 6 16.96 11.8 22.9-0.3 0.94-0.5 2.53-0.7 4.13-19.3-21.19-38.7-42.44-38.7-42.44l-4.3 3.25c-1.6 1.26-41.4 31.81-47.4 60-0.6 3.02-2 4.95-4.4 6.16-2.4 1.11-5.4 1.49-8.8 1.38-2.6-0.06-5.5-0.55-8.5-1.16-0.5-0.05-0.9-0.11-1.3-0.16-0.7-0.17-1.3-0.11-2-0.28-2.1-0.55-4.2-1.21-6.3-1.92-1.6-0.44-3.2-0.88-4.7-1.38-0.4-0.17-0.8-0.28-1.1-0.44-3.4-1.16-6.5-2.53-9-3.63 0-0.06-0.1-0.06-0.1-0.06-1.6-1.26-2.8-2.48-4.3-3.63-1.6-1.32-3-2.59-4.6-3.91-0.7-0.6-1.3-1.15-2-1.71-4.4-3.74-9.1-7.54-13.2-11.28-0.9-0.77-1.9-1.6-2.7-2.37-1.4-1.32-2.5-2.53-3.9-3.74-3.8-3.58-7.3-7.05-10.7-10.52-2.3-2.25-4.9-4.51-7.1-6.71-1.3-1.43-2.5-2.92-3.9-4.35-1.4-1.54-2.7-3.08-4.1-4.57-12.7-13.93-23.5-27.52-32.6-40.74-1.2-1.7-2.4-3.47-3.5-5.23-1.2-1.76-2.4-3.52-3.5-5.28-21.6-33.8-32.4-64.08-37.5-87.81-0.1-0.55-0.3-1.21-0.4-1.81-0.3-1.32-0.4-2.53-0.7-3.85-0.1-0.72-0.3-1.44-0.4-2.15-0.2-1.1-0.4-2.37-0.6-3.41-0.1-0.83-0.4-1.77-0.4-2.48-0.7-3.91-1.1-7.43-1.4-10.85-0.2-2.69-0.3-5.17-0.4-7.48-0.2-2.81-0.3-5.29-0.2-7.54-0.1-1.55-0.1-3.09 0-4.35 5.8 3.13 12.1 5.17 19.4 4.95 13.6-0.44 28-7.04 41.5-15.52 1.8-1.16 3.8-2.26 5.6-3.53 1.9-1.32 3.7-2.75 5.6-4.12 21.5-15.92 38.6-34.69 40.5-37.49 1.1-4.9 1.5-9.58 2.2-14.37 22.3 5.78 42.6 7.27 59.8 6.44" fill="#764100"/>
   </g>
   <g transform="matrix(.021405 0 0 -.021405 -761.6 196.84)">
    <path d="m16231 8939.6c0.1 0.44 0.3 0.93 0.6 1.42 0.7 1.48 1.5 2.95 2.2 4.37 0.6 1.31 1.4 2.61 2.1 3.81l1.8 3.12c0.7 1.3 1.4 2.61 2.2 3.92 0.2 0.28 0.3 0.49 0.4 0.77 1.1 1.74 1.9 3.49 3 5.23 10.5 16.37 23.1 31.54 36.2 45.23 2.5 2.68 5 5.24 7.5 7.69 2.3 2.35 4.8 4.48 7.1 6.72 2.1 2.01 4.2 4.09 6.3 6-1.4 2.18-3.2 4.25-4.7 6.43-1.7 2.51-3.5 5.08-5.4 7.59-1.8 2.24-3.2 4.58-5.1 6.82-10.4 12.55-22.7 24.22-35.6 34.97-1.6 1.31-3.2 2.62-4.7 3.93-0.4 0.27-0.7 0.43-1.1 0.7-1.3 1.1-2.7 2.02-4 3.12-0.2 0.1-0.4 0.27-0.7 0.43-1.4 1.2-3 2.29-4.5 3.44-9.4 6.93-18.6 13.47-27.7 18.98-1.7 1.1-3.4 2.19-5.1 3.28-1.8 0.98-3.5 1.8-5.2 2.89-11.7 6.71-22.3 11.89-30.6 15.11-2.5 0.87-4.7 1.64-6.7 2.24-1 0.27-2.4 0.82-3.3 1.09-1.3 0.27-2.1-0.06-3.1-0.06-3.4 0-5.7-0.92-7-2.12-0.6-0.6-1-1.64-1.6-2.46-1-1.47-1.9-3.22-2.6-5.24-0.6-1.74-1.2-3.49-1.6-5.62v-0.1c-0.4-1.64-0.6-3.39-0.9-5.24v-0.22c-0.2-1.96-0.4-3.93-0.5-6.05-0.1-0.39-0.1-0.71-0.1-1.1-0.2-3.81-0.3-7.8-0.2-11.94 0.1-1.2 0.1-2.4 0.1-3.71 0.1-1.42 0.2-2.95 0.3-4.48 0.1-0.71 0.1-1.47 0.2-2.24 0.1-1.96 0.2-3.81 0.5-5.67 0.3-3.82 0.8-7.36 1.3-10.69 0.2-1.64 0.5-3.33 0.7-4.69l0.7-3.44-2.7-2.18c-5.5-4.42-9.1-12.6-11.2-23.08-0.7-3.66-1.2-7.8-1.5-12.06-0.2-2.51-0.4-5.07-0.4-7.85-0.1-2.51-0.3-4.81-0.2-7.48 0.2-7.58 0.8-15.6 2.2-24.38 1-7.64 2.5-15.39 4.2-23.03 0.4-2.02 1.1-4.04 1.5-6.16 0.5-1.97 1.2-3.93 1.6-5.9 10.9-41.19 29-78.45 47.3-97.11 0.9-0.81 1.7-1.85 2.6-2.67 2 0.11 3.9 0.11 5.9 0.17 5 0.1 10 0.21 14.6-0.06 6.1-0.38 11.6-1.09 16.8-1.91-2.4 1.69-3.8 2.95-4.2 3.27l-1.5 1.42-0.3 1.42v0.55c-0.4 1.91-0.2 3.71-0.4 5.62-0.2 1.96-0.3 3.98-0.3 6-1.4 23.24 3.5 45.55 12.7 66.34 0.7 1.64 1.3 3.22 2.1 4.85" fill="#764100"/>
   </g>
   <g transform="matrix(.020926 0 0 -.020926 -761.6 196.84)">
    <path d="m16110 8919.2c-0.5-1.95-1.1-4.02-1.6-6.02-7-27.13-10.5-60.94-7.4-103.07-0.9-7.54 9.7-73.55 34.6-96.99 1.6-1.62 3.3-2.18 4.9-3.24 1.8-1.12 3.7-2.51 5.5-3.01 2.2-0.73 4.4-0.78 6.7-0.62 0.8 0 1.5-0.33 2.2-0.22 10.8 1.84 29 11.61 48.8 27.85 5 4.01 9.9 8.53 15 13.33 5.7 5.3 11.2 11.11 16.7 17.3 2.3 2.63 4.5 5.25 6.8 7.93-0.4 0.95-0.7 1.84-1.1 2.73-1.2 2.74-2 5.19-3.1 7.81-1.1 2.46-2 4.92-3 7.32-3.3 8.98-6.2 17.46-8.3 25.5-0.6 2.34-1.4 4.8-1.9 7.19-0.7 2.63-1 5.08-1.5 7.65-13.1 66.91 14.6 98.05 16.6 100.17l0.5 0.44 0.5 0.4c9.6 6.41 19 10.99 28.2 15.51 1 0.56 2.1 1.34 3.2 1.79 0.7 0.39 1.4 0.89 2.1 1.22 1.4 0.67 2.9 1.45 4.2 2.07 0.6 0.22 1 0.28 1.5 0.5 2.6 1.12 5 1.62 7.5 2.62 4.2 1.62 8.4 3.07 12.6 4.41-0.7 4.3-1 8.48-2 12.95-0.2 0.28-14.8 16.18-33.8 30.8-1.6 1.34-3.3 2.63-5.1 3.85-1.7 1.34-3.5 2.57-5.4 3.8-13.1 8.87-27.4 16.01-40.3 16.35-5.8 0.28-10.6-1.51-15.1-4.24-1.8-1.06-3.6-1.84-5.2-3.35l-1-1.01-0.5-0.16-1-0.28c-0.3-0.17-1.6-0.56-3.2-1.23-2.1-0.84-5-2.06-8.7-4.02-2.8-1.56-6.2-3.57-9.8-6.02-18-12.17-42.6-36.39-57.1-81.93-0.7-2-1.4-3.96-2-6.08" fill="#764100"/>
   </g>
   <g transform="matrix(.022073 0 0 -.022073 -761.6 196.84)">
    <path d="m16087 8821.6c-3.4 0.32-6.8 0.58-10.3 0.79-3.6 0.27-7.2 0.37-10.8 0.53-47.3 2.12-94.9-2.96-136.1-19.68-6.2-2.54-12.1-5.5-18-8.57-2.3-1.21-4.7-2.17-6.9-3.38-0.3-0.16-4.9-2.97-11.8-7.57-11.5-7.56-29.7-20.47-49.5-37.67-1.3-1.21-2.7-2.38-4.1-3.7-1.5-1.27-2.9-2.7-4.4-4.02-5.5-5.18-11-10.48-16.3-16.08-2.6-2.65-5.1-5.19-7.5-7.94-3.4-3.75-6.7-7.67-9.9-11.64-5.2-6.34-10.2-12.85-14.8-19.68-1.4-2.06-2.4-4.18-3.7-6.24-1-1.69-2-3.39-3-5.08-2-3.38-3.9-6.82-5.6-10.26-0.2-0.21-0.2-0.43-0.3-0.58-0.8-1.75-1.6-3.55-2.4-5.35-0.4-0.84-0.9-1.74-1.2-2.59-0.3-0.74-0.7-1.43-1-2.12-1.1-2.8-2.1-5.55-3.2-8.41-1-3.17-1.9-6.24-2.8-9.47 1.3 0.69 2.4 1.38 3.7 2.12 1.8 1.11 3.4 1.96 5.3 3.07 1.6 0.84 3.4 1.74 4.9 2.59 1.7 1 3.6 1.96 5.4 2.96 0.6 0.32 1.3 0.64 1.8 1.01 2.3 1.11 4.4 2.27 6.6 3.49 0.1 0 0.2 0.05 0.2 0.05 9.1 4.76 18.6 9.58 28.4 14.07 3.7 1.8 7.5 3.28 11.3 5.03 2.2 0.9 4.3 1.8 6.6 2.75 2.3 1.01 4.7 2.22 7.1 3.12 2.2 0.9 4.3 1.64 6.6 2.49 8.6 3.33 17.3 6.24 25.8 8.78 7.7 2.27 15.4 4.18 22.7 5.55 8.1 1.38 15.7 2.12 22.9 2.12 6.1 0 12-0.32 17.3-1.64 20.6-5.02 64.2-6.03 118.7-3.33 6.8 0.32 13.9 0.69 21.2 1.16 6.1 0.37 12.5 0.8 18.9 1.27 12.7 0.95 25.7 2.01 39.1 3.34 68.2 26.13 130 47.87 158.5 55.76 0 0 3.6 1.69 3.7 1.48 0.1 0.05 0 1-1.6 3.01-2.4 2.96-7.8 7.94-20.6 15.13-38.6 21.85-112.8 46.51-190.9 53.33" fill="#764100"/>
   </g>
   <g transform="matrix(.021803 0 0 -.021803 -761.6 196.84)">
    <path d="m16012 8664.6c1.5-0.1 3.3 0.11 4.9 0.11 0.8 0 1.9 0.21 2.8 0.21 2.7 0.11 5.6 0.38 8.5 0.65 0.4 0 0.8 0 1.3 0.05 2.5 0.27 4.8 0.16 7.5 0.59 0.5 0.05 0.8 0.05 1.3 0.11 1.9 0.27 4.3 1.18 6.3 1.6 6.3 1.29 12.6 2.74 19.4 4.99 1.3 0.37 2.3 0.58 3.7 0.96 10.3 3.64 21.3 8.3 32.9 14.57 6.2 3.27 12.9 6.69 19.8 10.12 0.6 0.27 1.1 0.59 1.8 0.91 1.6 0.8 3.5 1.77 5.4 2.57 0.4 0.27 0.8 0.43 1.2 0.65l0.2 0.05c2.6 1.28 5.4 2.62 8.1 3.91 2.7 1.28 5.3 2.52 8.1 3.86 0.4 0.21 0.8 0.37 1.3 0.64 3.8 1.71 7.8 3.53 11.6 5.3 0.7 0.32 1.4 0.64 2.1 0.91 3.3 1.55 6.5 3 9.9 4.55 4.8 2.15 9.6 4.29 14.4 6.38 4.4 1.87 8.7 3.8 13.2 5.68 2.8 1.28 5.8 2.46 8.6 3.69 25.9 11.09 53.3 22.23 80.6 33.1 3.5 1.4 7.5 3.05 10.8 4.34 0.7 0.27 1.3 0.53 1.9 0.75h-0.3c-1.1-0.11-2.3-0.16-3.4-0.32-64.1-4.66-131.3-6.43-162.4 1.23-15 3.64-35.1 0.54-56.4-5.57-6.5-1.82-12.8-3.75-19.5-6.16-5.3-1.87-10.7-3.8-16-5.89-1.4-0.64-2.8-1.23-4.2-1.77-0.7-0.27-1.4-0.64-2.1-0.96-2.6-1.07-5.1-2.2-7.6-3.32-20.5-8.9-39.9-18.54-55.2-26.46-1.7-0.97-3.2-1.66-4.8-2.57-2-1.02-3.6-1.83-5.4-2.84-2.5-1.34-5.4-2.84-7.6-3.91-0.2-0.16-0.6-0.38-0.8-0.54 0 0-0.1-2.73-0.2-6.26-0.1-4.61-0.3-10.29-0.6-15.59 0.1 0 0-0.11 0.1-0.16-0.1-2.41-0.3-4.39-0.5-6.11-0.2-2.25-0.5-4.28-0.9-4.23 0.2-0.21 1.3-0.96 1.9-1.55 0.9-0.7 2-1.34 3.6-2.36 0.8-0.53 1.8-1.12 2.8-1.77 0.3-0.16 0.5-0.21 0.7-0.43 1-0.64 2-1.17 3.2-1.87 0.4-0.16 1-0.32 1.3-0.59 1.3-0.64 2.9-1.23 4.3-1.87 0.7-0.32 1.3-0.59 2-0.97 1.1-0.43 1.9-0.91 3-1.34 0.3-0.1 0.6-0.26 1-0.37 0.9-0.37 2.3-0.59 3.2-0.96 1.9-0.65 4-1.08 6-1.72 7.8-2.14 16.6-3.8 27.2-4.02" fill="#764100"/>
   </g>
   <g transform="matrix(.021381 0 0 -.021381 -761.6 196.84)">
    <path d="m16144 8710c1.8-14.36 1.4-30.8 0.1-47.84 11.2-19.34 25.5-40.58 44.5-64.23 2.7-3.61 5.8-7.21 8.9-10.92 10.6-12.78 21.3-16.66 32.7-11.86 15.9 6.72 31.5 30.15 43.9 59.86 0.9 1.92 1.7 3.94 2.4 6.01 0.7 1.64 1.4 3.11 1.9 4.7 2.3 6.33 4.4 12.78 6.3 19.5 0.9 2.67 1.7 5.46 2.5 8.19 0.8 3.11 1.7 6.12 2.6 9.28 0.1 0.77 0.2 1.59 0.4 2.3 0.5 2.02 0.8 4.04 1.2 5.95 0.3 1.86 0.7 3.77 1 5.68 5 25.23 7.3 50.74 5 72.91-1.4 13-4.9 27.75-12.4 38.72-0.6 0.88-1 1.92-1.6 2.74-0.7 0.71-1.5 1.2-2.2 1.96-1.4 1.42-2.9 2.79-4.5 4.04-4 3.06-8.5 5.63-14 6.78-0.1 0.11-4.3 1.96-11.3 4.09-2.6 0.88-6.2 1.69-9.8 2.51-0.2 0.11-0.4 0.06-0.5 0.17-2.3 0.49-4.4 0.98-7 1.42-2.6 0.49-5.5 0.76-8.5 1.09-7.2 0.93-15 1.37-23.7 1.15-3-0.16-6.2-0.44-9.4-0.71-1.5-0.22-3-0.49-4.6-0.71-1.4-0.11-2.8-0.39-4.4-0.66-3-0.43-5.9-0.54-9.1-1.25-0.8-0.17-1.5-0.44-2.2-0.6-1.8-0.39-3.9-1.31-5.7-1.81-3.7-1.03-7.5-2.24-11.3-3.66-11.2-3.98-22.6-9.06-34.3-16.65-1.3-1.59-10.1-13.33-11.2-37.31 1.1-0.65 2.5-0.71 3.6-1.31 2-1.25 3.5-3.17 5.3-4.59 1.6-1.31 3.1-2.73 4.5-4.31 0.1-0.11 0.2-0.16 0.4-0.27 2.6-2.84 5-5.96 7.3-9.56 3.7-6.17 6.7-13.55 9-22.01 1.2-4.37 2.3-8.96 3.2-13.98 0.2-1.7 0.8-3.06 1-4.81" fill="#764100"/>
   </g>
   <g transform="matrix(.021152 0 0 -.021152 -761.6 196.84)">
    <path d="m16251 8593.9c1.1 1.94 2.2 4.03 3.4 6.13 22.3 40.19 39.5 95.79 44.2 146.03 0.3 3.42 0.9 6.95 1.1 10.32 0.2 4.2 0.2 8.17 0.3 12.26 0.1 9.44 0.1 18.77-1.1 27.22-1.8 14.18-5.9 30.47-15.1 42.01-2 2.48-4.6 4.31-7 6.24-0.3 0.22-0.4 0.44-0.7 0.61-1.7 1.38-3.4 2.53-5.4 3.53-0.2 0.22-0.6 0.22-0.8 0.38-1.9 0.94-3.9 1.61-6.1 2.21-0.9 0.28-1.6 0.72-2.5 0.94-1 0.17-1.7 0.78-2.6 1-0.5 0.11-19.1 8.06-47.7 10.32-2.4 0.16-4.5 0.5-7.1 0.61-1.9 0.05-4.1-0.17-6.1-0.11-15.1 0.16-32.1-1.27-50.8-6.24-1.9-0.39-3.9-1.33-5.6-1.82-1.1-0.33-2.2-0.78-3.2-1.05-0.6-0.28-1.3-0.5-1.9-0.72-2.4-0.77-4.8-1.55-7.2-2.43-2.5-0.94-4.9-1.55-7.4-2.54-1.7-0.66-3.3-1.05-5-1.77-1.8-0.77-3.8-2.26-5.6-3.09s-3.7-2.04-5.5-2.98c-7.6-3.81-15-7.29-22.6-12.42-1.8-1.99-21.9-26.72-14.4-79.06 0.3-2.37 1.1-4.97 1.5-7.51 0.4-2.43 0.8-4.86 1.5-7.4 1.4-6.51 3.2-13.41 5.6-20.7 0.9-2.54 1.8-5.24 2.8-7.89 1-2.6 2-5.36 3.1-7.95 0.9-2.21 1.6-4.37 2.6-6.57 0.8-2.1 1.6-4.14 2.6-6.19 0.8-2.04 2-4.14 2.9-6.13 14-29.75 35-64.15 66.8-103.9 3.4-4.25 6.9-8.61 10.5-12.97 12.9-15.46 26.3-19.77 40.9-13.42 11.1 4.86 22.2 16.34 32.8 31.31 1.6 2.32 3.2 4.25 4.7 6.62 0.1 0.06 0.1 0.11 0.1 0.22 1.4 1.99 2.5 4.42 3.7 6.52 0.2 0.16 0.1 0.22 0.3 0.38" fill="#764100"/>
   </g>
   <g transform="matrix(.021148 0 0 -.021148 -761.6 196.84)">
    <path d="m16189 9268.8s5.8-39.81 14.6-43.9c8.9-4.03 47.1 33.91 96 19.16-4.3 7.73-33.7 39.87-47 40.31-13.4 0.5-35.6-4.31-63.6-15.57" fill="#764100"/>
   </g>
   <g transform="matrix(.023405 0 0 -.023405 -761.6 196.84)">
    <path d="m16021 6704.7c41.3 136.36 158.5 163.9 218.6 117.1 60.3-46.9-174.9-93.65-201.6-257.4-26.6-163.74-0.6-202.51 39.7-277.75 0 0-235.2 225.82-113.3 458.07 0 0 52.8 84.22 56.6-40.02" fill="#030"/>
   </g>
   <g transform="matrix(.021414 0 0 -.021414 -761.6 196.84)">
    <path d="m16300 7811.2s-134.6 125.27-318.6-90.41c-103.9-121.83-176.5-60.54-152.4-10.09 24.2 50.44-151.1-85.13-73.9 81.25s472.1 183.07 544.9 19.25" fill="#030"/>
   </g>
   <g transform="matrix(.022378 0 0 -.022378 -761.6 196.84)">
    <path d="m15981 7134.8s-43.2 209.63 138.1 220.74c181.3 11.01-36.6 103.85-64.1 56.73-27.4-47.18 76.2 118.35-57.9 79.84-134.2-38.51-119.4-280.18-16.1-357.31" fill="#030"/>
   </g>
   <g transform="matrix(.022519 0 0 -.022519 -761.6 196.84)">
    <path d="m15642 6356.2c11.7 87.12 59 235.79 232.2 389.6 0 0-216.3-124.2-265.8-370.42-167 27.69-51.8 248.92-51.8 248.92 250.6 379.95 743.8 175.48 743.8 175.48-561.3 45.94-449.6-483.1-559.1-558.08-90.4-61.92-99 67.52-99.3 114.5" fill="#030"/>
   </g>
   <g transform="matrix(.023612 0 0 -.023612 -761.6 196.84)">
    <path d="m16300 5824.4c-46.1 63.01-96.5 124.43-150.8 183.93-201.3 220.42-456.8 414.98-749.9 570.03-729.7 385.8-723.8 936.69-723.7 942.18l-5.6-0.25v-3.06l-4.1-0.25v-2.57l-3.4-0.15c0-0.25-0.1-1.38 0-3.07l-4.1-0.19c-0.1-5.59-6.4-559.55 726.3-946.88 289.8-153.32 542.6-345.26 742.6-562.56 56.4-61.38 108.7-124.78 156.3-189.92l16.4 12.76" fill="#030"/>
    <path d="m16300 5824.4c-46.1 63.01-96.5 124.43-150.8 183.93-201.3 220.42-456.8 414.98-749.9 570.03-729.7 385.8-723.8 936.69-723.7 942.18l-5.6-0.25v-3.06l-4.1-0.25v-2.57l-3.4-0.15c0-0.25-0.1-1.38 0-3.07l-4.1-0.19c-0.1-5.59-6.4-559.55 726.3-946.88 289.8-153.32 542.6-345.26 742.6-562.56 56.4-61.38 108.7-124.78 156.3-189.92z" fill="none" stroke="#030" stroke-miterlimit="10" stroke-width="36.963"/>
   </g>
   <g transform="matrix(.024411 0 0 -.024411 -761.6 196.84)">
    <path d="m16213 7508c-0.4-0.1-0.8-0.1-1.3-0.1-11.6 0.29-34.4 8.47-60.5 19.71 19.3 6.08 35.7 11.63 40.5 21.15l0.6 10.95c-3 8.47-18.7 33.15-42.7 58.6-1.8 1.87-3.5 3.78-5.4 5.7-1.9 1.96-4 3.92-6 5.83-14.8 14.11-31.8 27.75-50.7 38.37l26.2 1.91c49.9 6.31 97.5-36.88 132.1-80.99 1.8-2.25 3.6-4.5 5.3-6.69 1.7-2.21 3.1-4.36 4.7-6.61 24.4-33.63 40.6-65.01 43.1-72.28 0.5-1.58 0.7-2.68 0.4-3.11-1-1.1-3.7-1.53-7.5-1.48-7.3 0.14-18.8 2.05-28.6 3.78 0 0-50.1 5.21-50.2 5.26" fill="#600"/>
   </g>
   <g transform="matrix(.024215 0 0 -.024215 -761.6 196.84)">
    <path d="m16166 7741.2c2-0.58 3.9-1.2 5.9-1.97 0.6-0.15 1.2-0.44 1.8-0.68 2.4-0.82 4.7-1.69 7-2.75 2.3-0.92 4.6-1.88 6.8-2.94 17.9-8.44 34.4-20.16 49-32.79 2.2-1.93 4.5-3.86 6.6-5.84 2.1-1.93 4.1-3.86 6.1-5.88 28.5-27.92 47.4-57.15 50.6-66.36l-0.1-5.06c-3.7-7.38-22.2-13.07-40.1-18.62l-4.2-1.59-4.9-1.88-5.1-1.93-29.4-11.23c-2.2-1.31-5.3-1.88-9.1-1.74-7.8 0.1-18.9 3.13-31.7 7.67-37.2 32.02-76.2 58.01-104.8 75.42 12.5 1.45 24.4 4.34 34.5 9.4 1.2 0.49 2.3 1.21 3.4 1.79 1.2 0.72 2.3 1.4 3.4 2.12 0.8 0.63 1.8 1.01 2.6 1.69 10.9 8.2 17.1 19.43 17.8 32.41 0.8 2.21 1.4 9.16 1.7 18.76v2.89c0 0.34 0 0.58 0.1 0.91-0.1 0.2 0 0.39 0 0.63v2.36 0.82 1.79 1.2 5.12 1.59c7.7-0.19 15.3-1.35 22.8-2.99 3.2-0.63 6.3-1.45 9.3-2.32" fill="#600"/>
   </g>
   <g transform="matrix(.023962 0 0 -.023962 -761.6 196.84)">
    <path d="m16297 7559.7c2.7-16.04 0.6-30.95-9.1-43.04-21.7-27.19-45.3-41.71-66.1-41.33-3.4 0.05-6.9 0.49-10.2 1.42-0.9 0.19-1.8 0.73-2.7 1.12 0.3 14.38-0.2 23.64-0.3 24.07v0.25c-13.6 94.74-33.5 162.63-58.5 201.62-0.5 6.28-1.5 10.96-2.3 13.59 2.3 1.46 6.1 4.15 10.9 8.24 3.9-0.73 9.1-1.46 15.2-2.24 6.5-9.41 17.6-21.93 33.1-39.28 30.8-34.46 71-79.68 90-124.42" fill="#600"/>
   </g>
   <g transform="matrix(.024188 0 0 -.024188 -761.6 196.84)">
    <path d="m16160 7483.7c-1.9 8.02-4.8 16.13-8.3 24.19-2.8 6.76-6.1 13.52-9.8 20.18-6.8 12.41-14.8 24.77-23.5 36.74-18.4 25.25-39.5 48.86-57.4 68.94-5.5 6.09-11.3 12.65-16.8 19.07-2.2 2.51-4.3 5.07-6.3 7.53-1.8 2.18-3.4 4.16-4.9 6.09 0.8 0 1.7-0.15 2.6-0.2 0.1-0.04 0.2 0 0.2 0 2-0.14 4-0.29 6.1-0.48 0.6 0 1.2 0 1.9-0.05 8.3-0.48 17.3-0.67 26.2-0.24 24.1-14.38 58.6-36.59 93.6-64.45 3.6-2.85 7.2-5.7 10.9-8.74 2.8-2.36 5.7-4.83 8.5-7.24 48.7-41.86 94.2-93.61 107.4-148.94 9.3-38.67 1.4-75.65-22.5-110.12-14.5 9.94-85.4 63.05-107.9 157.72" fill="#600"/>
   </g>
   <g transform="matrix(.02434 0 0 -.02434 -761.6 196.84)">
    <path d="m16166 7740.2c-2.4-0.96-4.3-1.68-5.5-2.11-0.9-0.29-1.6-0.53-1.7-0.53-1.9-0.67-3.7-1.01-5.6-1.59-31.3-9.21-57-13-77-12.66-11 0.24-19.8 1.87-27.7 4.03 0 2.21-0.1 4.36-0.2 6.67 0 1.15-0.1 2.44-0.2 3.69 0.3 0.82 0.6 1.49 1 2.4 0.6 1.87 1.4 4.03 2.1 6.28 3.5 10.51 7.5 24.28 10 39.35 0.2 1.68 0.6 3.36 0.8 5.03 0.2 1.4 0.4 2.88 0.5 4.28 6.1 2.73 12.6 5.94 19.3 9.54 13.9 7.39 28.4 16.27 42.2 26.82 3.1 2.31 6.3 4.75 9.3 7.25 24.5 20.77 44.6 47.06 50.5 79.16 36.2 22.79 67.5 35.94 86.7 31.14 8.5-2.11 14.3-7.87 17.5-17.32 11.6-34.35 10.1-66.64-4.6-96.01-2.1-4.27-4.4-8.3-7-12.37-0.7-1.11-1.6-2.21-2.3-3.22-0.7-0.96-1.4-2.01-2.1-3.07-31.8-44.09-86.6-69.04-106-76.76" fill="#600"/>
   </g>
   <g transform="matrix(.024159 0 0 -.024159 -761.6 196.84)">
    <path d="m16298 7996.2c-0.3-1.55-0.3-3.24-0.6-4.74-0.4-1.93-1.1-3.67-1.6-5.55-14.2-52.55-70.2-88.36-112-108.47 0.5 6.76 0.5 13.43 0 20.01-0.2 1.59-0.3 3.14-0.5 4.69-0.2 1.49-0.4 2.99-0.6 4.54-1 5.85-2.4 11.55-4.6 16.97-1.4 3.48-3.3 6.04-5 8.89-0.7 1.11-1.3 2.42-1.9 3.43-0.8 1.02-1.2 2.47-2 3.43-13.6 17.7-33.3 21.23-47.7 21.03-3.6 6.91-9.8 16.05-18.4 25.86 1.2 4.06 2.5 8.07 3.9 11.99 28.4 9.09 69 29.24 93.6 72.75 0.6 1.16 1.1 2.51 1.8 3.62 0.6 1.26 1.2 2.66 1.9 4.01 6 12.18 10.7 26.11 13.7 42.01 27.1 15.03 49 21.75 53.2 21.99 3.5-0.67 18.2-16.09 25-66.7 0.1-1.26 0.3-2.56 0.4-3.92 0.1-0.96 0.3-2.22 0.4-3.24 0.9-8.26 1.6-17.45 2-27.5 0.1-1.45 0.1-3 0.2-4.5 0-1.54 0.1-3.04 0.1-4.59 0.2-7.35 0.2-14.89 0.1-23.1-0.1-4.4-0.8-8.66-1.4-12.91" fill="#600"/>
   </g>
   <g transform="matrix(.02403 0 0 -.02403 -761.6 196.84)">
    <path d="m16291 8177.1c-0.4-1.94-0.8-3.59-1.2-5.39-0.4-1.7-0.6-3.4-1-5.11-3.3-14.14-7.9-26.63-13.6-37.56-0.7-1.31-1.3-2.77-2-3.98-0.7-1.32-1.5-2.48-2.3-3.79-21.9-36.21-55.3-54.58-81.1-63.62-1.7-0.58-3.4-1.26-5.1-1.75-1.6-0.58-3.1-0.97-4.7-1.45-4.5-1.27-8.6-2.34-12.2-3.16-0.6 0.58-1.3 1.07-1.9 1.6-1.1 1.12-2.4 1.95-3.5 3.01-1.2 0.98-2.3 1.9-3.4 2.82-16.7 13.75-36.9 25.56-59 29.45-7.3 1.27-14.4 1.6-21.5 1.12 7.6 9.67 15.5 26.19 24.1 50.49l0.1 0.63c0.4 2.28 4.2 24.74 5.4 55.4 21.7 24.49 52.6 43.06 96.4 48.21 39.5 4.66 66.3-1.17 79.7-17.3 15.6-18.52 7.7-45.34 7.5-46.07-0.3-1.31-0.6-2.38-0.7-3.55" fill="#600"/>
   </g>
   <g transform="matrix(.023732 0 0 -.023732 -761.6 196.84)">
    <path d="m16298 8312.8c-0.1-2.41-0.2-4.58-0.3-6.79-1.6-25-4.4-42.52-4.6-43.75-9.4-26.27-16.8-40.39-22.3-47.97 0.7 12.4 1.3 26.42 1.5 41.48 0.1 3.84 0.1 7.82 0.1 11.81 0 3.49 0.1 6.94 0 10.43-0.5 56.64-6.7 119.13-27.8 148.21-10.3 14.37-23.6 30.02-37.5 44.53-3.1 19.49-5.2 33.42-5.6 36.07 26.2-4.23 47.9-16.19 63.5-37.1 30.3-40.45 34.8-103.97 33.3-150.08-0.1-2.36-0.2-4.67-0.3-6.84" fill="#600"/>
   </g>
   <g transform="matrix(.023672 0 0 -.023672 -761.6 196.84)">
    <path d="m16239 8472.3c1.5-1.62 3.1-3.2 4.6-4.93 10.2-11.1 20.2-23.28 29.3-35.81 22.5-31.23 27.2-104.98 26.4-165.17-0.1-5.23-0.2-10.41-0.4-15.39-0.3-10.56-0.8-20.27-1.3-29.1-0.2-1.98-0.3-4-0.4-5.68 0 0-0.1 0-0.2-0.05-1.1-0.29-2.3-0.49-3.5-0.74-0.2-0.09-0.4-0.19-0.5-0.24-1.3-0.35-2.7-0.84-4-1.28l-0.2-0.1c-1.4-0.45-2.8-0.84-4.1-1.34-11-4.09-21.6-10.5-31.8-18.94-4.7 0.05-9.4-0.1-13.9-0.44 1.4 27.92-1.3 49.72-1.6 51.94-0.8 6.12-2.1 12.19-3.7 18.16 7.5 86.08-2.1 190.52-73.8 255.68 1.6 3.56 4 4.15 5 4.39 12.5 3.01 40.8-16.92 69.4-46.17 1.6-1.53 3.1-3.11 4.7-4.79" fill="#600"/>
   </g>
   <g transform="matrix(.023552 0 0 -.023552 -761.6 196.84)">
    <path d="m16296 8334.3c-11.1 27.52-29.3 53.4-50 76.46-2.8 17.3-5.5 34.36-7.9 50.57-0.2 0.99-0.4 1.99-0.5 2.98-1 6.59-2 13.09-2.9 19.24-0.4 2.92-0.8 5.8-1.2 8.62-0.6 4.12-1.2 8.18-1.7 12.2-0.5 3.52-0.9 6.99-1.4 10.36-0.3 2.83-0.7 5.65-1 8.43-0.4 3.52-0.8 6.79-1.1 10.02-0.2 2.23-0.4 4.36-0.6 6.34-0.3 3.18-0.5 6-0.7 8.73-0.1 1.64-0.2 3.27-0.3 4.76-0.1 2.53-0.1 4.61-0.1 6.59v1.89-0.15c61.1-58.9 73.4-148.45 69.4-227.04" fill="#600"/>
   </g>
   <g transform="matrix(.023799 0 0 -.023799 -761.6 196.84)">
    <path d="m16096 7617.8c1.9-0.73 3.6-1.76 5.9-2.11 24.9-4.02 65.5 18.31 69.5 22.18 22.8 15.02 38.9 30.03 50.4 44.46 0.8 1.03 1.8 2.06 2.6 3.09 0.8 1.13 1.6 2.31 2.4 3.48 15.1 21.15 20.6 40.43 21.8 55.4 19-34.64 37.3-93.13 51.2-189.8 0.1-0.53 0.6-7.99 0.4-20.11 0-1.43-0.1-3-0.2-4.52 0.1-1.32-0.1-2.74-0.1-4.17-2.3-59.37-21.7-193.92-148.2-227.63-6.5 17.67-44.3 121.84-43.8 145.39 0.1 8.39-5.2 17.08-11.9 28.07-12.7 20.76-31.6 52.06-28.6 106.92 11.2 11.63 20.7 25.02 28.6 39.35" fill="#600"/>
   </g>
   <g transform="matrix(.023341 0 0 -.023341 -761.6 196.84)">
    <path d="m16274 8410.4c7.2-24.66 17.3-60.49 25.8-95.21-6.3 6.16-13.3 11.71-21.4 16.11-53 28.67-88.5 25.82-108.8 18.46-15.9-5.85-28.3-16.61-33.2-28.96v-0.45c0 0.05-0.1 0.05 0-0.06-38.8 16.67-85 42.78-94.7 78.2-9.2 34.12-6.8 79.55 20.4 98.56 21.1 14.71 65.5 18.72 157.1-46.17 21.1-14.81 39-28.22 54.8-40.48" fill="#600"/>
   </g>
   <g transform="matrix(.02328 0 0 -.02328 -761.6 196.84)">
    <path d="m16193 8273.4c18.6-34.96 59.4-95.2 106.8-129.72-2.4-2.91-4.5-5.91-6.7-8.87-8.1-2.21-16.1-4.52-23.8-6.78-43.5 23.83-88.1 48.16-88.1 48.16l-83.1 34.56c-28 10.13-59.6 21.52-58.4 29.34 2.4 7.83 61 57.34 135.2 78.16 0.2 0.05 0.4 0.1 0.5 0.05s0-0.15 0-0.25c1.8-13.1 11-32.46 17.6-44.65" fill="#600"/>
   </g>
   <g transform="matrix(.02337 0 0 -.02337 -761.6 196.84)">
    <path d="m16237 8080.8c-0.7-1.2-1.5-2.6-2.2-3.84-11.6-20.09-18.1-39.93-14.4-53.82 2-8.15 8.5-17.84 27.1-18.59 20-0.75 37.4-0.15 52.7 1.3-23.6-23.93-44.8-55.11-55.7-83.25-28.1-4.49-63.8-5.09-106.8 3.95-41.2 8.8-64.9 26.73-65 49.37-0.3 31.98 47.1 75 151.3 106.98 2 0.6 3.9 1.2 5.9 1.8 1.6 0.5 3.2 0.85 4.7 1.3 2.1 0.7 4.4 1.2 6.6 1.9-0.9-1.45-1.6-2.85-2.4-4.2-0.7-0.95-1.2-1.9-1.8-2.9" fill="#600"/>
   </g>
   <g transform="matrix(.023468 0 0 -.023468 -761.6 196.84)">
    <path d="m16172 7834.7c2.4-9.6 9.8-21.24 30.9-22.04 37.8-1.49 67.5 1.19 91.4 6.02-2.3-11.15-3.7-22.19-4.1-32.24-0.1-4.08-0.1-8.02 0-11.85 0.2-3.68 0.5-7.11 0.9-10.45 0.9-8.16 2.7-15.02 5.1-19.6 1-1.84 2.6-3.09 4-4.43-5.9-11-12.6-21.45-20.4-30.9-1.5-1.84-3.2-3.43-4.8-5.18-1.4-1.69-2.8-3.28-4.3-4.82-14.9-15.08-32.8-26.67-54.7-32.1-78.3-18.9-111.8-8.11-126.1 4.33-11.5 9.85-12.9 22.84-12.1 32 3 30.75 50.5 123.8 95.3 156.89-2-9.46-2.9-18.36-1.1-25.63" fill="#600"/>
   </g>
   <g transform="matrix(.023409 0 0 -.023409 -761.6 196.84)">
    <path d="m16138 8302.5c18.8 6.78 51.7 9.32 102-17.81 11.9-6.39 21.3-15.32 29-25.6 0.4-1.69 0.8-3.24 1.1-5.08 0.5-2.05 0.9-3.99 1.4-5.99 0.4-2.09 1-4.39 1.4-6.48 0.1-0.6 0.3-1.15 0.4-1.75 0.2-0.9 0.4-1.75 0.6-2.64 1.4-7.04 2.7-13.72 3.8-20.06 3-18.36 8.3-32.57 14.4-44.3 1-1.74 1.9-3.44 2.9-5.09 1.1-1.89 2.3-3.44 3.5-5.08 0.3-0.5 0.6-0.95 0.9-1.45 0.3-3.69 0.4-7.38 0.5-11.02-8.8-0.45-18.8-4.05-29.6-10.73-13.3-8.08-27-20.7-39.3-34.77-40.8 29.38-80.1 80.61-104.7 126.76-9.6 18.06-13.9 29.58-15.7 37.11-0.4 1.7-0.9 3.55-1.1 4.69-0.1 0.45-0.1 0.7-0.1 1.1-0.2 1.4-0.1 2.49 0.1 3.24 0 0.1-0.1 0.55 0 0.65 0 0.1 0.1 0.2 0.2 0.3 0.5 1.35 1.4 2.94 2.4 4.49 4.5 6.99 12.7 14.72 25.9 19.51" fill="#600"/>
   </g>
   <g transform="matrix(.023966 0 0 -.023966 -761.6 196.84)">
    <path d="m16286 7989.4c0.8-1.03 1.5-2.05 2.3-3.12 0.7-1.07 1.4-2.15 2-3.36 1.3-2.29 2.5-4.63 3.5-7.31 2.6-6.29 4-13.21 4.8-20.32 0.2-1.61 0.4-3.22 0.5-4.83 0.1-1.6 0.2-3.21 0.2-4.87 0.2-5.75 0-11.6-0.6-17.35-0.2-1.55-0.4-3.12-0.6-4.58-0.2-1.6-0.3-3.16-0.5-4.63-0.1-0.53-0.1-1.02-0.2-1.41-0.3-1.85-0.7-3.65-1-5.41-0.3-1.8-0.6-3.55-1-5.36-1.6-7.89-3.6-15.35-5.5-21.93-0.4 5.8-1.1 11.31-1.8 16.91-0.1 1.37-0.3 2.83-0.5 4.29-0.2 1.37-0.4 2.83-0.6 4.19-0.2 1.37-0.5 2.68-0.7 4-0.2 1.31-0.4 2.68-0.6 3.99-0.3 1.32-0.5 2.68-0.8 3.9-0.5 2.97-1.1 5.7-1.9 8.43-0.3 1.51-0.7 2.92-1 4.24-0.4 1.46-0.9 2.73-1.3 4.14-3.4 11.06-7.8 19.3-13.4 22.27-0.6 0.34-1.3 0.49-2 0.78-1.4 0.54-2.7 1.12-4.1 1.46-1.7 0.59-3.4 0.64-5.1 0.78-4.4 0.39-8.9-0.24-13.3-1.51-2.9 12.87-7.2 24.12-12.3 33.72 1 0 2.1-0.29 3.1-0.29 5.2-0.05 9.2 0.78 11.6 3.07 1.6 1.51 2.5 4.63 1.6 8.92 12.3-0.3 27.9-4.15 39.2-18.81" fill="#600"/>
   </g>
   <g transform="matrix(.023804 0 0 -.023804 -761.6 196.84)">
    <path d="m16253 8025.3c1.6 9.27 5.2 18.3 7.9 20.16 2.7 1.87 9.6 7.61 9.6 7.61s0.7-0.49 1.4-1.08l0.6-0.64c9.2-9.22 9.2-9.22 9.2-9.22 10.8-20.16 18.5-36.2 17-35.62l-1.5 0.05c-2.1 0.05-4.2-0.39-6.3-1.47-4.7-2.21-11.1-2.89-17.6-2.8l-10.7 0.2c-7.2 1.62-11.3 13.54-9.6 22.81" fill="#600"/>
   </g>
   <g transform="matrix(.023864 0 0 -.023864 -761.6 196.84)">
    <path d="m16169 8110.8c-0.8 0.25-1.6 0.54-2.4 0.64-0.5 0.2-0.9 0.39-1.4 0.44-0.8 0.2-1.6 0.39-2.4 0.64-1.3 0.24-2.6 0.44-3.9 0.73-7.8 1.62-15.7 2.84-23.6 3.57 7.7 5.48 15.7 9.64 23.7 12.58 1.3 0.54 2.6 0.93 3.9 1.27 0.7 0.29 1.4 0.49 2 0.69 0.6 0.14 1.3 0.49 2 0.63l0.2 0.1c1.2 0.29 2.4 0.29 3.6 0.59 0.1 0 0.4 0.05 0.5 0.14 1.2 0.2 2.5 0.49 3.7 0.59 8.7 1.32 17.5 1.37 26.6-0.24 22.5-4.07 42.8-16.54 59.4-30.78 0.2-0.15 0.4-0.39 0.6-0.54 0.9-0.78 1.9-1.52 2.7-2.2 0.3-0.35 0.7-0.64 1.1-0.98 0.8-0.74 1.6-1.47 2.4-2.15 0.3-0.45 0.6-0.74 1-1.08 2.8-2.79 5.6-5.53 8.1-8.27 1-1.18 2-2.25 3-3.33 1.1-1.27 2-2.4 3-3.67 5.5-6.7 10-12.82 13-18.06 0.8-1.37 1.3-2.44 1.9-3.67 0.6-1.12 1.4-2.44 1.8-3.42v-0.1c0.7-1.81 0.8-2.93 0.5-3.28-1.7-1.61-7-1.42-14.1 0h-0.1c-1.7 0.25-3.2 0.59-5.1 1.03-0.1 0-0.2 0.05-0.3 0.1-1.3 0.24-2.9 0.73-4.3 1.07-0.1-0.04-0.2 0.05-0.2 0.05-0.3 0.05-0.5 0.15-0.8 0.2-0.9 0.19-1.7 0.49-2.7 0.68-1.2 0.44-2.5 0.74-3.8 1.13-1.4 0.44-2.9 0.93-4.5 1.42-1.3 0.44-2.6 0.73-4 1.27-1.1 0.39-2.3 0.78-3.5 1.17-6.9 2.4-14.1 5.05-21.3 7.88 0.5 1.32 1.1 2.6 1.2 4.02 0.3 2.3-0.1 5.38-2 8.56-0.7 1.08-1.5 2.1-2.6 3.18-0.4 0.29-0.6 0.73-1 1.03-0.6 0.54-1.7 1.12-2.3 1.66-4.5 3.18-11.5 6.95-20.4 11.01-1.6 0.74-3.2 1.37-4.8 2.06-1.7 0.73-3.1 1.42-4.9 2.15-7.9 3.08-16.7 5.97-26 8.52-1.1 0.29-2.3 0.68-3.5 0.97" fill="#600"/>
   </g>
   <g transform="matrix(.023939 0 0 -.023939 -761.6 196.84)">
    <path d="m16299 7857.3c0.1-1.8 0.1-3.61 0.2-5.31v-0.39c0.1-0.54 0-0.88 0-1.42 0.1-1.02 0.1-1.85 0.1-2.88 0-0.24 0.1-0.53 0.1-0.83v-0.77-0.88c0-0.54 0-1.13 0.1-1.66v-1.37-3.75-3.42c0-1.37 0.1-2.93 0-4.24v-2.54-1.37-2.53-1.32c-0.1-0.83 0-1.71-0.1-2.49-0.3-8.44-0.8-14.44-1.6-16.68-0.8-11.95-5.8-21.17-15.2-28.24-0.9-0.69-2.2-0.98-3.2-1.66-1.1-0.73-2.2-1.22-3.4-1.9-1.2-0.69-2.4-1.32-3.6-1.91-11.8-5.41-26-8.19-40.8-9.07-2.5-0.2-4.9-0.1-7.5-0.15-2.5-0.09-5-0.24-7.5-0.19-0.7 0.05-1.4 0-2.1-0.05-8.1 0.1-15.5 0.63-22.5 1.37-1.2 0.09-2.4 0.19-3.6 0.34-0.8 0.05-1.7 0.19-2.5 0.29-0.1 0-0.2 0-0.3-0.05-1.3 0.2-2.8 0.29-4 0.44-0.1 0.05-0.2 0.05-0.3 0-0.9 0.15-1.5 0.24-2.3 0.39-0.8 0.05-1.5 0.2-2.3 0.29-0.5 0.1-0.9 0.15-1.4 0.2-0.6 0.1-1.3 0.24-1.8 0.29 0.2 0.25 0.5 0.54 0.8 0.78 0.4 0.49 0.8 0.93 1.3 1.42 0.5 0.53 0.9 0.92 1.4 1.46 0.4 0.44 0.8 0.93 1.2 1.32 0.2 0.24 0.4 0.48 0.5 0.63 0.4 0.39 0.6 0.73 0.9 1.07 0.3 0.35 0.7 0.83 1.1 1.27 1 1.17 2 2.3 3 3.56 1.2 1.42 2.3 2.98 3.4 4.49 9.4 12.73 19.1 29.85 26.7 52.19 0.5 1.37 1 2.64 1.4 3.96 0.4 1.31 0.9 2.63 1.3 3.95 3 9.71 5.4 20.44 7.4 32.05 0.2 1.41 0.6 2.58 0.8 3.9s0.3 2.58 0.5 3.8c0.5 3.42 0.9 7.13 1.3 10.74 0.1 1.41 0.3 2.73 0.5 4.09 0.1 1.37 0.3 2.74 0.5 4.2 0.4 5.07 0.5 10.63 0.7 16.14 0.1 1.32 0.2 2.54 0.2 3.91 0.1 1.31 0.2 2.48 0.3 3.8v0.93c-0.1 0.53-0.4 1.8-0.8 3.41-0.5 1.76-1 3.86-1.9 6.34l2.1 1.18 3.5 1.8 2.6 1.32c1.3 0.78 2.5 1.46 3.7 2.29 1.7 1.02 3.4 2.05 5 3.07 0.8 0.44 1.5 0.93 2.3 1.37 1.2 0.63 2.3 1.22 3.5 1.8 0.3 0.25 0.7 0.39 1 0.59 0.8 0.44 1.5 0.73 2.2 1.12 0.1 0 0.1 0 0.2 0.05 1.2 0.58 2.4 1.02 3.6 1.56 1.3 0.54 2.4 0.83 3.7 1.22 0.5 0.19 1.1 0.34 1.7 0.54 2.4 0.68 4.8 1.02 7.2 1.17 1.8 0 3.6-0.15 5.4-0.49 1.8-0.49 3.5-1.03 5.2-1.95 4.6-2.34 8.2-10.34 11.1-21.07 0.4-1.47 0.8-2.74 1.2-4.35 0.3-1.61 0.7-3.22 1-4.92 0.3-1.52 0.6-3.03 1-4.64 0.2-1.36 0.4-2.63 0.6-3.95 0.2-1.36 0.5-2.68 0.6-4.05 0.3-2 0.7-3.9 0.9-5.95 0.2-1.41 0.3-2.83 0.5-4.29 0.2-1.42 0.4-2.83 0.5-4.29 1.2-10.2 1.9-20.69 2.5-30.93 0.1-1.37 0.1-2.73 0.2-4.15" fill="#600"/>
   </g>
   <g transform="matrix(.023817 0 0 -.023817 -761.6 196.84)">
    <path d="m16130 7865.2c-0.8 0.88-1.6 1.57-2.4 2.4-1.1 1.32-2.2 2.4-3.3 3.53-12.2 12.5-22.8 18.53-23.4 18.83-0.4 0.34-0.8 0.39-1.2 0.73 13.4 12.21 15.7 23.49 15.8 24.52l0.1 0.49-0.1 0.44c-0.7 9.41-2.5 17.7-4.8 25.3-0.6 2.21-1.5 4.17-2.2 6.28-0.7 1.86-1.2 3.92-2 5.68-1.4 3.19-2.9 6.04-4.4 8.88 1.3-0.1 2.3-0.39 3.7-0.34 18.5-0.35 42.6 5.59 64.7 14.51 1.3 0.54 2.5 0.93 3.8 1.52 1.3 0.49 2.5 1.18 3.8 1.77 5.9 2.69 11.8 5.39 17.2 8.48 3.1 1.71 6.7 3.87 10.4 6.37 1.2 0.83 2.4 1.77 3.6 2.65 1.3 0.93 2.6 1.81 3.8 2.79 0.8 0.59 1.5 1.33 2.2 1.96 1.7 1.48 3.4 2.95 4.9 4.47 2.1 2.06 4 4.26 5.8 6.57 3.6 4.65 6.4 9.8 7.2 15.15 0.5 0.34 1.5 0.83 2.4 1.37-3.3-18.58-6.6-37.17-6.6-37.17l3.4-0.93c1.4-0.39 33.2-8.82 50.3-0.63 1.8 0.88 3.4 0.93 5 0.19 1.4-0.83 2.8-2.25 4.2-4.02 1-1.42 1.9-3.14 2.8-4.85 0.1-0.35 0.3-0.54 0.4-0.79 0.2-0.39 0.4-0.78 0.6-1.13 0.6-1.27 1.1-2.69 1.6-4.06 0.4-1.03 0.8-2.11 1.1-3.04 0.1-0.3 0.2-0.49 0.3-0.74 0.7-2.16 1.3-4.41 1.6-6.13 0-0.05 0.1-0.05 0.1-0.05 0-1.32-0.1-2.45-0.1-3.68-0.1-1.42-0.2-2.69-0.3-3.97v-1.71c-0.2-3.78-0.3-7.8-0.6-11.43-0.1-0.78-0.1-1.61-0.2-2.35-0.1-1.23-0.3-2.3-0.4-3.58-0.3-3.33-0.7-6.57-1.1-9.71-0.3-2.16-0.4-4.41-0.7-6.37-0.2-1.33-0.5-2.5-0.7-3.78-0.2-1.37-0.5-2.69-0.8-3.97-2.1-12.16-4.8-23.29-8-33.34-0.5-1.23-0.9-2.6-1.4-3.87-0.4-1.33-0.8-2.65-1.2-3.98-9.1-24.71-20.5-42.46-30.8-54.67-0.2-0.29-0.5-0.58-0.7-0.93-0.6-0.68-1.2-1.22-1.8-1.86-0.3-0.39-0.6-0.78-1-1.13-0.5-0.54-1-1.17-1.4-1.61-0.4-0.45-0.8-0.94-1.2-1.28-1.8-1.91-3.4-3.48-5.1-5.05-1.3-1.18-2.5-2.31-3.7-3.24-1.4-1.22-2.6-2.25-3.8-3.09-0.8-0.68-1.6-1.37-2.3-1.81-0.8 4.27-2.2 8.43-5.2 12.06-5.7 6.96-14.9 11.82-24.7 15.45-1.4 0.49-2.7 1.03-4.1 1.47-1.4 0.49-2.9 0.88-4.4 1.22-16.9 4.91-33.5 6.18-35.7 6.03-3-1.32-5.6-2.99-8.4-4.51-5.9 13.83-13.3 25.01-20.6 33.69" fill="#600"/>
   </g>
   <g transform="matrix(.023759 0 0 -.023759 -761.6 196.84)">
    <path d="m16162 8061.8c0.1 0.29 0.4 0.54 0.5 0.88 0.5 0.94 0.9 2.02 1.4 2.95 0.4 0.94 0.7 1.82 1.1 2.66 0.3 0.73 0.6 1.47 1 2.21 0.3 0.88 0.8 1.82 1.1 2.7 0.1 0.25 0.1 0.44 0.2 0.59 0.5 1.28 1.1 2.36 1.6 3.69 4.4 12.19 7.2 24.92 9.1 37.4 0.4 2.41 0.7 4.77 1 7.08 0.3 2.21 0.5 4.32 0.7 6.39 0.2 2.01 0.4 3.88 0.6 5.8 1.6 0.15 3.6 0 5.3 0.1 2 0.14 4.1 0.19 6.2 0.19 1.8 0 3.7 0.25 5.6 0.15 10.8-0.44 21.9-2.11 32.9-4.57 1.3-0.34 2.6-0.54 3.9-0.93 0.3-0.05 0.6-0.15 0.8-0.25 1.1-0.25 2.2-0.54 3.3-0.79 0.2-0.14 0.3-0.14 0.5-0.24 1.2-0.25 2.4-0.64 3.6-0.99 7.5-2.06 14.7-4.32 21.2-6.78 1.3-0.49 2.6-0.98 3.9-1.47 1.2-0.49 2.3-1.08 3.6-1.53 8.3-3.49 15.3-6.83 20.4-9.92 1.4-0.99 2.7-1.82 3.8-2.71 0.6-0.39 1.5-0.93 2-1.28 0.6-0.64 0.8-1.08 1.2-1.62 1.4-1.82 1.8-3.39 1.7-4.52-0.1-0.54-0.4-1.23-0.6-1.82-0.4-1.18-1-2.36-1.8-3.59-0.6-0.98-1.3-1.96-2.3-3.09v-0.05c-0.7-0.89-1.5-1.62-2.4-2.56-0.1 0-0.1-0.05-0.1-0.1-1-0.93-1.9-1.81-3-2.75-0.2-0.2-0.3-0.29-0.6-0.44-1.9-1.67-3.9-3.39-6.1-4.96-0.7-0.5-1.3-0.94-2-1.43-0.9-0.59-1.7-1.18-2.5-1.62-0.4-0.35-0.8-0.59-1.3-0.89-1-0.73-2.1-1.37-3.2-2.06-2.1-1.38-4.1-2.56-6.1-3.64-1-0.44-2-1.13-2.8-1.52l-2.1-0.98v-2.36c-0.1-4.62-3-9.83-7.6-15.24-1.7-1.92-3.6-3.78-5.7-5.65-1.3-1.18-2.6-2.36-4-3.39-1.3-1.09-2.4-2.17-3.9-3.2-4-2.9-8.5-5.85-13.7-8.7-4.4-2.6-9.1-4.91-13.8-7.13-1.2-0.58-2.5-1.08-3.9-1.67-1.2-0.54-2.5-1.03-3.7-1.57-26.1-10.96-53.1-16.56-70.3-14.5-0.8 0.15-1.7 0.15-2.4 0.25-0.8 1.18-1.6 2.11-2.3 3.24-2.1 2.65-4 5.36-6.1 7.62-2.6 3.05-5.1 5.7-7.8 8.06 2-0.49 3.1-0.79 3.5-0.84l1.3-0.29 0.9 0.44 0.3 0.2c1.2 0.69 2.1 1.47 3.1 2.11 1.2 0.74 2.3 1.48 3.3 2.26 12.8 8.75 22.5 20.3 29.8 33.67 0.6 0.93 1.2 1.92 1.7 3" fill="#600"/>
   </g>
   <g transform="matrix(.023706 0 0 -.023706 -761.6 196.84)">
    <path d="m16277 7736.9c-0.8-1.03-1.7-2.16-2.5-3.2-11.2-14.38-27.2-29.65-50.2-44.73-3.6-3.44-41.8-24.23-63.8-20.74-1.4 0.15-2.4 0.84-3.6 1.29-1.3 0.44-2.7 0.88-3.7 1.62-1.3 0.89-2.2 1.97-3 3.25-0.3 0.4-0.7 0.6-1 0.99-3.4 6.3-5.5 19.6-5 36.25 0.1 4.09 0.4 8.48 0.9 13.01 0.5 4.97 1.3 10.2 2.3 15.47 0.4 2.16 0.9 4.43 1.4 6.7 0.7 0.14 1.2 0.29 1.8 0.49 1.9 0.49 3.5 0.98 5.3 1.48 1.6 0.49 3.4 0.93 4.9 1.42 6 1.78 11.5 3.75 16.4 5.82 1.5 0.59 3.1 1.18 4.5 1.87 1.7 0.64 3.1 1.58 4.6 2.31 39.7 19.76 44.7 46.46 45 48.33l0.1 0.39-0.1 0.44c-0.5 7.44-1.7 14.09-3.1 20.74-0.1 0.69-0.2 1.58-0.4 2.32-0.1 0.54-0.1 1.08-0.2 1.57-0.2 1.04-0.4 2.07-0.6 3.01-0.1 0.3-0.3 0.64-0.3 0.98-0.5 1.78-1.1 3.21-1.6 4.88-0.9 2.81-1.9 5.52-2.8 8.23 2.5 1.38 4.8 2.86 7.5 4.14 0.2 0.05 14.2-1.19 29.3-5.18 1.3-0.34 2.7-0.69 4-1.13 1.4-0.34 2.7-0.79 4-1.28 9.9-3.15 19.3-7.78 24.6-14.19 2.4-2.95 3.4-6.15 3.8-9.55 0.1-1.33 0.5-2.57 0.3-4.04l-0.1-0.94 0.1-0.29 0.2-0.6c0.1-0.19 0.4-1.08 0.7-2.11 0.4-1.38 0.9-3.45 1.3-6.11 0.4-2.07 0.7-4.63 0.9-7.44 0.8-14.09-2-36.45-19.6-62.02-0.8-1.13-1.5-2.26-2.3-3.45" fill="#600"/>
   </g>
   <g transform="matrix(.023557 0 0 -.023557 -761.6 196.84)">
    <path d="m16238 8386c1.6-1.73 3.2-3.57 4.8-5.3 1.6-1.94 3.2-3.77 4.9-5.71 21-25.03 38.3-53.24 46.6-82.73 1.2-4.51 2.1-9.02 2.8-13.54 0.4-1.78 0.9-3.47 1.1-5.2 0.1-0.2 0.5-3.92 0.9-9.72 0.7-9.32 1.3-24.83 0.2-42.83-0.1-1.29-0.1-2.58-0.2-3.81-0.2-1.39-0.3-2.78-0.5-4.17-0.4-5.1-1.1-10.36-1.9-15.71-0.3-2.58-0.7-4.96-1.1-7.49-0.7-3.42-1.4-6.84-2.2-10.31-1.3-5.5-2.8-11.01-4.6-16.36-0.5-1.59-1.2-3.07-1.8-4.66-0.5-1.29-1-2.53-1.6-3.77-1-2.57-2.1-5.05-3.2-7.38-0.1-0.2-0.2-0.3-0.2-0.4-0.6-1.24-1.2-2.38-1.9-3.62-0.3-0.54-0.6-1.19-0.9-1.73-0.3-0.5-0.5-1-0.8-1.49-1-1.79-2.1-3.52-3.2-5.21-1.3-1.98-2.6-3.76-4-5.55-0.1 0.9-0.2 1.84-0.4 2.98-0.2 1.39-0.4 2.62-0.6 4.11-0.2 1.24-0.4 2.53-0.6 3.77-0.2 1.34-0.5 2.77-0.7 4.26-0.1 0.4-0.1 0.94-0.3 1.34-0.2 1.74-0.5 3.42-0.8 5.11v0.1c-1.3 6.99-2.6 14.22-4.2 21.46-0.7 2.83-1.5 5.55-2.1 8.38-0.5 1.54-0.9 3.07-1.3 4.71-0.4 1.73-0.7 3.47-1.2 5.25-0.5 1.54-1 3.03-1.4 4.66-1.9 6.1-4 12.05-6.1 17.8-2.1 5.25-4.2 10.16-6.6 14.72-2.6 5.06-5.4 9.47-8.5 13.49-2.6 3.32-5.3 6.39-8.2 8.82-11.4 9.12-30.4 32.57-51.9 63.45-2.7 3.97-5.4 7.98-8.2 12.15-2.4 3.52-4.9 7.19-7.3 10.85-4.9 7.39-9.8 14.98-14.7 22.86-14.4 48.33-28.6 91.36-36.4 110.25 0 0-0.6 2.68-0.7 2.63 0 0.09 0.6 0.44 2.3 0.39 2.6 0 7.7-0.94 17-4.91 28.3-11.84 73.1-42.13 109.7-81.94" fill="#600"/>
   </g>
   <g transform="matrix(.023499 0 0 -.023499 -761.6 196.84)">
    <path d="m16247 8146.7c-0.7 0.7-1.3 1.74-2 2.63-0.3 0.5-0.7 1.15-1.1 1.64-1.1 1.49-2.1 3.23-3.1 4.87-0.2 0.2-0.3 0.45-0.5 0.7-0.9 1.49-2 2.73-2.9 4.32-0.1 0.3-0.3 0.45-0.4 0.75-0.7 1.24-1.2 2.83-1.9 4.12-1.8 3.88-3.7 8-5.3 12.63-0.4 0.79-0.7 1.49-1 2.38-2.4 7.11-4.4 14.96-5.9 23.95-0.8 4.67-1.8 9.69-2.8 14.91-0.1 0.4-0.1 0.85-0.2 1.24-0.3 1.35-0.6 2.79-0.9 4.08 0 0.35-0.1 0.65-0.2 0.94v0.1c-0.4 1.94-0.8 4.08-1.2 6.07-0.5 2.03-0.9 3.87-1.3 6.01 0 0.3-0.2 0.59-0.2 0.99-0.6 2.73-1.3 5.67-2 8.45-0.1 0.55-0.2 0.99-0.4 1.54-0.5 2.38-1.1 4.82-1.7 7.31-0.8 3.42-1.7 6.9-2.5 10.43-0.8 3.13-1.6 6.26-2.4 9.54-0.5 2.09-1.1 4.08-1.6 6.26-4.8 18.54-10.3 38.02-15.7 57.45-0.7 2.39-1.6 5.32-2.2 7.6-0.2 0.5-0.3 1-0.5 1.34 0.1-0.04 0.1-0.09 0.2-0.09 0.4-0.65 0.9-1.35 1.3-1.99 24.2-36.68 51.3-73.9 68.4-87.56 8.3-6.61 15-18.79 20.6-32.8 1.7-4.32 3.3-8.65 4.8-13.17 1.2-3.68 2.4-7.36 3.4-11.13 0.3-1.05 0.6-2.09 0.8-3.03 0.2-0.5 0.3-1 0.5-1.54 0.4-1.89 0.9-3.63 1.3-5.47 3.7-14.91 6.6-29.32 8.7-41 0.2-1.29 0.5-2.48 0.7-3.68 0.2-1.49 0.4-2.73 0.7-4.07 0.3-1.99 0.7-4.18 0.9-5.86 0.1-0.15 0.1-0.45 0.2-0.6 0 0-1.5-1.19-3.4-2.68-2.4-1.94-5.4-4.43-8.2-6.86 0 0 0-0.05-0.1 0-1.3-1.1-2.2-1.99-3.1-2.83-1.2-1.15-2.1-2.09-2-2.24-0.1 0-1 0.2-1.6 0.4-0.7 0.15-1.5 0.49-2.8 0.94-0.6 0.25-1.3 0.45-2.1 0.8-0.2 0.05-0.3 0.15-0.5 0.19-0.8 0.3-1.4 0.55-2.3 0.95-0.3 0.15-0.7 0.3-0.9 0.45-0.9 0.44-1.9 1.09-2.8 1.49-0.5 0.3-0.9 0.49-1.4 0.69-0.7 0.45-1.3 0.7-1.9 1.1-0.2 0.1-0.4 0.25-0.6 0.39-0.6 0.35-1.3 0.95-1.9 1.35-1.1 0.69-2.3 1.68-3.4 2.48-4.5 3.38-9.1 7.4-13.6 13.12" fill="#600"/>
   </g>
   <g transform="matrix(.023524 0 0 -.023524 -761.6 196.84)">
    <path d="m16238 7989.4c-8.3-4.97-16.9-11.92-25.5-19.56-14.8-1.99-31.9-3.13-52.2-2.73-3.1 0.1-6.2 0.1-9.4 0.25-11.2 0.44-17.7 4.56-19.7 12.56-3 11.17 3 29.04 13.7 47.75 0.8 1.19 1.5 2.53 2.3 3.72 0.5 1.05 1.1 2.04 1.7 3.03 2.4 3.77 5 7.45 7.7 11.27 1.1 1.59 2.2 3.18 3.4 4.67 1.3 1.68 2.5 3.47 3.9 5.16 0.3 0.35 0.7 0.79 1.1 1.14 0.8 1.09 1.8 2.09 2.6 3.13 0.8 0.89 1.7 1.88 2.6 2.83 11.4 12.95 24 24.62 36.6 32.51 7.5 4.57 16.8 8.74 25.7 9.29 0.7 0 1.4 0.14 2.1 0.19 0.7-0.05 1.2-0.34 1.9-0.3 1.3-0.14 2.7-0.44 4-0.79 3.3-0.84 6.4-2.18 9.3-4.62 0.2-0.09 2.9-1.48 6.8-4.36 1.5-1.05 3.4-2.59 5.4-4.17 0.1-0.1 0.2-0.15 0.3-0.25 1.2-0.94 2.3-1.94 3.5-3.08 1.4-1.19 2.8-2.63 4.2-4.07 3.3-3.43 6.8-7.45 10.2-12.11 1.2-1.69 2.3-3.48 3.5-5.26 0.5-0.85 1-1.84 1.6-2.78 0.4-0.75 0.9-1.64 1.4-2.58 1-1.79 2.1-3.43 3-5.37 0.2-0.44 0.4-0.99 0.6-1.44 0.5-1.04 0.9-2.53 1.4-3.67 0.9-2.48 1.8-4.91 2.7-7.5 2.4-7.59 4.4-15.73 5.1-25.06-0.2-1.34-2.9-10.83-15.2-21.25-0.8 0.4-1.4 1.09-2.2 1.39-1.4 0.5-3 0.55-4.5 0.99-1.4 0.3-2.8 0.45-4.2 0.65-0.1 0-0.2 0.05-0.3 0.05-2.6 0.2-5.2 0.29-8-0.1-4.9-0.55-10-1.94-15.4-4.17-2.9-1.14-5.7-2.48-8.7-4.02-1.1-0.55-2-0.75-3-1.34" fill="#600"/>
   </g>
   <g transform="matrix(.023592 0 0 -.023592 -761.6 196.84)">
    <path d="m16109 7845.5c0.6 1.34 1.3 2.82 1.9 4.21 12 27.97 34.2 59.45 58.6 82.16 1.7 1.59 3.2 3.22 5 4.71 2.1 1.78 4.2 3.41 6.3 5.1 4.9 3.91 9.8 7.62 14.6 10.49 8.2 4.75 18.4 9.16 28.2 8.96 2-0.05 4-0.65 6-1.14 0.3-0.05 0.5-0.05 0.7-0.1 1.3-0.4 2.7-0.79 4-1.43 0.2 0 0.4-0.15 0.5-0.3 1.2-0.54 2.4-1.44 3.6-2.28 0.5-0.35 1-0.49 1.6-0.89 0.4-0.45 1-0.59 1.5-0.94 0.2-0.2 11.9-6.78 24.6-20.84 1.1-1.24 2.2-2.13 3.3-3.51 0.7-0.94 1.5-2.18 2.3-3.22 6.2-7.82 12.4-17.32 17.3-29.15 0.5-1.14 0.8-2.53 1.3-3.57 0.2-0.79 0.4-1.48 0.7-2.18 0.1-0.44 0.2-0.79 0.4-1.28 0.6-1.54 1.1-3.07 1.6-4.81 0.6-1.58 1.2-3.11 1.7-4.75 0.3-1.23 0.8-2.22 1-3.36 0.4-1.29 0.4-2.87 0.7-4.26 0.3-1.24 0.5-2.72 0.7-4.06 1-5.49 2.2-10.79 2.6-16.88-0.3-1.68-5.2-22.22-35.6-39.4-1.4-0.79-3.1-1.48-4.5-2.23-1.5-0.79-2.9-1.53-4.5-2.27-4-1.83-8.4-3.67-13.1-5.35-1.7-0.59-3.5-1.09-5.3-1.68-1.7-0.6-3.6-1.14-5.4-1.64-1.5-0.44-2.9-0.88-4.5-1.33-1.4-0.4-2.8-0.74-4.3-1.14-1.4-0.3-2.9-0.54-4.3-0.84-21.3-4.75-47.8-7.62-81.4-7.03-3.6 0.05-7.3 0.15-11.1 0.3-13.3 0.54-20.9 5.74-23.5 15.98-2 7.83-0.4 18.27 3.2 29.8 0.5 1.78 0.9 3.42 1.6 5.2v0.1c0.5 1.49 1.3 3.07 1.9 4.55 0.1 0.15 0.1 0.2 0.1 0.3" fill="#600"/>
   </g>
   <g transform="matrix(.023864 0 0 -.023864 -761.6 196.84)">
    <path d="m16300 7991.3s-23-12.92-28.6-9.98c-5.6 2.98-1.2 37.92-28.3 57.3 5.7 0.88 34-1.57 39.6-8.22 5.6-6.71 11.9-20.11 17.3-39.1" fill="#600"/>
   </g>
   <g transform="matrix(.022873 0 0 -.022873 -761.6 196.84)">
    <path d="m16226 7880.7s-59.9 253.07-265.3 172.41c-205.3-80.77-12.8 133.25 41.6 95.32 54.3-37.88-144.6 91.38 22.9 117.63 167.4 26.34 275-247.51 200.8-385.36" fill="#030"/>
   </g>
   <g transform="matrix(.023882 0 0 -.023882 -761.6 196.84)">
    <path d="m16154 6812.3c-40.9 66.4-132.8 169.97-328.9 232.41 0 0 220.3-22.88 349.3-204.79 125.5 82.59-47.7 220.63-47.7 220.63-340.3 218.04-666.8-125.67-666.8-125.67 438.9 239.56 538.9-229.92 654.8-251.33 95.7-17.71 56 90.46 39.3 128.75" fill="#030"/>
   </g>
   <g transform="matrix(.02311 0 0 -.02311 -761.6 196.84)">
    <path d="m15938 6635.3c-156.8 946.33 356.8 1328.6 362 1332.4l-4.2 4.95c-0.2-0.15-1.3-0.86-2.8-2.07l-3.2 3.54c-0.1-0.05-1-0.71-2.4-1.82l-2.5 3.13c-0.2-0.15-1.3-0.91-2.8-2.22l-3.1 3.74c-5.2-3.84-556.2-368.92-364.5-1338.1l23.5-3.54" fill="#030"/>
    <path d="m15938 6635.3c-156.8 946.33 356.8 1328.6 362 1332.4l-4.2 4.95c-0.2-0.15-1.3-0.86-2.8-2.07l-3.2 3.54c-0.1-0.05-1-0.71-2.4-1.82l-2.5 3.13c-0.2-0.15-1.3-0.91-2.8-2.22l-3.1 3.74c-5.2-3.84-556.2-368.92-364.5-1338.1z" fill="none" stroke="#030" stroke-miterlimit="10" stroke-width="37.766"/>
   </g>
  </g>
 </g>
</svg>
