<?xml version="1.0" encoding="UTF-8"?>
<svg width="105.83mm" height="148.17mm" version="1.1" viewBox="0 0 105.83 148.17" xmlns="http://www.w3.org/2000/svg">
 <g transform="translate(-52.162 -74.417)">
  <rect x="52.162" y="74.417" width="105.83" height="148.17" fill="#f9f9f9"/>
  <g transform="translate(377.21 142.6)">
   <g transform="matrix(.029922 0 0 -.029922 -761.6 196.84)">
    <path d="m15959 7689c0 54.57-2.3 87.08-4.6 107.98-22.1-3.48-44.1-5.8-66.2-9.29-13.9 0-25.5 3.49-40.6 15.1-38.4-49.93-82.5-94.05-132.4-128.88-4.6-3.48-9.3-4.64-12.7-4.64-8.2 0-14 5.8-14 13.93 0 4.64 2.3 10.45 7 16.25 23.2 30.19 47.6 66.19 69.6 104.5-11.6-5.8-27.8-9.29-51-11.61-51.1-5.8-88.3-11.61-119.6-16.26 26.7-15.09 33.6-26.7 33.6-37.15 0-5.8-1.1-12.77-3.5-19.74-3.4-10.45-3.4-19.74-3.4-81.27v-362.26c0-33.68-20.9-54.56-44.2-54.56-27.8 0-63.8 38.32-70.8 104.48 7 29.04 10.5 49.93 12.8 91.73 3.5 62.7 3.5 98.7 3.5 128.88l1.1 114.95c0 54.57-1.1 73.15-9.3 102.17-10.4-1.16-22-3.48-33.6-5.8-15.1 0-26.7 4.64-45.3 18.57-40.6-49.92-85.9-94.04-137-128.88-4.6-3.48-9.3-4.64-12.8-4.64-8.1 0-13.9 4.64-13.9 12.77 0 4.65 2.3 10.45 7 17.42 69.6 88.24 147.4 222.92 179.9 343.68 8.1 29.02 12.8 51.08 12.8 69.66 0 6.97-1.2 17.41-4.7 29.02-1.1 4.65-2.3 8.13-2.3 11.61 0 9.29 5.8 13.94 15.1 13.94 20.9 0 68.5-20.9 96.4-37.16 13.9-8.12 24.4-17.41 24.4-31.34 0-6.97-3.5-17.42-9.3-29.03-15.1-29.03-23.2-45.28-36-74.31-20.9-44.12-45.3-88.24-74.3-131.2h5.8c55.7 8.13 85.9 13.94 116.1 20.9 30.2 6.97 47.6 11.61 77.8 27.87 47.6 0 99.8-20.9 101-52.25 36 68.5 66.2 142.81 84.7 212.47 8.2 29.03 12.8 51.09 12.8 69.67 0 6.96-1.1 17.41-4.6 29.02-1.2 4.65-2.3 8.13-2.3 10.45 0 10.45 5.8 15.09 15.1 15.09 30.1-2.32 76.6-25.54 96.3-37.15 14-8.12 24.4-17.41 24.4-31.35 0-6.96-3.5-17.41-9.3-29.02-15.1-29.03-23.2-45.28-36-74.31-20.9-42.96-44.1-88.24-70.8-131.2 134.7 19.74 197.4 32.51 227.6 40.64 30.1 8.12 47.6 11.61 77.8 27.86 48.7 0 103.3-31.35 103.3-62.7 0-26.7-18.6-34.83-67.4-40.63-75.4-9.29-138.1-17.42-193.8-24.39 23.2-18.57 30.2-32.51 30.2-45.28 0-5.8-1.2-15.09-3.6-22.06-5.7-17.41-6.9-32.51-6.9-68.5l2.3-258.92c0-34.83 1.2-74.31 4.6-130.05-6.9-35.99-15-56.87-29-77.78-13.9-19.75-26.7-26.7-41.8-26.7-18.5 0-45.3 19.75-94 67.32-7 6.99-27.9 27.87-46.4 51.09-8.2 10.46-12.9 18.58-12.9 23.22 0 5.82 4.7 8.16 12.9 8.16 3.4 0 6.9 0 12.7-1.17 30.2-4.65 62.7-8.12 91.7-9.29v370.37" fill="#002"/>
   </g>
   <g transform="matrix(.030678 0 0 -.030678 -761.6 196.84)">
    <path d="m16266 6362.9-120.6 11.46c-13.5 1.41-23.5 12.18-22.6 20.63 21.1 110.35 37 225.12 37.5 336.15h139.9c-0.5-120.4-6.3-236.69-8-352.06-0.5-8.76-12.1-17.55-26.2-16.18" fill="#030"/>
   </g>
   <g transform="matrix(.030653 0 0 -.030653 -761.6 196.84)">
    <path d="m16052 5635.7c-13.4 2.02-22.6 13.49-20.6 21.87 28.5 110.02 51.7 223.2 68.4 337.45 16.7 114.37 26.9 229.42 28.8 342.3 0.6 8.46 12.8 17.14 26.3 15.7l121.2-11.93c13.5-1.37 23.4-12.46 22-20.88-23.1-112.76-43.3-227.89-59.7-343.28-16.8-115.24-29.5-231.25-39-345.23-1.1-8.84-13.8-16.88-27.2-14.63l-120.2 18.63" fill="#030"/>
   </g>
   <g transform="matrix(.030448 0 0 -.030448 -761.6 196.84)">
    <path d="m16127 4905.4-119.1 27.23c-13.2 3.26-21.6 15.11-19.4 23.32 37.4 107.69 67.1 220.14 90.9 333.9 23.2 113.94 40.1 229.08 49.1 342.8 1.1 8.59 13.4 16.57 27.4 14.3l120.5-18.98c14-2.03 23.2-13.77 21.2-22.06-30.5-111.53-57-226.16-80.5-341.64-23-115.06-43-231.08-61.5-346.02-1.8-8.71-15.3-15.92-28.6-12.85" fill="#030"/>
   </g>
   <g transform="matrix(.030153 0 0 -.030153 -761.6 196.84)">
    <path d="m16130 4942.5c1.8 8.48 15.4 15.34 28.8 12.28l120.2-28.12c13.3-3.37 21.5-15.76 19.3-24.05l-61.7-169.32c-22.4-57.74-41.6-113.9-77.3-176.83h-123c23.7 40.74 42.6 164.86 57.8 218.62 14.9 55.07 26.7 111.26 35.9 167.42" fill="#030"/>
   </g>
   <g transform="matrix(.029549 0 0 -.029549 -761.6 196.84)">
    <path d="m16300 6143.3c0.4-10.83-11.2-23.08-25.8-23l-126 0.83c-14 0.08-25.5 12.57-24.9 23.28 11.3 141.4 18.9 285.77 22.7 430.05l144.7-3.36c-3.2-143.57-0.1-287.15 9.3-427.8" fill="#030"/>
   </g>
   <g transform="matrix(.029567 0 0 -.029567 -761.6 196.84)">
    <path d="m16138 6084 125.9-0.63c14.6-0.08 26-12.24 25.5-22.75-11.8-140.41-16.7-284.29-14.7-427.86l-72.2-0.83 72.2 0.83c2.1-143.65 10.4-286.94 25.1-427.19 0.3-10.55-10.3-23.18-24.9-23.62l-125.8-3.55c-14.5-0.44-26 11.65-25.9 22.39 5.6 141.67 8.4 286.19 6.9 430.35-1.6 144.36-6.9 288.84-17.4 430.27-0.4 10.55 11.2 22.67 25.3 22.59" fill="#030"/>
   </g>
   <g transform="matrix(.029579 0 0 -.029579 -761.6 196.84)">
    <path d="m16143 5142.8 125.8 3.75c14.2 0.43 25.9-11.37 25.8-21.75-5.9-140.55-4.5-337.04 5-479.92h-144.2c-9.2 144.69-20.9 333.29-37.2 474.35-0.8 10.54 10.2 23.14 24.8 23.57" fill="#030"/>
   </g>
   <g transform="matrix(.029125 0 0 -.029125 -761.6 196.84)">
    <path d="m16141 6173c116.5 78.79 158.7 113.07 158.7 113.03 0.2 0.08-15.8-122.93-127.5-225.01-111.5-101.77-287.5-188.81-286.9-188.89-0.6 0.04 137.9 221.64 255.7 300.87" fill="#030"/>
   </g>
   <g transform="matrix(.029127 0 0 -.029127 -761.6 196.84)">
    <path d="m16094 6223.4c-155.2-12.31-413.6 36.8-414.6 35.76 0 0.88 231.3 114.06 386.6 126.65 155.2 12.67 233.8-62.02 234-61.98 0.3 0-50.4-87.48-206-100.43" fill="#030"/>
   </g>
   <g transform="matrix(.029118 0 0 -.029118 -761.6 196.84)">
    <path d="m16215 6440.7c-60.4 78.69-106.6 180.71-106.7 180.71 0.1 0 52.6-25.5 113.1-104.27 60.5-78.8 78.6-144.9 78.6-144.9 0.1 0-24-10.14-85 68.46" fill="#030"/>
   </g>
   <g transform="matrix(.031642 0 0 -.031642 -761.6 196.84)">
    <path d="m16184 5178.5c66.1-59.6 116.4-109.61 116.5-109.61 0 0-58.2 18.67-131.7 49.97-73.3 31.04-163.2 74.14-232.4 120.86-138.5 93.12-168.7 205.83-168.9 205.9 0-0.04 52.6-30.34 195.7-102.23 72.1-36.13 154.4-105.29 220.8-164.89" fill="#030"/>
   </g>
   <g transform="matrix(.032009 0 0 -.032009 -761.6 196.84)">
    <path d="m15846 5478.1c90.7-5.25 203.9-32.69 294.8-57.02 90.8-24.41 159-44.95 159.1-44.91 0.1-0.04-70.7-16.93-166.4-29.48-96-12.88-214.8-22.51-305.4-17.29-181.1 10.61-248.4 88.9-248.7 88.9-0.3 0.08 85.2 70.42 266.6 59.8" fill="#030"/>
   </g>
   <g transform="matrix(.03099 0 0 -.03099 -761.6 196.84)">
    <path d="m16300 5878.7s-45.8-96.73-111.6-171.99c-65.6-75.25-95.7-66.39-95.7-66.39s14 63.19 80.1 138.63c66.2 75.1 127.3 99.71 127.2 99.75" fill="#030"/>
   </g>
   <g transform="matrix(.030079 0 0 -.030079 -761.6 196.84)">
    <path d="m16221 5911.6c56.8-15.72 78.7-26.82 78.7-26.24 0-0.2-57.7-18.4-118.3-15.22-30.6 2.06-64.5 8.97-93.1 17.82-28.6 8.93-50.9 19.3-50.8 19.22l71.2 6.29c38.7 3.14 83.5 6.17 112.3-1.87" fill="#030"/>
   </g>
   <g transform="matrix(.030122 0 0 -.030122 -761.6 196.84)">
    <path d="m16268 5988.3c23.5-26.67 31-54.2 31.4-73.47 0.7-19.3-4.6-30.85-4.4-30.85-1.3 0.34-46.5 1.59-86.2 48.38-20.6 23.99-44.3 60.9-60.7 91.99-16.5 31.21-24.7 56.18-24.8 56.1 0.2-0.04 23.4-11.32 53.7-27.37 30-16.09 68-38.23 91-64.78" fill="#030"/>
   </g>
   <g transform="matrix(.031621 0 0 -.031621 -761.6 196.84)">
    <path d="m16028 6365.4c-117.2-90.25-154.5-130.18-155-129.88 0.6-0.3-1.6 116.33 111.7 228.3 56.8 55.99 135.9 109.21 200.9 146.99 65 37.7 114.1 60.79 114.1 60.82 0.1-0.03-38.8-53.62-92.9-118.99-53.8-65.03-119.6-142.18-178.8-187.24" fill="#030"/>
   </g>
   <g transform="matrix(.03204 0 0 -.03204 -761.6 196.84)">
    <path d="m15912 6097.4c-153.5-30.73-243.4 20.66-243.6 21.25-0.1-0.73 40 89.98 201.7 123 162.6 33.97 430.3-2.69 430.1-2.8 0.1-0.11-60.2-27.7-138.2-59.01-78.2-31.2-173.2-67.28-250-82.44" fill="#030"/>
   </g>
   <g transform="matrix(.03125 0 0 -.03125 -761.6 196.84)">
    <path d="m16172 6182.1c72-63.41 128.2-152.43 128.2-152.35-0.2-0.04-53.5 17.26-125 80.3-71.6 63.31-99.5 121.15-99.4 121.3-0.1-0.15 24.1 13.91 96.2-49.25" fill="#030"/>
   </g>
   <g transform="matrix(.030197 0 0 -.030197 -761.6 196.84)">
    <path d="m16266 6509.9c24.2 3.52 33.8 7.2 33.8 7.04-0.1 0.2-10.8-20.18-40.6-41.88-29.5-21.66-80.4-43.31-148-41.42-67.6 1.74-143.6 23.86-199.7 48.15-56.9 24.01-95.1 48.61-95.1 48.49 0 0.12 56-5.45 124.1-9.04 68.8-4.22 149.2-4.26 205.9-10.68 56.8-6.88 95.8-4.02 119.6-0.66" fill="#030"/>
   </g>
   <g transform="matrix(.030219 0 0 -.030219 -761.6 196.84)">
    <path d="m16257 6520.2c-29.1-4.71-75.7 0.74-123 35.13-47.8 34-91.8 94.67-118.1 146.53-26.4 51.9-37.4 94.06-37.6 93.95 0.1 0.15 36.6-24.58 83.3-53.14 46.4-29.14 102.8-59.9 140.6-87.72 37.6-28.21 59.1-55.92 74.4-78.33 14.8-22.14 23.6-39.07 23.6-39.15-0.1 0.2-13.3-12.67-43.2-17.27" fill="#030"/>
   </g>
   <g transform="matrix(.030256 0 0 -.030256 -761.6 196.84)">
    <path d="m16288 6562.2c1.3-0.12-19.3-1.43-19.9 65.96 1 67.19 31.4 140.72 31.4 140.64 0.5-0.23 0-27.94-5.9-92.32-4.3-64.88-4.5-114.32-5.6-114.28" fill="#030"/>
   </g>
  </g>
 </g>
</svg>
