<?xml version="1.0" encoding="UTF-8"?>
<svg width="105.83mm" height="148.17mm" version="1.1" viewBox="0 0 105.83 148.17" xmlns="http://www.w3.org/2000/svg">
 <g transform="translate(-110.35 -107.71)">
  <rect x="110.35" y="107.71" width="105.83" height="148.17" fill="#f9f9f9"/>
  <g transform="translate(638.48 173.05)">
   <g transform="matrix(.014405 0 0 -.014405 -574.4 190.55)">
    <path d="m7841.6 15581c-20.62-50.6-43.64-101.1-66.58-149.4l236.64 23c-20.7 25.3-66.65 85-105.73 133.3zm-153.91-778.9c82.7 9.2 153.91 16.1 218.24 20.7 43.71 4.6 78.16 11.5 114.92 27.6 32.13-6.9 59.7-13.8 82.72-25.3 0 75.8-2.32 117.2-4.64 167.7-135.54-4.6-273.4-18.4-408.94-36.8zm-2.3-328.6c137.82 9.2 275.68 18.4 413.54 25.3l4.64 195.3c-137.86-2.3-278.04-9.2-415.88-29.9zm-174.61 434.3c0 80.4-2.3 112.6-6.9 142.4-147.04-153.9-319.35-264.2-556-386-29.87-16-68.92-32.1-80.41-32.1-20.69 0-34.47 13.8-34.47 25.3 0 22.9 4.6 32.1 29.87 50.5 248.13 172.3 431.94 335.4 601.96 546.8-85.01-11.5-172.32-25.3-261.92-41.3-29.87 0-50.55 9.2-68.92 29.8-64.34 73.6-71.23 73.6-71.23 96.5 0 11.5 9.19 23 41.35 25.3 174.62 18.4 326.25 34.5 464.11 48.3 25.27 45.9 45.95 96.4 66.63 147-66.63-6.9-130.97-16.1-193-23-22.97 0-45.95 6.9-64.33 25.3-57.43 62-68.93 73.5-68.93 94.2 0 13.8 9.2 18.4 41.36 20.7 126.37 9.2 234.35 18.4 337.74 27.5 13.78 41.4 25.27 82.8 36.74 126.4-103.37-11.5-211.35-25.3-317.04-39.1-22.97 0-50.55 11.5-68.92 29.9-71.23 78.1-78.12 80.4-78.12 105.7 0 13.8 9.19 18.4 41.35 20.7 158.53 9.2 307.87 20.7 457.18 34.4 4.63 27.6 9.19 57.5 11.51 85.1 4.63 41.3 6.87 73.5 6.87 96.4 0 20.7-2.24 36.8-4.55 48.3-9.2 34.5-16.07 55.1-16.07 66.6s6.87 20.7 27.57 20.7c41.32 0 110.29-20.7 167.67-55.1 48.27-27.6 78.16-59.8 78.16-89.6 0-18.4-2.32-27.6-23.01-55.2-9.19-13.8-18.39-32.1-25.26-55.1l-11.5-43.7c43.71 4.6 89.58 9.2 133.3 13.8 68.89 6.9 130.9 25.3 172.3 48.3 153.93-20.7 211.39-80.5 211.39-133.3 0-32.2-29.89-50.5-68.97-50.5-144.73-4.6-310.17-13.8-487.03-29.9-11.51-34.5-25.33-78.1-39.08-124.1 64.34 4.6 130.91 11.5 202.2 18.4 59.7 6.9 98.78 16.1 140.09 39.1 147.06-25.3 195.33-69 195.33-114.9 0-39.1-29.9-52.9-68.9-52.9-66.65 0-174.62-6.9-301.05-16 57.46-64.4 87.35-98.8 117.24-131l153.92 13.8c68.89 6.9 110.29 18.4 160.8 43.6 135.54-13.8 238.96-82.7 238.96-140.1 0-34.5-29.89-52.9-82.72-52.9-112.6 0-222.81-2.3-333.1-4.6 18.38-18.3 39-39 57.38-57.4 62.02-62 135.55-131 238.96-216 68.97-55.1 128.67-96.5 229.77-163.1 80.39-52.8 107.97-66.6 140.17-87.3 25.26-16.1 39-27.6 39-41.4 0-18.3-18.38-32.1-41.32-36.7-64.33-13.8-144.73-20.7-259.65-20.7-84.96 0-107.97 4.6-156.24 64.3-156.16 190.7-280.28 344.7-443.39 549.2-144.73-9.2-289.47-20.7-431.94-36.8-36.76-55.2-75.81-108-117.18-156.2l64.34-27.6c130.98 13.8 261.89 27.6 390.56 41.3 43.71 6.9 75.84 16.1 105.73 32.2 112.53-36.8 197.56-137.8 197.56-181.5 0-20.7-6.87-36.8-22.94-66.6-11.51-20.7-13.82-52.9-13.82-91.9v-399.8c0-142.5-41.32-179.2-94.23-179.2-45.95 0-78.08 29.9-101.09 98.8-137.79-4.6-275.64-11.5-413.52-25.3-6.9-39-34.46-62-73.53-62-62.03 0-114.87 94.2-114.87 174.6 6.9 39.1 13.78 78.1 13.78 275.7l2.3 193" fill="#600"/>
   </g>
   <path d="m-478.81 42.384c-3.3136-2.9316-7.4987-5.3647-12.395-7.4196 1.8213 4.2188 6.189 9.7193 10.542 14.365zm-2.2426 8.8704-0.11517-0.03011 0.0194-0.07119c-4.4819-4.6928-9.0635-10.359-11.234-14.884-0.6221 3.7427-1.3473 12.964 5.1828 18.519 6.2745 5.3381 12.86 5.1945 15.584 4.8385-2.0932-1.295-5.7171-4.4869-9.4366-8.372zm10.653 7.2105c-0.61752-5.9755-3.0865-10.83-7.0633-14.817l-1.8829 7.0625c3.7485 3.8595 7.2862 6.909 8.9462 7.7545" fill="#030"/>
   <path d="m-463.1 55.385c1.6577-0.6831 6.5886-3.0784 9.4212-8.2841l-4.229 1.6499c-1.6432 2.5689-3.431 4.9175-5.1923 6.6342zm11.336-19.18c-0.95348 2.9283-2.6746 6.6798-4.7485 10.254l3.8083-1.4853c0.89561-2.4109 1.3227-5.3125 0.94016-8.7692zm-12.023 17.535c4.0128-4.2344 8.5999-12.348 10.423-17.854-7.4084 3.9529-10.796 8.7503-10.423 17.854" fill="#030"/>
   <g transform="matrix(.011927 0 0 -.011927 -574.4 190.55)">
    <path d="m7465.1 14634c-41.14 104.1-41.69 214.4-8.93 313.4-115.06 125.7-341.63 245.7-538.1 215.6-270.13-41.5-596.65-286.3-579.1-467.4l-0.03 0.1c17.56-181.2 384.92-358.9 658.04-347.7 185.59 7.6 372.03 148.9 468.12 286zm109.18-163c-146.01-80.1-304.23-245-334.22-425-44.76-269.7 86.2-656.2 263.76-695.9h-0.07c177.67-39.8 460.87 254 535.35 517 44.25 156.4-8.8 345.2-90 479.7-137.87-17.1-275.81 29.4-374.82 124.2zm1246.4 236.6c-130.55 87.9-318.47 98.6-469.4 67.3-9.61-153.6-95.75-297.2-236.7-374.6 41.84-151.9 142.81-320.7 287.24-396.2 242.26-126.6 650.32-122.6 743.39 33.8 93.06 156.3-97.84 517-324.53 669.7zm-504.47 274.8c5.1-12.1 9.31-24.4 13.34-36.7 158.75-9.4 355.26 33.5 473.97 149.2 195.73 190.7 319.04 579.8 199.44 717-119.59 137.1-521.81 68.1-737.5-99.9-138.69-108-208.23-313.9-214-477.7 115.08-42.3 213.18-130 264.75-251.9zm-746.25 148.4c40.25 39.5 88.17 72.6 143.32 96 48.15 20.3 97.8 31.4 147.15 35 77.02 149.5 114.55 385.4 31.67 554.6-120.35 245.5-451.7 483.7-619.27 412.9-167.54-71-227.26-474.6-134.85-731.9 65.27-181.9 268.81-321.2 431.98-366.6" fill="#764100"/>
   </g>
   <path d="m-476.73 12.505c0.82651 1.9537-0.086 4.2066-2.0398 5.0343-1.954 0.82664-4.2081-0.08784-5.0346-2.0404-0.82651-1.9548 0.0874-4.2077 2.0408-5.0343 1.9543-0.82663 4.2072 0.08673 5.0335 2.0404" fill="#600"/>
   <path d="m-471.42 26.147-2.0041-0.25478c4.1805 6.7421 7.2077 26.802 4.2056 35.308l1.5341 0.54182c3.0307-8.5867 0.36038-27.568-3.7356-35.595" fill="#030"/>
  </g>
 </g>
</svg>
