<?xml version="1.0" encoding="UTF-8"?>
<svg width="105.83mm" height="148.17mm" version="1.1" viewBox="0 0 105.83 148.17" xmlns="http://www.w3.org/2000/svg">
 <g transform="translate(-103.98 -110.6)">
  <rect x="103.98" y="110.6" width="105.83" height="148.17" fill="#f9f9f9"/>
  <g transform="translate(509.73 175.86)">
   <g transform="matrix(.01548 0 0 -.01548 -574.4 190.55)">
    <path d="m15139 13899c77-38.5 156.1-81.2 233.1-124 49.1 57.7 94 121.9 132.5 192.4-85.5-10.7-179.6-23.5-252.3-34.2-21.3 0-47 6.4-72.6 17.1-12.9-17.1-27.8-34.2-40.7-51.3zm421.2 470.4c-115.5 0-273.7-15-498.2-40.6l2.2-102.7c194.5 23.6 391.2 34.2 588 47.1 2.1 32 2.1 64.1 2.1 96.2zm96.2 198.8c-36.3 0-81.2 0-117.6-2.1-85.5-4.3-267.2-21.4-476.8-44.9v-92c173.2 17.1 310.1 30 414.9 38.5 44.8 4.3 72.6 10.7 91.9 23.5 29.9-6.4 57.7-14.9 87.6-25.6zm0 196.7c-198.8-10.7-376.3-27.8-596.5-55.6v-89.8c168.9 19.3 305.8 34.2 425.5 42.8 38.5 2.1 51.3 6.4 81.2 21.4 27.8-8.6 57.7-15 89.8-30zm-425.4-724.8c89.8 10.7 153.9 17.1 226.6 29.9 32.1 6.5 64.1 19.3 91.9 40.7 98.3-12.9 198.9-100.5 198.9-136.9 0-19.2-8.6-32-30-49.1-14.9-12.9-38.4-38.5-66.2-77-40.7-57.7-85.6-109.1-132.6-156.1l85.5-49.2c132.6-76.9 205.2-109 350.6-156.1 119.8-34.2 222.4-62 307.9-85.5 21.5-6.4 36.4-21.3 36.4-32 0-17.1-12.9-27.8-42.8-38.6-74.8-27.7-218.1-55.5-318.6-55.5-70.5 0-87.6 6.4-128.3 36.4-160.3 117.5-284.3 209.5-393.3 286.4-179.6-145.4-389.2-230.9-626.5-271.5-8.6-2.2-15-2.2-21.4-2.2-23.5 0-32 10.8-32 23.6 0 17.1 12.8 23.5 32 29.9 183.9 70.6 365.7 166.8 517.4 307.9-70.5 47-143.2 91.9-215.9 134.7-153.9-168.9-337.8-314.3-543.1-408.4-10.6-4.3-23.5-8.5-44.8-8.5-10.7 0-21.5 10.7-21.5 23.5 0 17.1 8.6 25.6 27.9 38.5 211.6 151.8 436.1 408.3 521.6 555.9 12.9 21.4 19.3 40.6 23.6 59.8-12.9-8.5-25.7-10.7-38.5-10.7-53.5 0-104.8 53.5-115.5 154 12.8 29.9 12.8 74.8 12.8 124 0 91.9 0 160.4-6.4 303.6-2.1 57.7-6.4 85.5-19.2 119.7-10.7 25.7-17.1 40.7-17.1 51.3 0 8.6 8.5 17.2 32.1 17.2 10.6 0 61.9-10.7 117.6-32.1 59.8 8.5 119.7 14.9 179.6 21.4 17.1 34.2 29.9 68.4 42.7 102.6-201-12.8-387-29.9-498.2-40.6-17.1 0-29.9 4.2-44.9 23.5-55.6 66.3-68.4 94.1-68.4 109 0 8.6 12.8 10.7 34.2 12.9 427.6 27.7 782.5 57.7 1026.3 81.2 104.7 6.4 143.3 17.1 183.9 40.6 100.4 0 228.7-68.4 228.7-132.5 0-32.1-27.8-51.4-124-53.5-149.7-4.3-339.9-12.8-532.4-25.6-29.9-34.3-59.8-68.5-94.1-100.5 79.2 8.5 156.2 14.9 237.4 21.3 38.5 2.2 76.9 12.9 111.2 30 27.8 0 76.9-30 136.8-74.9 49.2-40.6 62-62 62-79.1 0-21.3-4.2-34.2-23.5-57.7-19.2-23.5-25.6-42.7-25.6-98.3 0-119.8-2.2-265.2-6.4-361.4-4.3-115.4-47.1-141.1-94.1-141.1-30 0-62 32.1-81.3 77-160.3-2.2-318.5-15-476.8-30l15-12.8c40.6-36.3 42.8-53.4 42.8-72.7v-6.4" fill="#600"/>
   </g>
   <g transform="matrix(.01388 0 0 -.01388 -574.4 190.55)">
    <path d="m15909 12922c75.9 34.5 147.6 67 208.8 113.3 139 104.8 174.8 294.3 182.2 482.3-162.3-117.7-372.9-382.1-401.9-600.6 3.6 1.6 7.3 3.3 10.9 5" fill="#764100"/>
   </g>
   <g transform="matrix(.014976 0 0 -.014976 -574.4 190.55)">
    <path d="m15803 10668c-132.1-125.2-265.2-257.9-388.9-387.6 82.4-46.1 169.2-76.2 238.9-95.2 164.1 87.3 316.4 270 438.5 474.5-106.2 8-238 15.2-288.5 8.3zm-926.2-1031.4c240.4 29.86 625.2 284.9 681.5 500.88-62.1 21.1-130.2 49.8-195.9 88.4-218.2-232.1-401-449.4-485.6-589.28zm1387.9 1532.3c-98-9.2-304.4-43.6-492.9-169.3 4.9-83.9 22.5-170.3 35.7-225.9 162.3 151.5 321.1 289.6 457.2 395.2zm-1022.5-648.7c-260.9-130.7-420.7-520.2-413.7-823.11 93.1 145.68 271.1 356.71 481 580.21-38.1 57.8-57.6 144.3-67.3 242.9zm641.1 223.1c78.6-1 178.5-7.9 248.2-13.5 69.2 125.3 126.6 255.3 168.3 373.8-124.2-97.3-268.3-222.6-416.5-360.3zm-136.7-27c-11.5 43-34.3 137.2-44.3 237.2-46.4-17.3-236.2-100.4-393.5-338.4 5.3-113.9 19.1-220.2 52.7-282.9 122.6 128.7 254.2 259.9 385.1 384.1" fill="#030"/>
   </g>
   <g transform="matrix(.014499 0 0 -.014499 -574.4 190.55)">
    <path d="m14466 12524c-9.4-36.9-14.6-74.8-14.6-113.8 0-212.4 103.9-314.7 178.8-425.3l101.9 119c-94.3 114.2-183.7 264.6-266.1 420.1zm650-209.3c-1 301.5 329.4 673.9 519.2 760.3l37.7 17.1 23.9-33.6c31.2-43.7 90-75.3 146.4-96.7-18.7 52-26 102.6-19.9 151.1 16.7 133.9 117.1 0 184.1-16.8 0 301.2-351.4 200.8-752.9 67-305.6-101.9-611-281.3-739.6-516.1 80.5-157.9 221.1-417.4 364.2-554.8 55.5 108.7 142.5 172.5 236.9 222.5zm-413.9-501.6c3.6-27.1 4.1-56.3 0.3-88.8-33.5-284.5 90.5-987.1 334.6-987.1 244 0 217.5 50.2 267.7 535.4 47.8 462 217 575.2 420.8 772.7-3.3-0.4-6.3-0.6-9.5-0.9-342.4-34.2-780.4-77.9-1013.9-231.3zm1338.7 864.8c-53.5 53.6-98.5 107.2-133.6 160-49.2 11.8-132.6 36.8-203.5 82.7-9.5-199.4-52.5-401.3-213.6-522.7-67.4-51-144.4-85.9-218.8-119.8-129.5-59-252.1-115-312.1-248.8 230 63.3 502.8 90.6 746.9 114.9 113.4 11.3 215.1 21.5 298.4 34.1 296 171 160.6 375.3 36.3 499.6" fill="#600"/>
   </g>
   <g transform="matrix(.013271 0 0 -.013271 -574.4 190.55)">
    <path d="m16300 9706-160.7 1117.7-81.2-14 158.7-1103.7h83.2" fill="#030"/>
   </g>
   <g transform="matrix(.013192 0 0 -.013192 -574.4 190.55)">
    <path d="m15432 12041 27.5 1c-3.4 90.8-8.9 170.3-17.5 241.7 24.9-16.6 51.1-32.3 77.9-48.4 111.7-66.8 226.5-135.8 284.1-286.9-113.4 33.4-227.2 59.6-335.9 84.4-12.1 2.7-24.1 5.4-36.1 8.2zm-18.5 415.7c32.5-48.6 92.9-84.8 163-126.6 133.3-79.7 297.8-178.8 354.9-423 80.4-28.6 159.4-62.2 235-103.3-21.8 79-43.6 157.8-63.3 236.2-129.3 517.5-460.6 579.7-866.4 752.5 85.6-104.6 139-205 172.3-330.2 1.5-1.9 3.1-3.5 4.5-5.6zm-327.1 340.1c35.9-213.6 10.6-267.6 60.6-517.8 12.5-62.5 30.8-122.7 53.7-180.7 47.7-13.4 97-25.7 147.7-37.8-16.9 389.4-74.2 539.9-262 736.3zm1121.3-1146.6c-225.1 151.8-498.4 214.4-764.1 275-62.1 14.1-122.9 28.1-182.1 43 92.6-170.7 224.3-318.7 366.5-442.9 225.7-7.7 444-45 632.8-107.4-14.8 77.7-33 155.2-53.1 232.3zm75.8-371.7c-0.6 4.8-1.5 9.5-2.1 14.3-140.5 51.7-317.3 94.9-520.3 113.7 107.3-134.1 158.7-389.2 313.3-440.8 18.5-6.1 35.5-9.3 51.4-10.1 141.8-6.4 173.9 192.8 157.7 322.9" fill="#030"/>
   </g>
   <g transform="matrix(.013502 0 0 -.013502 -574.4 190.55)">
    <path d="m16182 11402v-1862.2h118.2v1862.2h-118.2" fill="#030"/>
   </g>
  </g>
 </g>
</svg>
