<?xml version="1.0" encoding="UTF-8"?>
<svg width="105.83mm" height="148.17mm" version="1.1" viewBox="0 0 105.83 148.17" xmlns="http://www.w3.org/2000/svg">
 <g transform="translate(-52.162 -74.417)">
  <rect x="52.162" y="74.417" width="105.83" height="148.17" fill="#f9f9f9"/>
  <g transform="translate(310.93 948.91)">
   <g transform="matrix(.25378 0 0 .25378 -270.67 -963.83)">
    <g fill="#030">
     <ellipse cx="135.05" cy="680.43" rx="24.68" ry="19.097"/>
     <ellipse cx="164.02" cy="680.43" rx="24.68" ry="19.097"/>
     <ellipse cx="133.84" cy="829.8" rx="24.68" ry="19.097"/>
    </g>
    <path d="m149.58 818.82v-134.67" fill="none" stroke="#030" stroke-linecap="round" stroke-width="55"/>
    <g fill="#030">
     <ellipse cx="165.64" cy="829.8" rx="24.68" ry="19.097"/>
     <ellipse cx="160.99" cy="748.83" rx="32.787" ry="25.37"/>
     <ellipse cx="138.32" cy="748.83" rx="32.787" ry="25.37"/>
    </g>
    <path d="m149.58 685.72v37.842" fill="none" stroke="#fff" stroke-linecap="round" stroke-width="12.511"/>
    <path d="m149.58 777.56v46.734" fill="none" stroke="#fff" stroke-linecap="round" stroke-width="12.511"/>
    <ellipse cx="149.58" cy="683.53" rx="8.992" ry="8.6975" fill="#fff"/>
    <path d="m140.23 761.82c4.2282-6.4408 15.56-6.1631 19.118 0" fill="none" stroke="#fff" stroke-linecap="round" stroke-linejoin="round" stroke-width="10.426"/>
    <path d="m140.23 743.53c4.2282-6.4408 15.56-6.1631 19.118 0" fill="none" stroke="#fff" stroke-linecap="round" stroke-linejoin="round" stroke-width="10.426"/>
   </g>
   <g transform="matrix(.25378 0 0 .25378 -217 -963.83)">
    <g fill="#030">
     <ellipse cx="135.05" cy="680.43" rx="24.68" ry="19.097"/>
     <ellipse cx="164.02" cy="680.43" rx="24.68" ry="19.097"/>
     <ellipse cx="133.84" cy="829.8" rx="24.68" ry="19.097"/>
    </g>
    <path d="m149.58 818.82v-134.67" fill="none" stroke="#030" stroke-linecap="round" stroke-width="55"/>
    <g fill="#030">
     <ellipse cx="165.64" cy="829.8" rx="24.68" ry="19.097"/>
     <ellipse cx="160.99" cy="748.83" rx="32.787" ry="25.37"/>
     <ellipse cx="138.32" cy="748.83" rx="32.787" ry="25.37"/>
    </g>
    <path d="m149.58 685.72v37.842" fill="none" stroke="#fff" stroke-linecap="round" stroke-width="12.511"/>
    <path d="m149.58 777.56v46.734" fill="none" stroke="#fff" stroke-linecap="round" stroke-width="12.511"/>
    <ellipse cx="149.58" cy="683.53" rx="8.992" ry="8.6975" fill="#fff"/>
    <path d="m140.23 761.82c4.2282-6.4408 15.56-6.1631 19.118 0" fill="none" stroke="#fff" stroke-linecap="round" stroke-linejoin="round" stroke-width="10.426"/>
    <path d="m140.23 743.53c4.2282-6.4408 15.56-6.1631 19.118 0" fill="none" stroke="#fff" stroke-linecap="round" stroke-linejoin="round" stroke-width="10.426"/>
   </g>
   <g transform="matrix(.25378 0 0 .25378 -244.39 -991.5)">
    <g fill="#600">
     <ellipse cx="135.05" cy="680.43" rx="24.68" ry="19.097"/>
     <ellipse cx="164.02" cy="680.43" rx="24.68" ry="19.097"/>
     <ellipse cx="133.84" cy="829.8" rx="24.68" ry="19.097"/>
    </g>
    <path d="m149.58 818.82v-134.67" fill="none" stroke="#600" stroke-linecap="round" stroke-width="55"/>
    <g fill="#600">
     <ellipse cx="165.64" cy="829.8" rx="24.68" ry="19.097"/>
     <ellipse cx="160.99" cy="748.83" rx="32.787" ry="25.37"/>
     <ellipse cx="138.32" cy="748.83" rx="32.787" ry="25.37"/>
    </g>
    <path d="m149.58 685.72v37.842" fill="none" stroke="#fff" stroke-linecap="round" stroke-width="12.511"/>
    <path d="m149.58 777.56v46.734" fill="none" stroke="#fff" stroke-linecap="round" stroke-width="12.511"/>
    <ellipse cx="149.58" cy="683.53" rx="8.992" ry="8.6975" fill="#fff"/>
    <path d="m140.23 761.82c4.2282-6.4408 15.56-6.1631 19.118 0" fill="none" stroke="#fff" stroke-linecap="round" stroke-linejoin="round" stroke-width="10.426"/>
    <path d="m140.23 743.53c4.2282-6.4408 15.56-6.1631 19.118 0" fill="none" stroke="#fff" stroke-linecap="round" stroke-linejoin="round" stroke-width="10.426"/>
   </g>
   <g transform="matrix(.25378 0 0 .25378 -217 -1019)">
    <g fill="#030">
     <ellipse cx="135.05" cy="680.43" rx="24.68" ry="19.097"/>
     <ellipse cx="164.02" cy="680.43" rx="24.68" ry="19.097"/>
     <ellipse cx="133.84" cy="829.8" rx="24.68" ry="19.097"/>
    </g>
    <path d="m149.58 818.82v-134.67" fill="none" stroke="#030" stroke-linecap="round" stroke-width="55"/>
    <g fill="#030">
     <ellipse cx="165.64" cy="829.8" rx="24.68" ry="19.097"/>
     <ellipse cx="160.99" cy="748.83" rx="32.787" ry="25.37"/>
     <ellipse cx="138.32" cy="748.83" rx="32.787" ry="25.37"/>
    </g>
    <path d="m149.58 685.72v37.842" fill="none" stroke="#fff" stroke-linecap="round" stroke-width="12.511"/>
    <path d="m149.58 777.56v46.734" fill="none" stroke="#fff" stroke-linecap="round" stroke-width="12.511"/>
    <ellipse cx="149.58" cy="683.53" rx="8.992" ry="8.6975" fill="#fff"/>
    <path d="m140.23 761.82c4.2282-6.4408 15.56-6.1631 19.118 0" fill="none" stroke="#fff" stroke-linecap="round" stroke-linejoin="round" stroke-width="10.426"/>
    <path d="m140.23 743.53c4.2282-6.4408 15.56-6.1631 19.118 0" fill="none" stroke="#fff" stroke-linecap="round" stroke-linejoin="round" stroke-width="10.426"/>
   </g>
   <g transform="matrix(.25378 0 0 .25378 -270.67 -1019)">
    <g fill="#030">
     <g>
      <ellipse cx="135.05" cy="680.43" rx="24.68" ry="19.097"/>
      <ellipse cx="164.02" cy="680.43" rx="24.68" ry="19.097"/>
      <ellipse cx="133.84" cy="829.8" rx="24.68" ry="19.097"/>
     </g>
     <path d="m149.58 818.82v-134.67" fill-rule="evenodd" stroke="#030" stroke-linecap="round" stroke-width="55"/>
     <g>
      <ellipse cx="165.64" cy="829.8" rx="24.68" ry="19.097"/>
      <ellipse cx="160.99" cy="748.83" rx="32.787" ry="25.37"/>
      <ellipse cx="138.32" cy="748.83" rx="32.787" ry="25.37"/>
     </g>
    </g>
    <path d="m149.58 685.72v37.842" fill="none" stroke="#fff" stroke-linecap="round" stroke-width="12.511"/>
    <path d="m149.58 777.56v46.734" fill="none" stroke="#fff" stroke-linecap="round" stroke-width="12.511"/>
    <ellipse cx="149.58" cy="683.53" rx="8.992" ry="8.6975" fill="#fff"/>
    <path d="m140.23 761.82c4.2282-6.4408 15.56-6.1631 19.118 0" fill="none" stroke="#fff" stroke-linecap="round" stroke-linejoin="round" stroke-width="10.426"/>
    <path d="m140.23 743.53c4.2282-6.4408 15.56-6.1631 19.118 0" fill="none" stroke="#fff" stroke-linecap="round" stroke-linejoin="round" stroke-width="10.426"/>
   </g>
  </g>
 </g>
</svg>
