<?xml version="1.0" encoding="UTF-8"?>
<svg width="105.83mm" height="148.17mm" version="1.1" viewBox="0 0 105.83 148.17" xmlns="http://www.w3.org/2000/svg">
 <g transform="translate(-52.162 -74.417)">
  <rect x="52.162" y="74.417" width="105.83" height="148.17" fill="#f9f9f9"/>
  <g transform="translate(335.53 139.43)">
   <g transform="matrix(.023063 0 0 -.023063 -574.4 190.55)">
    <path d="m15901 9572.8c-12.9 0-20.1 7.18-20.1 15.78 0 7.18 4.3 14.36 13 21.53 54.5 44.49 100.4 99.02 121.9 136.33 12.9 22.97 20.1 37.32 20.1 50.23 0 8.61-1.4 21.53-2.9 30.14 0 17.22 4.4 21.53 24.4 21.53 21.6 0 47.4-15.79 80.4-43.06 28.7-21.52 48.8-47.35 48.8-73.19 0-12.92-11.5-27.26-22.9-35.88-66.1-45.92-166.5-94.71-249.8-120.54-5.7-1.44-10-2.87-12.9-2.87zm-268.3-57.4c-28.7 0-54.6 22.96-71.8 64.58-25.8 61.7-41.6 130.59-41.6 163.59 0 17.23 4.3 28.7 17.2 28.7 10.1 0 23-7.17 38.8-20.08 73.2-58.85 116.2-117.68 116.2-167.91 0-47.36-18.6-68.88-58.8-68.88zm84.7-294.2c-68.9-94.72-190.9-180.83-282.8-215.27-11.5-4.29-38.7-11.48-44.5-11.48-14.3 0-20 7.19-20 17.22 0 7.19 4.3 17.22 20 27.26 100.5 64.59 170.8 132.05 228.2 228.19 57.4 93.28 103.3 209.53 120.6 436.27 4.3 54.54 5.7 97.58 5.7 153.55 0 34.45 0 74.63-1.4 123.42-4.3 43.01-8.6 70.31-17.3 91.81-7.1 17.3-10 27.3-10 34.5 0 8.6 7.2 12.9 20.1 12.9 31.6 0 81.8-14.4 100.5-23 38.7-15.8 58.8-31.5 58.8-51.6 0-12.9-4.3-23-11.5-34.5-7.2-11.45-12.9-41.59-14.3-73.16-2.9-109.06-13-246.84-18.7-308.54-2.9-25.83-5.8-51.66-10.1-77.5 58.9-107.63 110.6-177.95 206.7-294.19 21.5-25.83 76.1-76.06 110.5-100.46 41.6-28.7 84.7-58.83 116.2-78.93 21.6-14.35 25.9-20.09 25.9-30.13 0-12.93-8.6-18.67-21.6-21.51-43-8.64-99-14.38-131.9-14.38-20.2 0-43.1 1.45-66.1 4.29-41.6 4.35-50.2 15.83-66 41.64-79 130.59-134.9 241.09-198.1 378.86-22.9-83.23-55.9-156.42-98.9-215.26zm-381.8-193.75c0-63.15-20.1-96.15-57.4-96.15-41.6 0-77.5 73.18-77.5 133.48 11.5 41.61 17.2 68.88 18.7 116.24 4.3 111.94 8.5 216.7 11.4 332.94-73.1-91.85-142-153.56-232.4-215.27-14.4-10.04-30.2-14.34-44.6-14.34-14.3 0-20 10.04-20 20.09 0 7.17 10 15.78 20 27.26 70.4 74.63 159.4 166.47 244 332.95-61.7-10.05-122-21.53-176.5-31.58-11.4 0-27.3 4.31-48.8 30.14-24.3 28.7-33 40.18-33 51.67 0 8.6 5.8 11.47 20.1 12.91 97.6 10.05 192.3 22.96 271.2 34.44v78.93c0 38.75-1.4 66.01-5.7 87.54-67.4-18.66-132-34.44-183.7-43.05-15.8 0-27.3 2.87-27.3 17.22 0 12.91 7.2 14.35 27.3 22.96 97.6 44.49 180.9 93.24 249.7 147.84 20.1 15.8 31.6 31.5 34.4 47.3 2.9 18.7 4.4 31.6 24.4 31.6 23 0 61.8-28.7 79-45.9 20.1-18.7 37.3-40.2 37.3-57.4 0-15.8-7.2-25.9-20.1-33-37.3-20.12-80.4-38.78-126.3-56 23-14.35 38.8-31.57 38.8-57.4 0-11.48-2.9-22.96-7.2-40.19-2.9-11.47-4.3-41.61-7.2-83.23 34.5 7.18 53.1 14.35 67.5 24.4 58.8-17.22 86.1-44.49 86.1-70.32 0-18.65-17.3-31.57-57.4-35.88-30.1-2.87-63.2-7.18-97.6-11.48l-1.4-71.75c103.2-7.18 196.5-50.23 196.5-117.68 0-37.31-24.4-60.28-43-60.28-21.6 0-45.9 4.31-70.3 31.58-27.3 31.57-53.1 57.4-83.2 86.1l-5.8-526.69" fill="#600"/>
   </g>
   <g transform="matrix(.021769 0 0 -.021769 -574.4 190.55)">
    <path d="m16220 7391.5c-0.9-114.02-21.3-241.54-59.1-352.85-35.6-105.13-86.2-190.89-135.2-273.83-39.3-66.65-76.5-129.56-105.8-201.06l-4-9.71c-52.2-127-115.5-281.09-87.2-418.16 24 107.53 95.6 368.02 257.3 552.78 197.1 225.18 213.6 487.61 134 702.83zm-336.2-812.92c30.4 74.11 70 141.16 108.3 206.07 48 81.21 97.6 165.23 131.9 266.47 33.6 99.3 53.1 211.69 56.7 314.67-15.3-37.41-30.8-74.72-46.7-111.93-80.8-189.35-195.1-363.11-270.8-554-38.4-97-65-198.3-72.8-302.56-2.8-37.15-3.3-74.46-1.6-111.67 15.3 98.9 55.6 197.02 91 283.24l4 9.71" fill="#030"/>
   </g>
   <g transform="matrix(.02248 0 0 -.02248 -574.4 190.55)">
    <path d="m16300 6547c-62-81.31-145.3-161.78-232.2-221.32-82.1-56.27-164.5-90.52-244.2-123.68-64.1-26.62-124.7-51.76-184.2-87.25l-8-4.85c-105.8-63.05-234.1-139.51-287.5-253.05 75.1 64.19 266.6 212.52 481.9 258.05 262.5 55.58 415.6 234.88 474.2 432.1zm-678.4-402.26c61.6 36.82 126.1 63.65 188.5 89.53 78.1 32.47 158.9 66.02 237.9 120.21 77.6 53.16 152 123.29 209.9 195.24-31-18.65-62.2-37.02-93.6-55.18-159.8-92.35-335.3-155.5-492.3-251.71-79.7-48.89-153.3-107.29-215-177.87-21.9-25.14-42.3-51.66-61.1-79.28 64.1 62.75 145.8 111.45 217.6 154.26l8.1 4.8" fill="#030"/>
   </g>
   <g transform="matrix(.020925 0 0 -.020925 -574.4 190.55)">
    <path d="m16293 6288.8c-174.1 190.72-99.6 753.5-119.8 905.19-20.3 151.69-113.1 465.92-323.4 476.39-210.4 10.42-317.4-170.14-358.3-248.35-60.9 351.45 206.8 506.06 410.6 498.99 203.7-7.02 391.9-242.4 394.7-443.11 3-200.76-59.8-661.79-62.8-826.18-3.1-164.45 18.4-250.37 59-362.93" fill="#030"/>
   </g>
   <g transform="matrix(.020864 0 0 -.020864 -574.4 190.55)">
    <path d="m15912 8450.9c-32.5 25.59-16.6 79.5 43.5 105.16-39.3-133.26 344.4-85.38 222.8-314.94-194.8-171.92-238 212.28-358.4 142.91 11 64.42 59.6 92.46 92.1 66.87" fill="#030"/>
   </g>
   <g transform="matrix(.020263 0 0 -.020263 -574.4 190.55)">
    <path d="m16300 8699.9c-111.2-22.18-207.3-52.27-216.9-156.53-9.5-104.27 58-171.74 112.5-184.21-37.6-41.4-109.8-13.29-109.8-13.29-8.3-40.63-30.7-77.14-30.7-77.14-41.5 24.98-62.5 64.85-62.5 64.85-31-22.35-87.4-44.26-87.4-44.26-15.9 37.23-17.8 70.39-17.8 70.39-88.2-14.93-118 26.41-118 26.41 36 19.71 86.2 48.04 113.3 136.71 27.1 88.68 87.4 179.32 165.5 199.53s196.3 6.59 251.8-22.46" fill="#600"/>
   </g>
   <g transform="matrix(.020027 0 0 -.020027 -574.4 190.55)">
    <path d="m16300 8870.4c-167-39.5-274.7-77.44-333.1-245.21-54.8 38.39-34.4 96-34.4 96-62.2-19.45-106-16.11-106-16.11-5.8 32.33 34 96.05 34 96.05-87.5 6.77-118.6 65.33-118.6 65.33 123.1 38.55 362.6 142.82 558.1 3.94" fill="#600"/>
   </g>
   <g transform="matrix(.020829 0 0 -.020829 -574.4 190.55)">
    <path d="m15920 8554.8c5.4 110.19 20.5 206.98 119.5 231.17 98.9 24.25 173.6-31.03 193.4-81.77 34.4 42.25-3 107.57-3 107.57 37.9 13.94 69.8 40.65 69.8 40.65-30 36.43-71.4 50.79-71.4 50.79 17.1 33.07 30 90.49 30 90.49-38.1 9.93-70.3 6.99-70.3 6.99 1.7 87.01-42.3 109.77-42.3 109.77-13.8-37.5-33.9-89.9-115.3-128.73s-159.9-109.87-168.2-187.91c-8.2-78.03 21.9-189.83 57.8-239.02" fill="#600"/>
   </g>
   <g transform="matrix(.020464 0 0 -.020464 -574.4 190.55)">
    <path d="m16111 8883.6c14.1 167.29 35.2 277.06 189.1 357.95-45 47.41-97.9 19.3-97.9 19.3 9.9 63.07 0.3 104.93 0.3 104.93-32.2 0.98-88.1-46.81-88.1-46.81-19.2 83.72-80.4 105.42-80.4 105.42-19.4-124.83-85.7-371.65 77-540.79" fill="#600"/>
   </g>
   <g transform="matrix(.020278 0 0 -.020278 -574.4 190.55)">
    <path d="m15635 8960.2c111.7 61.67 204.4-11.46 296-68.47 99-61.77 208.5-111.37 322.7-138.42-116.9 75.71-360.1 231.47-508.7 314.65-37.5-4.28-102.3-30.07-110-107.76zm134.4 316.3c10.1-50.42 12.2-85.43 42.9-111.27-30.8 25.73-65.6 21.78-117 23.05 0 0 13.2-33.36 40.4-78.51 141.7-76.76 389.6-234.99 519.1-318.77l-369.3 445.89c-65.1 29.02-116.1 39.61-116.1 39.61zm332.7-181.22c-72 80.38-160 159.11-118.4 279.81-60.5-16.9-81.6-64.52-86.3-102.1l402.9-486.38c-46.3 113.57-116.8 217.81-198.2 308.67" fill="#600"/>
   </g>
   <g transform="matrix(.021292 0 0 -.021292 -574.4 190.55)">
    <path d="m15897 8086.9-23.9-52.3c245-180.53 366.8-483.85 311.4-783.93-15.5-83.91-42.4-166.78-68.4-246.99-32.1-99.12-65.3-201.69-78.8-309.95-23.7-190.25-14-367.9 28.7-528.16 10.9-41.02 24.1-79.68 39.1-116.1l54 16.93c-14.9 35.48-28 73.25-38.8 113.7-40.8 153.14-49.9 323.64-27.2 506.68 12.8 102.98 45.2 202.89 76.6 299.55 26.5 81.88 54 166.53 70.2 254.15 60 325.27-74.1 654.03-342.9 846.42" fill="#030"/>
   </g>
   <g transform="matrix(.022051 0 0 -.022051 -574.4 190.55)">
    <path d="m16227 8232.1c28.6 19.43 18.5 65.24-30 90.22 24.8-113.38-291.9-50.66-204.3-249.15 152-154.74 210.9 162.72 307 97.78-5.3 54.29-44.1 80.58-72.7 61.15" fill="#030"/>
   </g>
   <g transform="matrix(.0226 0 0 -.0226 -574.4 190.55)">
    <path d="m15899 8026.1c86.6-23.73 160.8-52.87 162.4-135.77 1.7-82.8-55.4-132.27-99.1-139.07 27.4-34.75 85.9-16.63 85.9-16.63 4.3-32.54 19.9-62.62 19.9-62.62 34.2 17.37 53 47.65 53 47.65 23.1-19.4 66.5-39.82 66.5-39.82 14.6 28.45 18 54.54 18 54.54 68.8-16.74 94.6 14.18 94.6 14.18-27.3 17.57-65.3 42.83-81.8 114.3-16.4 71.53-58.8 146.45-119.3 166.83-60.5 20.33-154.6 16.2-200.1-3.59" fill="#764100"/>
   </g>
   <g transform="matrix(.022861 0 0 -.022861 -574.4 190.55)">
    <path d="m15870 7976.6c126.7-39.66 207.6-74.85 243.5-207.47 44.3 26.62 31.8 72.18 31.8 72.18 46.9-18.45 80.8-18.25 80.8-18.25 6.3 24.62-20.9 75.96-20.9 75.96 67.8 0.39 95.1 43.85 95.1 43.85-92.9 36.5-271.9 130.09-430.3 33.73" fill="#764100"/>
   </g>
   <g transform="matrix(.022067 0 0 -.022067 -574.4 190.55)">
    <path d="m16236 8299.6c2.1 91.91-4.8 173.23-85.5 199.19-80.9 26.02-146.1-15.52-165.7-56.46-26 37.1 8.9 89.18 8.9 89.18-30.6 13.82-55.5 37.92-55.5 37.92 27 28.48 62.3 37.96 62.3 37.96-12.2 28.48-19.6 76.99-19.6 76.99 32.3 6 58.8 1.66 58.8 1.66 3.8 72.4 41.7 88.68 41.7 88.68 9.3-31.96 22.9-76.73 88.2-113.79 65.3-37.1 126.4-100.78 128.6-166.12s-29.5-156.44-62.2-195.21" fill="#764100"/>
   </g>
   <g transform="matrix(.022291 0 0 -.022291 -574.4 190.55)">
    <path d="m16159 8353.4c-1.8 136.01-12.5 225.95-132.3 300.16 39.2 35.74 80.2 9.99 80.2 9.99-4.2 51.5 5.9 84.8 5.9 84.8 26-1.05 68.5-42.88 68.5-42.88 20.3 66.58 71 80.56 71 80.56 8.6-102.02 47.9-305.36-93.3-432.63" fill="#764100"/>
   </g>
   <g transform="matrix(.02278 0 0 -.02278 -574.4 190.55)">
    <path d="m16220 8225.8c-121.2-56.85-320.5-165.32-416.3-218.11 91 14.8 179.5 47.52 260.7 90.4 74.8 39.56 151.6 91.72 235.7 37.12-1.7 61.34-51 85.17-80.1 90.59zm-100.7 140.22-314.4-328.73c106.2 58.41 309.3 168.54 424.6 220.79 23.9 33.8 36.1 59.25 36.1 59.25-40.3 1.9-67.4 6.93-93-11.53 25.5 18.56 29.1 45.86 39.8 84.83 0 0-40.5-5.47-93.1-24.61zm-350.3-329.66 343 358.67c-1.6 29.69-15.5 68.17-62 84.83 25.9-96.9-47.5-153.7-108.4-212.64-68.9-66.67-129.9-144.47-172.6-230.86" fill="#764100"/>
   </g>
   <g transform="matrix(.021609 0 0 -.021609 -574.4 190.55)">
    <path d="m16282 8251.3c-244.9-150.29-381.7-427.18-349.7-713.09 3.7-32.9 9.3-65.44 15.8-97.56 15.9 29.76 25.9 63.22 33.8 95.71-0.3 2.42-0.6 4.84-0.9 7.31-29.5 263.71 94.9 519.34 318.6 660.77l-17.6 46.86" fill="#030"/>
   </g>
  </g>
 </g>
</svg>
