<?xml version="1.0" encoding="UTF-8"?>
<svg width="105.83mm" height="148.17mm" version="1.1" viewBox="0 0 105.83 148.17" xmlns="http://www.w3.org/2000/svg">
 <g transform="translate(-105.71 -140.13)">
  <rect x="105.71" y="140.13" width="105.83" height="148.17" fill="#f9f9f9"/>
  <g transform="translate(266.7 205.33)">
   <g transform="matrix(.030559 0 0 -.030559 -574.4 190.55)">
    <path d="m15680 7472.6c32.5-28.17 65-57.41 99.6-84.48 42.3 47.65 81.3 97.47 114.8 150.54-50.9-8.66-103.9-18.41-173.3-32.49-13-10.83-27-22.74-41.1-33.57zm-13-345.5c0 4.34 4.3 8.67 16.2 8.67 29.3 0 75.9-4.33 117-15.17 61.8-16.24 88.8-46.57 88.8-79.06 0-30.33-21.6-47.66-37.9-47.66-22.7 0-50.9 13.01-94.2 45.49-30.3 22.75-56.3 46.58-79.1 68.24-7.6 7.58-10.8 15.16-10.8 19.49zm-10.8-229.6c0 4.33 4.3 8.66 16.2 8.66 42.3 0 102.9-8.66 144.1-19.5 61.7-16.24 90.9-44.38 90.9-76.9 0-29.23-21.6-49.8-48.7-49.8-18.4 0-43.3 9.72-88.8 40.05-37.9 24.93-80.1 56.33-102.9 77.99-7.6 7.58-10.8 15.16-10.8 19.5zm225.2 705.06c24.9 4.33 40.1 11.91 54.2 22.75 17.3-6.5 50.9-23.83 67.1-37.91 26-21.66 34.7-30.33 34.7-43.32 0-10.83-5.4-20.58-14.1-25.99-9.7-6.5-31.4-22.75-49.8-47.66-36.8-50.9-76.9-97.47-119.1-140.8 57.4-43.32 115.8-83.39 165.7-114.8 36.8-22.74 63.9-34.66 97.4-46.57 68.3-23.83 124.6-40.07 163.6-55.24 14.1-5.41 18.4-14.08 18.4-21.66 0-10.83-7.6-15.16-26-19.5-48.7-10.82-126.7-18.4-193.9-18.4-18.4 0-31.4 4.33-47.6 18.4-83.4 72.57-162.5 141.89-232.9 205.79-150.5-135.39-321.6-228.53-483-279.43-17.4 0-24.9 5.41-24.9 15.16 0 8.67 5.4 16.25 15.2 20.58 138.6 67.15 294.5 173.29 425.6 304.34-35.8 31.41-70.4 63.9-104 97.47-60.6-40.07-119.1-68.23-163.5-84.48-14.1-5.41-29.3-7.58-35.8-7.58-5.4 0-11.9 6.5-11.9 13 0 7.58 4.3 13 13 18.41 70.4 43.32 149.5 114.8 205.8 187.37 11.9 15.16 16.2 27.08 16.2 45.49 0 5.42 0 11.91-1 18.41 0 10.83 4.3 16.25 15.1 16.25 16.2 0 33.6-5.42 66.1-32.5 15.1-11.91 24.9-21.66 30.3-29.24 44.4 8.67 85.6 16.25 119.1 21.66" fill="#600"/>
   </g>
   <g transform="matrix(.030212 0 0 -.030212 -574.4 190.55)">
    <path d="m15324 4328.9c458.5 239.51 854.1 863.7 965.5 1051.2-187-115.97-782.1-518.88-965.5-1051.2zm11.5-33.11c213.3 23.83 576.5 119.68 741 370.91 127.6 194.8 196.3 511.39 223.3 662.6-134.3-223.02-514.6-802.54-964.3-1033.5zm921.2 1104.5c-343.8-96.08-584.2-305.65-700.3-435.54-114.1-127.67-248.8-425.66-262.4-617.27 185.4 526.09 759.4 924.88 962.7 1052.8" fill="#030"/>
   </g>
   <g transform="matrix(.028376 0 0 -.028376 -574.4 190.55)">
    <path d="m16267 4811.5c-116.6 455.4-570.7 835.21-732.3 958.4 88.3-182.43 370.6-720.96 732.3-958.4zm-753.7 917.47c12.3-135.43 47.2-403.61 139.3-576.56 119.6-224.54 415.5-335.19 597.8-374.12-360.3 233.13-636.2 744.25-737.1 950.68zm786.4-898.22c-1.7 166.16-91.6 421.68-177.3 537.11-88.4 119-274.7 314.06-556.1 424.08 170.6-131.43 612.1-507.71 733.4-961.19" fill="#030"/>
   </g>
   <g transform="matrix(.029941 0 0 -.029941 -574.4 190.55)">
    <path d="m16090 6179.2c-75.9 36.16-94.5 114.64-50.5 150.24v0.04c-21.4 52.35 32.7 112.21 116.6 107.38 51.1-2.86 79.1-39.68 93.2-68 6.9 3.98 15.3 5.39 23.6 3.27 17-4.35 27.3-21.7 22.9-38.79-4.4-17.02-21.7-27.27-38.7-22.93-0.7 0.19-1.2 0.63-1.8 0.86l-1.1-4.39c0.6-0.11 1.2 0.08 1.9-0.11 17.1-4.35 27.3-21.74 22.9-38.76-4.3-17.01-21.7-27.31-38.7-22.92-0.7 0.15-1.1 0.59-1.7 0.82l-1.2-4.35c0.7-0.15 1.3 0.07 2-0.11 17-4.35 27.3-21.74 22.9-38.76-4.3-17.06-21.7-27.31-38.8-22.96-8.3 2.15-14.9 7.43-19.1 14.19-26-17.98-68.2-36.79-114.4-14.72" fill="#030"/>
   </g>
   <g transform="matrix(.029711 0 0 -.029711 -574.4 190.55)">
    <path d="m16053 5964.5c-49 61.48-32.6 135.18 19.1 147.16v0.04c3.4 52.83 73.4 81.14 142.1 42.76 41.9-23.37 50.4-65.83 50.7-95.45 7.4 0.45 15.1-1.72 21.2-6.89 12.5-10.67 14.1-29.51 3.4-42.09-10.6-12.55-29.4-14.08-42-3.41-0.5 0.41-0.7 0.94-1.1 1.39l-2.8-3.26c0.5-0.34 1.1-0.41 1.6-0.86 12.6-10.64 14.1-29.43 3.4-42.02-10.6-12.54-29.4-14.11-41.9-3.44-0.5 0.41-0.8 0.97-1.2 1.38l-2.7-3.22c0.5-0.37 1-0.41 1.5-0.82 12.6-10.67 14.1-29.51 3.5-42.05-10.7-12.59-29.5-14.12-42-3.49-6.1 5.25-9.6 12.36-10.4 19.81-29.2-4.57-72.5-3.07-102.4 34.46" fill="#030"/>
   </g>
   <g transform="matrix(.029459 0 0 -.029459 -574.4 190.55)">
    <path d="m16077 5773.4c-30.4 61.29-3 120.92 43.1 121.68 12.6 44.37 77.3 55.59 128.7 10.35 31.4-27.53 30.8-65.19 25.6-90.45 6.4-0.95 12.5-4.23 16.8-9.75 8.7-11.36 6.6-27.64-4.8-36.4-11.4-8.73-27.6-6.61-36.4 4.79-0.3 0.42-0.4 0.95-0.6 1.36l-3-2.26c0.4-0.34 0.9-0.53 1.2-0.99 8.7-11.33 6.6-27.64-4.7-36.36-11.4-8.73-27.7-6.58-36.4 4.79-0.3 0.42-0.4 0.91-0.7 1.36l-2.9-2.26c0.3-0.42 0.8-0.53 1.1-0.99 8.8-11.4 6.7-27.64-4.7-36.4-11.4-8.69-27.7-6.57-36.4 4.76-4.2 5.55-5.9 12.27-5.2 18.73-25.7 1.47-62.2 10.69-80.7 48.04" fill="#030"/>
   </g>
   <g transform="matrix(.029276 0 0 -.029276 -574.4 190.55)">
    <path d="m16113 5518.3c-32.8 48.49-16.3 102.22 22.7 108.15 5.6 39.03 59.2 55.98 107.9 23.52 29.8-19.76 33.6-51.75 32.1-73.72 5.6-0.15 11.1-2.24 15.4-6.38 8.6-8.67 8.7-22.69 0-31.43-8.6-8.66-22.6-8.74-31.4-0.08-0.3 0.31-0.4 0.72-0.6 1.1l-2.3-2.28c0.3-0.3 0.8-0.37 1.1-0.72 8.8-8.62 8.8-22.68 0.2-31.35-8.7-8.74-22.7-8.81-31.5-0.19-0.3 0.34-0.3 0.8-0.7 1.14l-2.2-2.24c0.4-0.3 0.8-0.42 1.1-0.72 8.7-8.67 8.8-22.69 0.2-31.43-8.7-8.66-22.7-8.74-31.5-0.11-4.2 4.21-6.3 9.72-6.5 15.27-22-1.67-54 1.94-74 31.47" fill="#030"/>
   </g>
   <g transform="matrix(.029243 0 0 -.029243 -574.4 190.55)">
    <path d="m16300 6259.4-11.8-30.09c-94.3 56.65-146.2 14.15-181.6-14.84l-9.1-7.19v40.82c38.6 30.32 102.1 69.28 202.5 11.3" fill="#030"/>
   </g>
   <g transform="matrix(.029088 0 0 -.029088 -574.4 190.55)">
    <path d="m16300 6009.9-11.1-30.14c-68.6 23.33-110.3-10.44-140.2-34.88l-9-7.27v41.04c32.8 25.9 83.9 57.8 160.3 31.25" fill="#030"/>
   </g>
   <g transform="matrix(.028937 0 0 -.028937 -574.4 190.55)">
    <path d="m16300 5726.2v-32.72c-51.6 6.23-85.6-21.14-111-41.91l-9.2-7.3v41.22c26.8 21.1 65.6 46.1 120.2 40.71" fill="#030"/>
   </g>
   <g transform="matrix(.029399 0 0 -.029399 -574.4 190.55)">
    <path d="m15754 4794.7c48 379.69 178.1 1417.8 216.5 1533 28.8 86.4 78.1 144.34 142.5 167.46 56.7 20.4 122.4 12.91 187.3-20.77v-46.55c-61 37.12-122.5 47.49-173.6 29.14-52.3-18.77-92.9-67.93-117.7-142.14-36.4-109.18-164.2-1047.1-213.2-1433.4l-41.8-86.74" fill="#030"/>
   </g>
   <g transform="matrix(.02761 0 0 -.02761 -574.4 190.55)">
    <path d="m16209 6481.4c73.2 34.9 91.1 110.61 48.7 144.98 20.6 50.53-31.5 108.31-112.5 103.68-49.4-2.78-76.4-38.28-90-65.64-6.7 3.83-14.7 5.2-22.7 3.18-16.5-4.23-26.4-20.99-22.2-37.43s20.9-26.35 37.4-22.12c0.7 0.12 1 0.56 1.7 0.76l1.1-4.19c-0.7-0.12-1.2 0.04-1.9-0.08-16.5-4.23-26.3-21.03-22.1-37.43 4.2-16.44 21-26.4 37.4-22.17 0.6 0.17 1 0.61 1.6 0.81l1.1-4.19c-0.6-0.16-1.1 0.04-1.8-0.12-16.5-4.19-26.4-20.95-22.1-37.4 4.2-16.43 20.9-26.35 37.4-22.16 8 2.1 14.4 7.18 18.4 13.66 25.1-17.32 65.8-35.46 110.5-14.14" fill="#030"/>
   </g>
   <g transform="matrix(.027798 0 0 -.027798 -574.4 190.55)">
    <path d="m16253 6187.8c46.6 58.51 31 128.59-18.1 140.04-3.3 50.27-69.9 77.17-135.2 40.66-39.9-22.21-47.9-62.59-48.3-90.77-7 0.4-14.3-1.64-20.1-6.6-11.9-10.13-13.4-28.02-3.3-39.98 10.1-11.97 28.1-13.41 40-3.29 0.5 0.4 0.7 0.92 1.1 1.32l2.6-3.04c-0.5-0.36-1-0.44-1.5-0.84-12-10.12-13.4-28.02-3.3-39.94 10.1-11.97 28-13.45 39.9-3.32 0.5 0.4 0.7 0.92 1.1 1.32l2.6-3.05c-0.4-0.36-1-0.44-1.5-0.79-11.9-10.17-13.4-28.06-3.2-40.03 10.1-11.93 28-13.41 40-3.28 5.8 4.96 9 11.77 9.8 18.85 27.8-4.36 69-2.92 97.4 32.74" fill="#030"/>
   </g>
   <g transform="matrix(.027949 0 0 -.027949 -574.4 190.55)">
    <path d="m16271 5927.5c28.6 57.52 2.8 113.45-40.4 114.17-11.8 41.6-72.6 52.11-120.7 9.71-29.5-25.83-28.9-61.14-24.1-84.87-6-0.91-11.7-3.94-15.7-9.15-8.1-10.67-6.2-25.92 4.5-34.16 10.6-8.16 25.9-6.17 34.1 4.54 0.3 0.4 0.4 0.88 0.6 1.27l2.8-2.11c-0.4-0.35-0.8-0.51-1.1-0.95-8.2-10.63-6.2-25.92 4.5-34.08 10.6-8.2 25.9-6.21 34 4.46 0.4 0.36 0.5 0.88 0.7 1.28l2.7-2.11c-0.3-0.4-0.7-0.52-1-0.96-8.2-10.63-6.2-25.91 4.4-34.11 10.7-8.16 25.9-6.17 34.1 4.45 4 5.22 5.5 11.51 4.9 17.6 24.1 1.35 58.4 9.99 75.7 45.02" fill="#030"/>
   </g>
   <g transform="matrix(.028057 0 0 -.028057 -574.4 190.55)">
    <path d="m16112 6315.9 10.9-27.84c87.5 52.5 135.7 13.08 168.5-13.8l8.4-6.66v37.83c-35.7 28.15-94.7 64.28-187.8 10.47" fill="#030"/>
   </g>
   <g transform="matrix(.028126 0 0 -.028126 -574.4 190.55)">
    <path d="m16152 6039.9 10.2-27.73c63.2 21.48 101.5-9.61 129-32.12l8.4-6.69v37.78c-30.3 23.81-77.3 53.2-147.6 28.76" fill="#030"/>
   </g>
   <g transform="matrix(.028385 0 0 -.028385 -574.4 190.55)">
    <path d="m16019 6490.8c59.4-21.32 104.8-74.7 131.3-154.35 25.7-77.21 96.2-604.16 149.7-1020.6l-30.7 7.87c-54 401.25-128.8 923.92-154.5 1000.9-22.8 68.4-60.3 113.71-108.5 131.03-47 16.9-103.7 7.33-160-26.88v42.92c59.9 31.04 120.5 37.94 172.7 19.12" fill="#030"/>
   </g>
  </g>
 </g>
</svg>
