<?xml version="1.0" encoding="UTF-8"?>
<svg width="105.83mm" height="148.17mm" version="1.1" viewBox="0 0 105.83 148.17" xmlns="http://www.w3.org/2000/svg">
 <g transform="translate(-51.294 -100.18)">
  <rect x="51.294" y="100.18" width="105.83" height="148.17" fill="#f9f9f9"/>
  <g transform="translate(-132.95 973.31)">
   <g transform="matrix(.39727 0 0 .30411 78.325 -1009.1)">
    <g fill="#600">
     <circle cx="391.4" cy="540.31" r="13.404"/>
     <circle cx="408.7" cy="540.31" r="13.404"/>
     <circle cx="390.67" cy="612.17" r="13.404"/>
    </g>
    <path d="m400.08 609.92v-71.439" fill="none" stroke="#600" stroke-linecap="round" stroke-width="29.076"/>
    <g fill="#600">
     <circle cx="409.67" cy="612.17" r="13.404"/>
     <circle cx="406.9" cy="574.4" r="16.323"/>
     <circle cx="393.35" cy="574.4" r="16.323"/>
    </g>
    <g fill="none" stroke="#fff" stroke-linecap="round" stroke-width="8.3733">
     <path d="m399.97 537.21v22.661"/>
     <path d="m399.97 588.55v21.47"/>
     <path d="m399.47 574.03h1.0082" stroke-linejoin="round"/>
    </g>
   </g>
   <g transform="matrix(.39727 0 0 .30411 50.632 -938.49)">
    <g fill="#030">
     <circle cx="391.4" cy="540.31" r="13.404"/>
     <circle cx="408.7" cy="540.31" r="13.404"/>
     <circle cx="390.67" cy="612.17" r="13.404"/>
    </g>
    <path d="m400.08 609.92v-71.439" fill="none" stroke="#030" stroke-linecap="round" stroke-width="29.076"/>
    <g fill="#030">
     <circle cx="409.67" cy="612.17" r="13.404"/>
     <circle cx="406.9" cy="574.4" r="16.323"/>
     <circle cx="393.35" cy="574.4" r="16.323"/>
    </g>
    <g fill="none" stroke="#fff" stroke-linecap="round" stroke-width="8.3733">
     <path d="m399.97 537.21v22.661"/>
     <path d="m399.97 588.55v21.47"/>
     <path d="m399.47 574.03h1.0082" stroke-linejoin="round"/>
    </g>
   </g>
   <g transform="matrix(.39727 0 0 .30411 105.78 -938.49)">
    <g fill="#030">
     <circle cx="391.4" cy="540.31" r="13.404"/>
     <circle cx="408.7" cy="540.31" r="13.404"/>
     <circle cx="390.67" cy="612.17" r="13.404"/>
    </g>
    <path d="m400.08 609.92v-71.439" fill="none" stroke="#030" stroke-linecap="round" stroke-width="29.076"/>
    <g fill="#030">
     <circle cx="409.67" cy="612.17" r="13.404"/>
     <circle cx="406.9" cy="574.4" r="16.323"/>
     <circle cx="393.35" cy="574.4" r="16.323"/>
    </g>
    <g fill="none" stroke="#fff" stroke-linecap="round" stroke-width="8.3733">
     <path d="m399.97 537.21v22.661"/>
     <path d="m399.97 588.55v21.47"/>
     <path d="m399.47 574.03h1.0082" stroke-linejoin="round"/>
    </g>
   </g>
   <g transform="matrix(.39727 0 0 .30411 50.632 -973.4)">
    <g fill="#030">
     <circle cx="391.4" cy="540.31" r="13.404"/>
     <circle cx="408.7" cy="540.31" r="13.404"/>
     <circle cx="390.67" cy="612.17" r="13.404"/>
    </g>
    <path d="m400.08 609.92v-71.439" fill="none" stroke="#030" stroke-linecap="round" stroke-width="29.076"/>
    <g fill="#030">
     <circle cx="409.67" cy="612.17" r="13.404"/>
     <circle cx="406.9" cy="574.4" r="16.323"/>
     <circle cx="393.35" cy="574.4" r="16.323"/>
    </g>
    <g fill="none" stroke="#fff" stroke-linecap="round" stroke-width="8.3733">
     <path d="m399.97 537.21v22.661"/>
     <path d="m399.97 588.55v21.47"/>
     <path d="m399.47 574.03h1.0082" stroke-linejoin="round"/>
    </g>
   </g>
   <g transform="matrix(.39727 0 0 .30411 105.78 -973.4)">
    <g fill="#030">
     <circle cx="391.4" cy="540.31" r="13.404"/>
     <circle cx="408.7" cy="540.31" r="13.404"/>
     <circle cx="390.67" cy="612.17" r="13.404"/>
    </g>
    <path d="m400.08 609.92v-71.439" fill="none" stroke="#030" stroke-linecap="round" stroke-width="29.076"/>
    <g fill="#030">
     <circle cx="409.67" cy="612.17" r="13.404"/>
     <circle cx="406.9" cy="574.4" r="16.323"/>
     <circle cx="393.35" cy="574.4" r="16.323"/>
    </g>
    <g fill="none" stroke="#fff" stroke-linecap="round" stroke-width="8.3733">
     <path d="m399.97 537.21v22.661"/>
     <path d="m399.97 588.55v21.47"/>
     <path d="m399.47 574.03h1.0082" stroke-linejoin="round"/>
    </g>
   </g>
   <g transform="matrix(.39727 0 0 .30411 78.325 -973.4)">
    <g fill="#600">
     <circle cx="391.4" cy="540.31" r="13.404"/>
     <circle cx="408.7" cy="540.31" r="13.404"/>
     <circle cx="390.67" cy="612.17" r="13.404"/>
    </g>
    <path d="m400.08 609.92v-71.439" fill="none" stroke="#600" stroke-linecap="round" stroke-width="29.076"/>
    <g fill="#600">
     <circle cx="409.67" cy="612.17" r="13.404"/>
     <circle cx="406.9" cy="574.4" r="16.323"/>
     <circle cx="393.35" cy="574.4" r="16.323"/>
    </g>
    <g fill="none" stroke="#fff" stroke-linecap="round" stroke-width="8.3733">
     <path d="m399.97 537.21v22.661"/>
     <path d="m399.97 588.55v21.47"/>
     <path d="m399.47 574.03h1.0082" stroke-linejoin="round"/>
    </g>
   </g>
   <g transform="matrix(.39727 0 0 .30411 78.325 -938.49)">
    <g fill="#600">
     <circle cx="391.4" cy="540.31" r="13.404"/>
     <circle cx="408.7" cy="540.31" r="13.404"/>
     <circle cx="390.67" cy="612.17" r="13.404"/>
    </g>
    <path d="m400.08 609.92v-71.439" fill="none" stroke="#600" stroke-linecap="round" stroke-width="29.076"/>
    <g fill="#600">
     <circle cx="409.67" cy="612.17" r="13.404"/>
     <circle cx="406.9" cy="574.4" r="16.323"/>
     <circle cx="393.35" cy="574.4" r="16.323"/>
    </g>
    <g fill="none" stroke="#fff" stroke-linecap="round" stroke-width="8.3733">
     <path d="m399.97 537.21v22.661"/>
     <path d="m399.97 588.55v21.47"/>
     <path d="m399.47 574.03h1.0082" stroke-linejoin="round"/>
    </g>
   </g>
   <g transform="matrix(.39727 0 0 .30411 50.632 -1009.1)">
    <g fill="#030">
     <circle cx="391.4" cy="540.31" r="13.404"/>
     <circle cx="408.7" cy="540.31" r="13.404"/>
     <circle cx="390.67" cy="612.17" r="13.404"/>
    </g>
    <path d="m400.08 609.92v-71.439" fill="none" stroke="#030" stroke-linecap="round" stroke-width="29.076"/>
    <g fill="#030">
     <circle cx="409.67" cy="612.17" r="13.404"/>
     <circle cx="406.9" cy="574.4" r="16.323"/>
     <circle cx="393.35" cy="574.4" r="16.323"/>
    </g>
    <g fill="none" stroke="#fff" stroke-linecap="round" stroke-width="8.3733">
     <path d="m399.97 537.21v22.661"/>
     <path d="m399.97 588.55v21.47"/>
     <path d="m399.47 574.03h1.0082" stroke-linejoin="round"/>
    </g>
   </g>
   <g transform="matrix(.39727 0 0 .30411 105.78 -1009.1)">
    <g fill="#030">
     <circle cx="391.4" cy="540.31" r="13.404"/>
     <circle cx="408.7" cy="540.31" r="13.404"/>
     <circle cx="390.67" cy="612.17" r="13.404"/>
    </g>
    <path d="m400.08 609.92v-71.439" fill="none" stroke="#030" stroke-linecap="round" stroke-width="29.076"/>
    <g fill="#030">
     <circle cx="409.67" cy="612.17" r="13.404"/>
     <circle cx="406.9" cy="574.4" r="16.323"/>
     <circle cx="393.35" cy="574.4" r="16.323"/>
    </g>
    <g fill="none" stroke="#fff" stroke-linecap="round" stroke-width="8.3733">
     <path d="m399.97 537.21v22.661"/>
     <path d="m399.97 588.55v21.47"/>
     <path d="m399.47 574.03h1.0082" stroke-linejoin="round"/>
    </g>
   </g>
  </g>
 </g>
</svg>
